<mxfile host="app.diagrams.net" modified="2023-10-31T13:45:34.368Z" agent="Mozilla/5.0 (Macintosh; Intel Mac OS X 10_15_7) AppleWebKit/537.36 (KHTML, like Gecko) Chrome/118.0.0.0 Safari/537.36" etag="MCF47fq5ect2GMTZu78k" version="22.0.8" type="device">
  <diagram name="Page-1" id="K7SBhrnB9TIB2BYCpVqp">
    <mxGraphModel dx="254" dy="153" grid="1" gridSize="10" guides="1" tooltips="1" connect="1" arrows="1" fold="1" page="1" pageScale="1" pageWidth="827" pageHeight="1169" math="0" shadow="0">
      <root>
        <mxCell id="0" />
        <mxCell id="1" parent="0" />
        <mxCell id="vhtiH4_wVitRDqFueMQG-35" value="" style="group;fillColor=#f8cecc;strokeColor=#b85450;" vertex="1" connectable="0" parent="1">
          <mxGeometry x="70" y="150" width="750" height="620" as="geometry" />
        </mxCell>
        <mxCell id="vhtiH4_wVitRDqFueMQG-36" value="" style="whiteSpace=wrap;html=1;aspect=fixed;" vertex="1" parent="vhtiH4_wVitRDqFueMQG-35">
          <mxGeometry x="130" width="620" height="620" as="geometry" />
        </mxCell>
        <mxCell id="vhtiH4_wVitRDqFueMQG-8" value="&lt;font style=&quot;font-size: 6px;&quot;&gt;HTTPS REQUEST&lt;/font&gt;" style="text;html=1;strokeColor=none;fillColor=none;align=center;verticalAlign=middle;whiteSpace=wrap;rounded=0;" vertex="1" parent="vhtiH4_wVitRDqFueMQG-35">
          <mxGeometry x="50" y="220" width="70" height="20" as="geometry" />
        </mxCell>
        <mxCell id="vhtiH4_wVitRDqFueMQG-11" value="" style="shape=image;verticalLabelPosition=bottom;labelBackgroundColor=default;verticalAlign=top;aspect=fixed;imageAspect=0;image=data:image/svg+xml,PHN2ZyB4bWxucz0iaHR0cDovL3d3dy53My5vcmcvMjAwMC9zdmciIHZpZXdCb3g9IjAgMCAzMiAzMiIgaGVpZ2h0PSI4MDBweCIgd2lkdGg9IjgwMHB4Ij48dGl0bGU+ZmlsZV90eXBlX25naW54PC90aXRsZT48cGF0aCBzdHlsZT0iZmlsbDojMDE5NjM5IiBkPSJNMTUuOTQ4LDJoLjA2NWExMC40MTgsMTAuNDE4LDAsMCwxLC45NzIuNTI4UTIyLjQxNCw1LjY1LDI3Ljg0Myw4Ljc3NGEuNzkyLjc5MiwwLDAsMSwuNDE0Ljc4OGMtLjAwOCw0LjM4OSwwLDguNzc3LS4wMDUsMTMuMTY0YS44MTMuODEzLDAsMCwxLS4zNTYuNTA3cS01Ljc3MywzLjMyNC0xMS41NDcsNi42NDRhLjU4Ny41ODcsMCwwLDEtLjY1Ny4wMzdROS45MTIsMjYuNiw0LjE0MywyMy4yNzRhLjcuNywwLDAsMS0uNC0uNjY2cTAtNi41ODIsMC0xMy4xNjNhLjY5My42OTMsMCwwLDEsLjM4Ny0uNjdROS41NTIsNS42NTcsMTQuOTc0LDIuNTM1Yy4zMjItLjE4NC42MzgtLjM3OS45NzQtLjUzNSIvPjxwYXRoIHN0eWxlPSJmaWxsOiNmZmYiIGQ9Ik04Ljc2NywxMC41MzhxMCw1LjQyOSwwLDEwLjg1OWExLjUwOSwxLjUwOSwwLDAsMCwuNDI3LDEuMDg3LDEuNjQ3LDEuNjQ3LDAsMCwwLDIuMDYuMjA2LDEuNTY0LDEuNTY0LDAsMCwwLC42ODUtMS4yOTNjMC0yLjYyLS4wMDUtNS4yNCwwLTcuODZxMy41ODMsNC4yOSw3LjE4MSw4LjU2OGEyLjgzMywyLjgzMywwLDAsMCwyLjYuNzgyLDEuNTYxLDEuNTYxLDAsMCwwLDEuMjUxLTEuMzcxcS4wMDgtNS41NDEsMC0xMS4wODFhMS41ODIsMS41ODIsMCwwLDAtMy4xNTIsMGMwLDIuNjYyLS4wMTYsNS4zMjEsMCw3Ljk4Mi0yLjM0Ni0yLjc2Ni00LjY2My01LjU1Ni03LTguMzMyQTIuODE3LDIuODE3LDAsMCwwLDEwLjE3LDkuMDMzLDEuNTc5LDEuNTc5LDAsMCwwLDguNzY3LDEwLjUzOFoiLz48L3N2Zz4=;" vertex="1" parent="vhtiH4_wVitRDqFueMQG-35">
          <mxGeometry x="150" y="220" width="30" height="30" as="geometry" />
        </mxCell>
        <mxCell id="vhtiH4_wVitRDqFueMQG-12" value="&lt;font style=&quot;font-size: 8px;&quot;&gt;&lt;font style=&quot;font-size: 8px;&quot;&gt;API GATEWAY&lt;/font&gt;&lt;br&gt;&lt;/font&gt;&lt;font style=&quot;font-size: 6px;&quot;&gt;&lt;font style=&quot;font-size: 6px;&quot;&gt;Rate limiter&lt;br&gt;Proxy REST Proxy&amp;nbsp;gRPC&lt;br&gt;&lt;/font&gt;&lt;br&gt;&lt;/font&gt;" style="rounded=0;whiteSpace=wrap;html=1;" vertex="1" parent="vhtiH4_wVitRDqFueMQG-35">
          <mxGeometry x="290" y="130" width="60" height="190" as="geometry" />
        </mxCell>
        <mxCell id="vhtiH4_wVitRDqFueMQG-26" value="" style="endArrow=classic;startArrow=classic;html=1;rounded=0;exitX=0.998;exitY=0.585;exitDx=0;exitDy=0;entryX=-0.017;entryY=0.264;entryDx=0;entryDy=0;entryPerimeter=0;exitPerimeter=0;" edge="1" parent="vhtiH4_wVitRDqFueMQG-35" source="vhtiH4_wVitRDqFueMQG-15" target="vhtiH4_wVitRDqFueMQG-12">
          <mxGeometry width="50" height="50" relative="1" as="geometry">
            <mxPoint x="220" y="250" as="sourcePoint" />
            <mxPoint x="280" y="180" as="targetPoint" />
          </mxGeometry>
        </mxCell>
        <mxCell id="vhtiH4_wVitRDqFueMQG-27" value="" style="endArrow=classic;startArrow=classic;html=1;rounded=0;exitX=1.004;exitY=0.58;exitDx=0;exitDy=0;entryX=-0.009;entryY=0.6;entryDx=0;entryDy=0;entryPerimeter=0;exitPerimeter=0;" edge="1" parent="vhtiH4_wVitRDqFueMQG-35" source="vhtiH4_wVitRDqFueMQG-17">
          <mxGeometry width="50" height="50" relative="1" as="geometry">
            <mxPoint x="200" y="289.84000000000003" as="sourcePoint" />
            <mxPoint x="289.19000000000005" y="290" as="targetPoint" />
          </mxGeometry>
        </mxCell>
        <mxCell id="vhtiH4_wVitRDqFueMQG-32" value="" style="shape=image;verticalLabelPosition=bottom;labelBackgroundColor=default;verticalAlign=top;aspect=fixed;imageAspect=0;image=data:image/svg+xml,PHN2ZyB4bWxucz0iaHR0cDovL3d3dy53My5vcmcvMjAwMC9zdmciIGhlaWdodD0iNjAiIHdpZHRoPSIxMjAiIHZpZXdCb3g9IjAgMCAxMjAgNjAiPjxwYXRoIGZpbGwtcnVsZT0iZXZlbm9kZCIgZmlsbD0iIzJkYTZiMCIgZD0iTTQ5LjgzIDI4LjE2NGgyLjI1OGMuNyAwIDEuMjYtLjA5NCAxLjY3NC0uMjhzLjczMy0uNDU1Ljk1NC0uODA0LjM3LS43OC40NDgtMS4yOS4xMTctMS4xMDQuMTE3LTEuNzc3LS4wNC0xLjI2Ni0uMTE3LTEuNzc3LS4yNC0uOTQ4LS40ODctMS4zMS0uNi0uNjMtMS4wMzItLjgwNC0xLjAyNS0uMjYyLTEuNzUyLS4yNjJINDkuODN6bS0zLjk3LTEyLjA1aDYuMzg1YzQuNjcyIDAgNy4wMDggMi43MTcgNy4wMDggOC4xNTIgMCAxLjYxMi0uMjUzIDIuOTk3LS43NiA0LjE1NHMtMS4zOTUgMi4wODctMi42NjcgMi43OWw0LjI4MiAxMi42NzZoLTQuMjA1bC0zLjc2LTEyLjA2M0g0OS44M3YxMi4wNjNoLTMuOTd6bTE2LjU4NCAwSDY4LjRjMS4xIDAgMi4wNS4xNDMgMi44OC40M3MxLjU4My43OTMgMi4yNTggMS41MmE1Ljk1IDUuOTUgMCAwIDEgMS40MDIgMi41NTVjLjI2Ljk3NS4zOSAyLjI5NS4zOSAzLjk2IDAgMS4yMjItLjA5OCAyLjA5Ny0uMjQgMi45NjhzLS42MDMgMi4zODctMi40MTQgMy40MTVjLTEuMTMyLjY0My0yLjc1Ny44NzQtNC4yMzYuODc0aC0yLjAyNHYxMi4wNWgtMy45N3ptMy45NyAxMi4wNWgxLjkwOGMuODA1IDAgMS40MjctLjEwMyAxLjg3LS4zMXMuNzY2LS40ODYuOTczLS44NC4zMy0uNzg0LjM3LTEuMjg3LjA1OC0xLjA2NC4wNTgtMS42ODJjMC0uNTcyLS4wMi0xLjExNS0uMDU4LTEuNjNzLS4xNTYtLjk2LS4zNS0xLjM0LS41LS42NzUtLjkxNS0uODkyLTEuMDEyLS4zMjYtMS43OS0uMzI2aC0yLjA2M3ptMjQuNDg3IDkuNTJjMCAuODU4LS4xNjIgMS42NzctLjQ4NyAyLjQ1N3MtLjc3MiAxLjQ2My0xLjM0MyAyLjA0OGE2LjY0IDYuNjQgMCAwIDEtMi4wMDUgMS40MDQgNS44NiA1Ljg2IDAgMCAxLTIuNDcyLjUyN2MtLjc1MyAwLTEuNTE4LS4xMDQtMi4yOTctLjMxMmE1LjU3IDUuNTcgMCAwIDEtMi4xMDItMS4wNzNjLS42MjMtLjUwNy0xLjEzNS0xLjE3Ny0xLjUzOC0yLjAxcy0uNjAzLTEuODg1LS42MDMtMy4xNnYtMTUuM2MwLS45LjE1Ni0xLjc1NS40NjctMi41MzVzLjc1My0xLjQ1NiAxLjMyNC0yLjAyOCAxLjI1Mi0xLjAyIDIuMDQ0LTEuMzQ2IDEuNjY4LS40ODggMi42MjgtLjQ4OGMuOTA4IDAgMS43NTIuMTYzIDIuNTMuNDg4czEuNDUzLjc4IDIuMDI0IDEuMzY1IDEuMDIgMS4yODcgMS4zNDMgMi4xMDYuNDg3IDEuNy40ODcgMi42NzJ2MS41NmgtMy45N3YtMS4zMjZjMC0uNzgtLjIyLTEuNDU2LS42NjItMi4wMjhhMi4xNCAyLjE0IDAgMCAwLTEuNzkxLS44NThjLS45ODYgMC0xLjY0Mi4zMDYtMS45NjYuOTE3cy0uNDg3IDEuMzg1LS40ODcgMi4zMnYxNC4xOThjMCAuODA2LjE3NSAxLjQ4Mi41MjYgMi4wMjhzLjk4LjgyIDEuODg4LjgyYy4yNiAwIC41NC0uMDQ2LjgzNy0uMTM3cy41Ny0uMjQuODE4LS40NS40NDgtLjQ5NC42MDMtLjg1OC4yMzQtLjgyLjIzNC0xLjM2NXYtMS4zNjVoMy45N3ptNy43OC03LjcyYzAtMS4wMTQtLjgyLTEuODM2LTEuODMtMS44MzZoLTkuOTE3djMuNjdoOC4wODZ2NC4wOTVoLTEuMjQ2bDMuMDk4IDQuMzc3IDMuMDk4LTQuMzc3aC0xLjI4OHptLTY5LjY0IDEuODd2NS40OTdjMCAxLjE0NC4xOTUgMi4xNC41ODQgMi45ODRzLjkwMiAxLjU0NyAxLjUzOCAyLjEwNiAxLjM1Ljk4MiAyLjE0IDEuMjY4YTcgNyAwIDAgMCAyLjM5NC40MjkgNyA3IDAgMCAwIDIuMzk0LS40MjljLjc5Mi0uMjg2IDEuNTA1LS43MSAyLjE0LTEuMjY4czEuMTQ4LTEuMjYgMS41MzgtMi4xMDYuNTg0LTEuODQuNTg0LTIuOTg0di05LjE2bC03LjExNS0uMDEtLjAxIDMuNjczaDMuMTUzdjUuNDk4YzAgLjk2Mi0uMjY2IDEuNjctLjc5OCAyLjEyNmEyLjgxIDIuODEgMCAwIDEtMS44ODguNjgzIDIuODEgMi44MSAwIDAgMS0xLjg4OC0uNjgzYy0uNTMyLS40NTUtLjc5OC0xLjE2NC0uNzk4LTIuMTI2VjIyLjY2N2MwLS45NjIuMjY2LTEuNjcuNzk4LTIuMTI2YTIuODEgMi44MSAwIDAgMSAxLjg4OC0uNjgzIDIuODEgMi44MSAwIDAgMSAxLjg4OC42ODNjLjUzMi40NTUuNzk4IDEuMTY0Ljc5OCAyLjEyNnYxLjQwNGgzLjk3di0xLjQwNGMwLTEuMTE4LS4xOTUtMi4xMDYtLjU4NC0yLjk2NHMtLjkwMi0xLjU2Ny0xLjUzOC0yLjEyNi0xLjM1LS45ODItMi4xNC0xLjI2OGE3IDcgMCAwIDAtMi4zOTQtLjQyOSA3IDcgMCAwIDAtMi4zOTQuNDI5Yy0uNzkyLjI4Ni0xLjUwNS43MS0yLjE0IDEuMjY4cy0xLjE0OCAxLjI2OC0xLjUzOCAyLjEyNi0uNTg0IDEuODQ2LS41ODQgMi45NjR2NS40OTdIMjQuOThWMjQuMDdoMS4yNDZsLTMuMDk4LTQuMzc3LTMuMDk4IDQuMzc3aDEuMjg4VjMwYzAgMS4wMTQuODIgMS44MzYgMS44MyAxLjgzNmg1Ljg5M3oiLz48L3N2Zz4=;" vertex="1" parent="vhtiH4_wVitRDqFueMQG-35">
          <mxGeometry x="210" y="150" width="60" height="30" as="geometry" />
        </mxCell>
        <mxCell id="vhtiH4_wVitRDqFueMQG-33" value="" style="shape=image;verticalLabelPosition=bottom;labelBackgroundColor=default;verticalAlign=top;aspect=fixed;imageAspect=0;image=data:image/svg+xml,PHN2ZyB4bWxucz0iaHR0cDovL3d3dy53My5vcmcvMjAwMC9zdmciIGZpbGw9Im5vbmUiIHZpZXdCb3g9IjAgMCA1NDAgMTk2IiBoZWlnaHQ9IjE5NiIgd2lkdGg9IjU0MCI+JiN4YTs8cGF0aCBmaWxsPSIjMDFCNUU2IiBkPSJNMzUwLjc3NSAxMy44ODY2TDM1NS44MzQgMjAuNTQ4NEMzNTcuMTYyIDIyLjMwNjYgMzU2LjgzIDI0LjgyNjcgMzU1LjA3MiAyNi4xNTUyTDM0OS43IDMwLjIzODJDMzUwLjY3NyAzMi44MzY0IDM1MS4zMDIgMzUuNjEwNSAzNTEuNTU2IDM4LjQ0MzJMMzU3LjY3IDM5LjI4MzNDMzU5Ljg1NyAzOS41NzYzIDM2MS4zODEgNDEuNjA4IDM2MS4wODggNDMuNzk2TDM1OS45NTUgNTIuMDk4OEMzNTkuNjYyIDU0LjI4NjggMzU3LjYzMSA1NS44MzAxIDM1NS40NDMgNTUuNTE3NkwzNDguNzYzIDU0LjU5OTRDMzQ3LjU3MSA1Ny4xOTc3IDM0Ni4wNDggNTkuNTgxIDM0NC4yNTEgNjEuNzEwNEwzNDguMDAxIDY2LjYzMzVDMzQ5LjMyOSA2OC4zOTE3IDM0OC45NzggNzAuOTExOCAzNDcuMjIgNzIuMjQwM0wzNDAuNTU5IDc3LjMwMDFDMzM4LjgwMSA3OC42Mjg1IDMzNi4yODIgNzguMjc2OSAzMzQuOTU0IDc2LjUzODJMMzMwLjg3MSA3MS4xNjU4QzMyOC4yNTQgNzIuMTQyNiAzMjUuNSA3Mi43Njc3IDMyMi42NDggNzMuMDIxN0wzMjEuODA4IDc5LjEzNjRDMzIxLjUxNSA4MS4zMjQ0IDMxOS40ODQgODIuODQ4MiAzMTcuMjk2IDgyLjU1NTJMMzA4Ljk5NSA4MS40MjIxQzMwNi44MDcgODEuMTI5MSAzMDUuMjg0IDc5LjA5NzQgMzA1LjU3NyA3Ni45MDkzTDMwNi40OTUgNzAuMjI4MUMzMDMuOTE3IDY5LjAzNjQgMzAxLjUxNCA2Ny41MTI2IDI5OS4zODUgNjUuNzM0OEwyOTQuNDYzIDY5LjQ2NjJDMjkyLjcwNSA3MC43OTQ2IDI5MC4xODUgNzAuNDYyNSAyODguODU3IDY4LjcwNDNMMjgzLjc5OCA2Mi4wNDI1QzI4Mi40NyA2MC4yODQzIDI4Mi44MDIgNTcuNzY0MiAyODQuNTYgNTYuNDM1N0wyODkuOTMxIDUyLjM1MjhDMjg4Ljk1NSA0OS43MzQ5IDI4OC4zMyA0Ni45ODA0IDI4OC4wNzYgNDQuMTQ3N0wyODEuOTYyIDQzLjMwNzZDMjc5Ljc3NSA0My4wMTQ2IDI3OC4yMzEgNDAuOTgyOSAyNzguNTQ0IDM4Ljc5NDlMMjc5LjY3NyAzMC40OTIxQzI3OS45ODkgMjguMzA0MSAyODIuMDAxIDI2Ljc4MDMgMjg0LjE4OSAyNy4wNzMzTDI5MC44NjkgMjcuOTkxNUMyOTIuMDYgMjUuNDEyOCAyOTMuNTg0IDIzLjAwOTkgMjk1LjM2MSAyMC44ODA1TDI5MS42MzEgMTUuOTU3NEMyOTAuMzAyIDE0LjIxODcgMjkwLjYzNSAxMS42OTg2IDI5Mi4zOTIgMTAuMzcwMkwyOTkuMDUzIDUuMzEwMzlDMzAwLjgxMSAzLjk4MTk1IDMwMy4zMzEgNC4zMTQwNiAzMDQuNjU5IDYuMDcyMjhMMzA4Ljc0MSAxMS40NDQ2QzMxMS4zMzkgMTAuNDY3OSAzMTQuMTEyIDkuODQyNzEgMzE2Ljk0NSA5LjU4ODc0TDMxNy43ODUgMy40NzQwMUMzMTguMDc4IDEuMjg2IDMyMC4xMDkgLTAuMjU3MzM3IDMyMi4yOTcgMC4wMzU3MDExTDMzMC41OTggMS4xNjg3OEMzMzIuNzg1IDEuNDYxODIgMzM0LjMyOCAzLjQ5MzU1IDMzNC4wMTYgNS42ODE1N0wzMzMuMDk4IDEyLjM2MjhDMzM1LjY5NiAxMy41NTQ1IDMzOC4wNzkgMTUuMDc4MyAzNDAuMjI3IDE2Ljg3NTZMMzQ1LjE0OSAxMy4xNDQzQzM0Ni45MDcgMTEuNzk2MyAzNDkuNDI3IDEyLjEyODQgMzUwLjc3NSAxMy44ODY2Wk0yMDcuOTU0IDEzMS4xMjFWOTguODg3MkgyMjQuNTU2QzIyNy42NDMgOTguODg3MiAyMjkuOTg2IDk5LjE0MTIgMjMxLjYwOCA5OS42ODgyQzIzMy4yMjkgMTAwLjIxNiAyMzQuNTU3IDEwMS4xOTIgMjM1LjUzNCAxMDIuNjE5QzIzNi41MyAxMDQuMDY0IDIzNy4wMzggMTA1LjgwMyAyMzcuMDM4IDEwNy44NTRDMjM3LjAzOCAxMDkuNjMyIDIzNi42NDcgMTExLjE5NSAyMzUuODg1IDExMi40ODRDMjM1LjEyMyAxMTMuNzkzIDIzNC4wNjkgMTE0Ljg0OCAyMzIuNzQxIDExNS42NDlDMjMxLjkwMSAxMTYuMTU3IDIzMC43MjkgMTE2LjU4NyAyMjkuMjQ0IDExNi45MTlDMjMwLjQzNiAxMTcuMzI5IDIzMS4yOTUgMTE3LjcgMjMxLjgyMiAxMTguMTFDMjMyLjE5NCAxMTguMzg0IDIzMi43MjEgMTE4Ljk1MSAyMzMuNDA1IDExOS44MUMyMzQuMDg4IDEyMC42NyAyMzQuNTU3IDEyMS4zNTMgMjM0Ljc5MSAxMjEuODIyTDIzOS42MzUgMTMxLjE0MUgyMjguMzg1TDIyMy4wNzIgMTIxLjMxNEMyMjIuMzg4IDEyMC4wNDUgMjIxLjgwMiAxMTkuMjA1IDIyMS4yNzUgMTE4LjgzM0MyMjAuNTUyIDExOC4zNDUgMjE5LjczMiAxMTguMDkxIDIxOC44MzMgMTE4LjA5MUgyMTcuOTU0VjEzMS4xNDFIMjA3Ljk1NFYxMzEuMTIxWk0yNDMuMDczIDE4Ny4yNDhIMjI0LjQ3OEwyMjEuODAyIDE5NkgyMDUuMDQ0TDIyNS4wMjUgMTQyLjg4MkgyNDIuOTk1TDI2Mi44OTkgMTk2SDI0NS43MUwyNDMuMDczIDE4Ny4yNDhaTTIzOS41OTYgMTc1Ljc0MUwyMzMuNzk1IDE1Ni42MzVMMjI3Ljk3NSAxNzUuNzQxSDIzOS41OTZaTTI2Ni43NjYgMTQyLjg4MkgyOTQuMDcyQzMwMC4wMyAxNDIuODgyIDMwNC40ODMgMTQ0LjI4OSAzMDcuNDMyIDE0Ny4xMjFDMzEwLjM4MiAxNDkuOTU0IDMxMS44NjYgMTUzLjk5OCAzMTEuODY2IDE1OS4yMTRDMzExLjg2NiAxNjQuNTg2IDMxMC4yNDUgMTY4Ljc4NyAzMDcuMDIyIDE3MS44MTVDMzAzLjc5OSAxNzQuODQzIDI5OC44NTggMTc2LjM0NyAyOTIuMjM2IDE3Ni4zNDdIMjgzLjIzMlYxOTZIMjY2Ljc2NlYxNDIuODgyVjE0Mi44ODJaTTI4My4yMzIgMTY1LjU4M0gyODcuMjc1QzI5MC40NTkgMTY1LjU4MyAyOTIuNzA1IDE2NS4wMzYgMjkzLjk5NCAxNjMuOTIyQzI5NS4yODMgMTYyLjgyOCAyOTUuOTI4IDE2MS40MDIgMjk1LjkyOCAxNTkuNzAyQzI5NS45MjggMTU4LjA0MiAyOTUuMzYxIDE1Ni42MTYgMjk0LjI0OCAxNTUuNDYzQzI5My4xMzUgMTU0LjMxIDI5MS4wMjUgMTUzLjcyNCAyODcuOTM5IDE1My43MjRIMjgzLjIzMlYxNjUuNTgzVjE2NS41ODNaTTMxOC41MDcgMTQyLjg4MkgzMzQuOTczVjE5NkgzMTguNTA3VjE0Mi44ODJWMTQyLjg4MlpNMjE3Ljk1NCAxMTEuOTc2SDIyMi4xNTRDMjIyLjYwMyAxMTEuOTc2IDIyMy40ODIgMTExLjgyIDIyNC43OTEgMTExLjUyN0MyMjUuNDU1IDExMS4zOSAyMjYuMDAyIDExMS4wNTggMjI2LjQxMiAxMTAuNTExQzIyNi44NDIgMTA5Ljk2NCAyMjcuMDM3IDEwOS4zMzkgMjI3LjAzNyAxMDguNjM2QzIyNy4wMzcgMTA3LjYgMjI2LjcwNSAxMDYuNzggMjI2LjA0MSAxMDYuMjMzQzIyNS4zNzcgMTA1LjY2NiAyMjQuMTQ2IDEwNS4zOTMgMjIyLjMzIDEwNS4zOTNIMjE3Ljk1NFYxMTEuOTc2Wk0yNDEuNTUgOTguODg3MkgyNjguMjExVjEwNS43NjRIMjUxLjU1VjExMC45MDJIMjY3VjExNy40NjZIMjUxLjU1VjEyMy44MTVIMjY4LjdWMTMxLjEwMkgyNDEuNTVWOTguODg3MlpNMjcxLjA2MyAxMjAuNDU1TDI4MC41MTcgMTE5Ljg2OUMyODAuNzEyIDEyMS40MTIgMjgxLjE0MiAxMjIuNTY1IDI4MS43NjcgMTIzLjM2NkMyODIuODAyIDEyNC42NTUgMjg0LjI2NyAxMjUuMzE5IDI4Ni4xNjIgMTI1LjMxOUMyODcuNTY4IDEyNS4zMTkgMjg4LjY4MSAxMjQuOTg3IDI4OS40NDMgMTI0LjMyM0MyOTAuMjA1IDEyMy42NTkgMjkwLjU5NSAxMjIuODc3IDI5MC41OTUgMTIxLjk5OEMyOTAuNTk1IDEyMS4xNTggMjkwLjIyNCAxMjAuNDE2IDI4OS41MDIgMTE5Ljc1MkMyODguNzc5IDExOS4wODcgMjg3LjA4IDExOC40ODIgMjg0LjQwNCAxMTcuODc2QzI4MC4wNDggMTE2Ljg5OSAyNzYuOTQyIDExNS41OSAyNzUuMDY3IDExMy45NjlDMjczLjE5MiAxMTIuMzQ3IDI3Mi4yNTUgMTEwLjI3NyAyNzIuMjU1IDEwNy43NTZDMjcyLjI1NSAxMDYuMDk2IDI3Mi43NDMgMTA0LjUzMyAyNzMuNyAxMDMuMDY4QzI3NC42NTcgMTAxLjYwMyAyNzYuMTAyIDEwMC40MzEgMjc4LjAzNiA5OS41OTA1QzI3OS45NyA5OC43NTA0IDI4Mi42MDcgOTguMzQwMiAyODUuOTY2IDk4LjM0MDJDMjkwLjA4OCA5OC4zNDAyIDI5My4yMTMgOTkuMTAyMSAyOTUuMzgxIDEwMC42NDVDMjk3LjUyOSAxMDIuMTg5IDI5OC44MTkgMTA0LjYxMSAyOTkuMjI5IDEwNy45NzFMMjg5Ljg3MyAxMDguNTM4QzI4OS42MTkgMTA3LjA3MyAyODkuMDkxIDEwNS45OTggMjg4LjMxIDEwNS4zNTRDMjg3LjUwOSAxMDQuNjg5IDI4Ni4zOTYgMTA0LjM1NyAyODUuMDA5IDEwNC4zNTdDMjgzLjg1NyAxMDQuMzU3IDI4Mi45NzggMTA0LjYxMSAyODIuMzkyIDEwNS4xQzI4MS44MDYgMTA1LjU4OCAyODEuNTEzIDEwNi4xOTQgMjgxLjUxMyAxMDYuODk3QzI4MS41MTMgMTA3LjQwNSAyODEuNzY3IDEwNy44NTQgMjgyLjIzNiAxMDguMjg0QzI4Mi43MDQgMTA4LjY5NCAyODMuNzk4IDEwOS4xMDQgMjg1LjU1NiAxMDkuNDc2QzI4OS45MTIgMTEwLjQxMyAyOTMuMDM3IDExMS4zNzEgMjk0LjkxMiAxMTIuMzI4QzI5Ni43ODcgMTEzLjI4NSAyOTguMTc0IDExNC40NzcgMjk5LjAxNCAxMTUuOTAzQzI5OS44NzMgMTE3LjMxIDMwMC4zMDMgMTE4LjkxMSAzMDAuMzAzIDEyMC42N0MzMDAuMzAzIDEyMi43NCAyOTkuNzM3IDEyNC42MzUgMjk4LjU4NCAxMjYuMzc0QzI5Ny40NTEgMTI4LjExMyAyOTUuODUgMTI5LjQ0MSAyOTMuNzk5IDEzMC4zNEMyOTEuNzQ4IDEzMS4yMzkgMjg5LjE3IDEzMS42ODggMjg2LjA0NCAxMzEuNjg4QzI4MC41NzUgMTMxLjY4OCAyNzYuNzY3IDEzMC42MzMgMjc0LjY1NyAxMjguNTIzQzI3Mi41NDggMTI2LjM3NCAyNzEuMzU2IDEyMy42OTggMjcxLjA2MyAxMjAuNDU1Wk0zMDEuNzQ4IDk4Ljg4NzJIMzMyLjA0M1YxMDYuODU4SDMyMS44ODZWMTMxLjEyMUgzMTEuOTI1VjEwNi44NThIMzAxLjc0OFY5OC44ODcyVjk4Ljg4NzJaTTI2OC4yMzEgMjIuMzg0N0MyNjQuNjU2IDIyLjExMTIgMjYxLjA0MyAyMi4xNTAzIDI1Ny40NjkgMjIuNTAyQzI0Ni40NzIgMjMuNTU2OSAyMzUuNzg4IDI3LjU2MTcgMjI2Ljk1OSAzNC40MTg4QzIxNi43NDMgNDIuMzMwOSAyMDguOTg5IDU0LjE2OTYgMjA2LjAwMSA2OS44NTY5TDIwNS4wNjMgNzQuNzYwNEwyMDAuMTggNzUuNjJDMTk1LjM5NSA3Ni40NiAxOTEuMTE3IDc3LjYxMjYgMTg3LjM2NyA3OS4wNzc4QzE4My43MzQgODAuNDg0NCAxODAuNDkxIDgyLjIyMzEgMTc3LjY1OSA4NC4yNzQ0QzE3NS4zOTMgODUuOTE1NCAxNzMuNDQgODcuNzUxNyAxNzEuNzggODkuNzQ0NEMxNjYuNjQzIDk1Ljg5ODIgMTY0LjI2IDEwMy42MTUgMTY0LjMxOSAxMTEuNDI5QzE2NC4zNzcgMTE5LjM2MSAxNjYuOTU1IDEyNy4zNyAxNzEuNzIxIDEzMy45NTRDMTczLjQ5OSAxMzYuMzk2IDE3NS41NSAxMzguNjQzIDE3Ny44OTQgMTQwLjU5NkMxODAuMjc3IDE0Mi41NjkgMTgyLjk1MiAxNDQuMjEgMTg1Ljk2IDE0NS40NDFDMTg3LjY2IDE0Ni4xNDQgMTg5LjQ3NiAxNDYuNzMxIDE5MS4zNzEgMTQ3LjE5OVYxNjEuODMyQzE4Ny40NjQgMTYxLjEyOCAxODMuODcgMTYwLjA3NCAxODAuNTExIDE1OC42ODZDMTc2LjA3NyAxNTYuODUgMTcyLjE1MSAxNTQuNDg2IDE2OC42OTQgMTUxLjU5NUMxNjUuNDEyIDE0OC44NiAxNjIuNTQxIDE0NS43NTQgMTYwLjEgMTQyLjM3NEMxNTMuNTk1IDEzMy4zODggMTUwLjA3OSAxMjIuNDA4IDE1MC4wMDEgMTExLjQ2OEMxNDkuOTIzIDEwMC40MTEgMTUzLjM2MSA4OS40MTIzIDE2MC43ODMgODAuNTAzOUMxNjMuMTg2IDc3LjYxMjYgMTY2LjAxOCA3NC45NTU4IDE2OS4yNiA3Mi42MTE0QzE3My4wMyA2OS44NzY0IDE3Ny4zNDcgNjcuNTcxMiAxODIuMjMgNjUuNjc2MkMxODUuNTg5IDY0LjM2NzMgMTg5LjE4MyA2My4yNzMzIDE5Mi45NzMgNjIuMzk0MkMxOTcuMjcgNDUuMzE5OCAyMDYuNDMgMzIuMTcyMiAyMTguMjA4IDIzLjA0OUMyMjkuMjI1IDE0LjUxMTggMjQyLjQ4NyA5LjUzMDEzIDI1Ni4xNCA4LjIyMTIzQzI2My4zMDkgNy41Mzc0NyAyNzAuNTc1IDcuODUwMDUgMjc3LjY4NSA5LjE3ODQ5QzI3Ny41MjggOS44MjMxNyAyNzcuMzkyIDEwLjQ2NzkgMjc3LjMxMyAxMS4xMzIxTDI3Ny4yOTQgMTEuMjQ5M0MyNzcuMTU3IDEyLjM2MjggMjc3LjA5OSAxMy40NzY0IDI3Ny4xNTcgMTQuNjA5NUMyNzUuNjUzIDE1LjE5NTUgMjc0LjI0NyAxNS45OTY1IDI3Mi45NzcgMTYuOTczM0wyNzIuOTE5IDE3LjAxMjRDMjcxLjAyNCAxOC40Mzg1IDI2OS40MjIgMjAuMjc0OSAyNjguMjMxIDIyLjM4NDdaTTM3MS41NzcgNTkuODkzNkMzNzIuNjcxIDYwLjg4OTkgMzczLjcyNSA2MS45MjUzIDM3NC43NjEgNjMuMDM4OUMzNzYuODUgNjUuMjg1NSAzNzguODIzIDY3LjgyNTIgMzgwLjY3OSA3MC42NTc5QzM4Ni45MjkgODAuMjY5NSAzOTAuMTMzIDkzLjEwNDYgMzg5Ljk5NiAxMDUuNjY2QzM4OS44NTkgMTE3Ljk5MyAzODYuNTM5IDEzMC4yNjIgMzc5Ljc0MSAxMzkuMjg3QzM3NS4zMDcgMTQ1LjE2OCAzNjkuNjI0IDE0OS45NzMgMzYyLjgwNyAxNTMuNzgzQzM1OC4xMzggMTU2LjQwMSAzNTIuODg0IDE1OC41NjkgMzQ3LjE2MSAxNjAuMzI4VjE0NS4xODdDMzUwLjI0NyAxNDQuMDM1IDM1My4xMTkgMTQyLjc0NSAzNTUuNzU2IDE0MS4yOEMzNjAuODkzIDEzOC40MDggMzY1LjA5MiAxMzQuOTExIDM2OC4yMzcgMTMwLjcxMUMzNzMuMTIgMTI0LjIwNiAzNzUuNTIyIDExNS4wMDQgMzc1LjYyIDEwNS41NjhDMzc1LjczNyA5NS42NjM4IDM3My4zMTUgODUuNzIgMzY4LjYwOCA3OC40OTE4QzM2Ny4yNiA3Ni40MDE0IDM2NS43NzYgNzQuNTI2IDM2NC4yMTMgNzIuODQ1OUMzNjMuNjA4IDcyLjIwMTIgMzYzLjAwMiA3MS41OTU2IDM2Mi4zNzcgNzEuMDA5NUMzNjIuNDc1IDcwLjAzMjcgMzYyLjUxNCA2OS4wMzY0IDM2Mi40NTUgNjguMDQwMUMzNjMuOTU5IDY3LjQ1NCAzNjUuMzY1IDY2LjY1MyAzNjYuNjM1IDY1LjY3NjJMMzY2LjY5NCA2NS42MzcxQzM2OC43MDUgNjQuMDkzOCAzNzAuMzg1IDYyLjE0MDIgMzcxLjU3NyA1OS44OTM2Wk0zMjIuMDQzIDI1LjAwMjVDMzMxLjA0NyAyNi4yMzMzIDMzNy4zMzYgMzQuNTM2IDMzNi4xMDYgNDMuNTQyMUMzMzQuODc1IDUyLjU0ODEgMzI2LjU3NCA1OC44NTgyIDMxNy41NyA1Ny42Mjc0QzMwOC41NjUgNTYuMzk2NyAzMDIuMjU2IDQ4LjA5MzkgMzAzLjUwNiAzOS4wODc5QzMwNC43NTYgMzAuMDgxOSAzMTMuMDM4IDIzLjc3MTggMzIyLjA0MyAyNS4wMDI1WiIgY2xpcC1ydWxlPSJldmVub2RkIiBmaWxsLXJ1bGU9ImV2ZW5vZGQiLz4mI3hhOzwvc3ZnPg==;" vertex="1" parent="vhtiH4_wVitRDqFueMQG-35">
          <mxGeometry x="200" y="250.49" width="80" height="29.03" as="geometry" />
        </mxCell>
        <mxCell id="vhtiH4_wVitRDqFueMQG-38" value="&lt;font style=&quot;font-size: 7px;&quot;&gt;127.0.0.1:10000&lt;/font&gt;" style="text;html=1;strokeColor=none;fillColor=none;align=center;verticalAlign=middle;whiteSpace=wrap;rounded=0;" vertex="1" parent="vhtiH4_wVitRDqFueMQG-35">
          <mxGeometry x="290" y="130.97" width="60" height="30" as="geometry" />
        </mxCell>
        <mxCell id="vhtiH4_wVitRDqFueMQG-43" value="" style="group" vertex="1" connectable="0" parent="vhtiH4_wVitRDqFueMQG-35">
          <mxGeometry x="140" y="260" width="50" height="50" as="geometry" />
        </mxCell>
        <mxCell id="vhtiH4_wVitRDqFueMQG-17" value="&lt;p style=&quot;line-height: 90%;&quot;&gt;&lt;span style=&quot;font-size: 5px;&quot;&gt;&lt;br&gt;&lt;/span&gt;&lt;/p&gt;&lt;p style=&quot;line-height: 90%;&quot;&gt;&lt;span style=&quot;font-size: 5px;&quot;&gt;&lt;br&gt;&lt;/span&gt;&lt;/p&gt;&lt;p style=&quot;line-height: 90%;&quot;&gt;&lt;span style=&quot;font-size: 5px;&quot;&gt;Enterprise web&lt;br&gt;&lt;br&gt;&lt;br&gt;&lt;/span&gt;&lt;/p&gt;" style="rounded=0;whiteSpace=wrap;html=1;align=center;" vertex="1" parent="vhtiH4_wVitRDqFueMQG-43">
          <mxGeometry width="50" height="50" as="geometry" />
        </mxCell>
        <mxCell id="vhtiH4_wVitRDqFueMQG-39" value="" style="shape=image;verticalLabelPosition=bottom;labelBackgroundColor=default;verticalAlign=top;aspect=fixed;imageAspect=0;image=data:image/svg+xml,PHN2ZyB4bWxucz0iaHR0cDovL3d3dy53My5vcmcvMjAwMC9zdmciIHZpZXdCb3g9IjAgMCAxMDI0IDEwMjQiIGhlaWdodD0iODAwcHgiIHdpZHRoPSI4MDBweCI+JiN4YTsgICA8Y2lyY2xlIHN0eWxlPSJmaWxsOiMwMDkxZTIiIHI9IjUxMiIgY3k9IjUxMiIgY3g9IjUxMiIvPiYjeGE7ICAgPHBhdGggc3R5bGU9ImZpbGw6I2ZmZiIgZD0iTTgyNy4zIDQ2MS41Yy0xLjYtMS4zLTE2LjEtMTIuMi00Ni43LTEyLjItOC4xIDAtMTYuMi42LTI0LjIgMi4xLTUuOS00MC43LTM5LjUtNjAuNS00MS02MS40bC04LjItNC44LTUuNCA3LjhjLTYuOCAxMC41LTExLjcgMjItMTQuNiAzNC4yLTUuNSAyMy4yLTIuMiA0NSA5LjYgNjMuNi0xNC4yIDcuOS0zNy4xIDkuOS00MS43IDEwSDI3N2MtOS45IDAtMTcuOSA4LTE3LjkgMTcuOS0uNCAzMy4xIDUuMiA2NiAxNi41IDk3LjEgMTMgMzQuMiAzMi40IDU5LjMgNTcuNiA3NC43IDI4LjIgMTcuMyA3NC4xIDI3LjIgMTI2LjIgMjcuMiAyMy41LjEgNDctMi4xIDcwLjEtNi40IDMyLjEtNS45IDYzLTE3LjEgOTEuNC0zMy4yIDIzLjQtMTMuNiA0NC41LTMwLjggNjIuNC01MS4xIDI5LjktMzMuOSA0Ny44LTcxLjcgNjEuMS0xMDUuMmg1LjNjMzIuOCAwIDUzLTEzLjEgNjQuMS0yNC4xIDcuNC03IDEzLjItMTUuNSAxNi45LTI1bDIuMy02LjktNS43LTQuM3pNMzEyIDQ4OS45aDUwLjdjMi40IDAgNC40LTIgNC40LTQuNHYtNDUuMWMwLTIuNC0yLTQuNC00LjQtNC41SDMxMmMtMi40IDAtNC40IDItNC40IDQuNHY0NS4yYzAgMi41IDIgNC40IDQuNCA0LjRtNjkuOSAwaDUwLjdjMi40IDAgNC40LTIgNC40LTQuNHYtNDUuMWMwLTIuNC0yLTQuNC00LjQtNC41aC01MC43Yy0yLjUgMC00LjUgMi00LjUgNC41djQ1LjFjMCAyLjUgMiA0LjQgNC41IDQuNG03MC44LjFoNTAuN2MyLjQgMCA0LjQtMiA0LjQtNC40di00NS4xYzAtMi40LTItNC40LTQuNC00LjVoLTUwLjdjLTIuNCAwLTQuNCAyLTQuNCA0LjR2NDUuMmMwIDIuNCAyIDQuMyA0LjQgNC40bTcwLjEgMGg1MC43YzIuNCAwIDQuNC0yIDQuNS00LjR2LTQ1LjFjMC0yLjUtMi00LjUtNC41LTQuNWgtNTAuN2MtMi40IDAtNC40IDItNC40IDQuNHY0NS4yYzAgMi40IDEuOSA0LjQgNC40IDQuNG0tMTQxLTY1aDUwLjdjMi40IDAgNC40LTIgNC40LTQuNXYtNDUuMWMwLTIuNC0yLTQuNC00LjQtNC40aC01MC43Yy0yLjUgMC00LjQgMi00LjUgNC40djQ1LjFjLjEgMi41IDIuMSA0LjUgNC41IDQuNW03MC45IDBoNTAuN2MyLjQgMCA0LjQtMiA0LjQtNC41di00NS4xYzAtMi40LTItNC40LTQuNC00LjRoLTUwLjdjLTIuNCAwLTQuNCAyLTQuNCA0LjR2NDUuMWMwIDIuNSAyIDQuNSA0LjQgNC41bTcwLjEgMGg1MC43YzIuNSAwIDQuNC0yIDQuNS00LjV2LTQ1LjFjMC0yLjUtMi00LjQtNC41LTQuNGgtNTAuN2MtMi40IDAtNC40IDItNC40IDQuNHY0NS4xYzAgMi41IDEuOSA0LjUgNC40IDQuNW0wLTY0LjloNTAuN2MyLjUgMCA0LjUtMiA0LjUtNC41di00NS4yYzAtMi40LTItNC40LTQuNS00LjRoLTUwLjdjLTIuNCAwLTQuNCAyLTQuNCA0LjR2NDUuMmMwIDIuNSAxLjkgNC41IDQuNCA0LjVNNTkzLjQgNDkwaDUwLjdjMi40IDAgNC40LTIgNC40LTQuNHYtNDUuMWMwLTIuNS0yLTQuNC00LjQtNC41aC01MC43Yy0yLjQgMC00LjQgMi00LjQgNC40djQ1LjJjMCAyLjQgMiA0LjQgNC40IDQuNCIvPiYjeGE7PC9zdmc+;" vertex="1" parent="vhtiH4_wVitRDqFueMQG-43">
          <mxGeometry x="15.480000000000018" y="4.509999999999991" width="19.03" height="19.03" as="geometry" />
        </mxCell>
        <mxCell id="vhtiH4_wVitRDqFueMQG-45" value="&lt;font style=&quot;font-size: 5px;&quot;&gt;127.0.0.1:5001&lt;/font&gt;" style="text;html=1;strokeColor=none;fillColor=none;align=center;verticalAlign=middle;whiteSpace=wrap;rounded=0;" vertex="1" parent="vhtiH4_wVitRDqFueMQG-43">
          <mxGeometry x="4.990000000000009" y="15" width="40" height="20" as="geometry" />
        </mxCell>
        <mxCell id="vhtiH4_wVitRDqFueMQG-44" value="" style="group" vertex="1" connectable="0" parent="vhtiH4_wVitRDqFueMQG-35">
          <mxGeometry x="140" y="140" width="50" height="70" as="geometry" />
        </mxCell>
        <mxCell id="vhtiH4_wVitRDqFueMQG-15" value="&lt;p style=&quot;line-height: 100%;&quot;&gt;&lt;font style=&quot;font-size: 5px;&quot;&gt;&lt;br&gt;&lt;/font&gt;&lt;/p&gt;&lt;p style=&quot;line-height: 100%;&quot;&gt;&lt;font style=&quot;font-size: 5px;&quot;&gt;Staff CRM&lt;/font&gt;&lt;/p&gt;" style="rounded=0;whiteSpace=wrap;html=1;align=center;" vertex="1" parent="vhtiH4_wVitRDqFueMQG-44">
          <mxGeometry width="50" height="70" as="geometry" />
        </mxCell>
        <mxCell id="vhtiH4_wVitRDqFueMQG-42" value="" style="shape=image;verticalLabelPosition=bottom;labelBackgroundColor=default;verticalAlign=top;aspect=fixed;imageAspect=0;image=data:image/svg+xml,PHN2ZyB4bWxucz0iaHR0cDovL3d3dy53My5vcmcvMjAwMC9zdmciIHZpZXdCb3g9IjAgMCAxMDI0IDEwMjQiIGhlaWdodD0iODAwcHgiIHdpZHRoPSI4MDBweCI+JiN4YTsgICA8Y2lyY2xlIHN0eWxlPSJmaWxsOiMwMDkxZTIiIHI9IjUxMiIgY3k9IjUxMiIgY3g9IjUxMiIvPiYjeGE7ICAgPHBhdGggc3R5bGU9ImZpbGw6I2ZmZiIgZD0iTTgyNy4zIDQ2MS41Yy0xLjYtMS4zLTE2LjEtMTIuMi00Ni43LTEyLjItOC4xIDAtMTYuMi42LTI0LjIgMi4xLTUuOS00MC43LTM5LjUtNjAuNS00MS02MS40bC04LjItNC44LTUuNCA3LjhjLTYuOCAxMC41LTExLjcgMjItMTQuNiAzNC4yLTUuNSAyMy4yLTIuMiA0NSA5LjYgNjMuNi0xNC4yIDcuOS0zNy4xIDkuOS00MS43IDEwSDI3N2MtOS45IDAtMTcuOSA4LTE3LjkgMTcuOS0uNCAzMy4xIDUuMiA2NiAxNi41IDk3LjEgMTMgMzQuMiAzMi40IDU5LjMgNTcuNiA3NC43IDI4LjIgMTcuMyA3NC4xIDI3LjIgMTI2LjIgMjcuMiAyMy41LjEgNDctMi4xIDcwLjEtNi40IDMyLjEtNS45IDYzLTE3LjEgOTEuNC0zMy4yIDIzLjQtMTMuNiA0NC41LTMwLjggNjIuNC01MS4xIDI5LjktMzMuOSA0Ny44LTcxLjcgNjEuMS0xMDUuMmg1LjNjMzIuOCAwIDUzLTEzLjEgNjQuMS0yNC4xIDcuNC03IDEzLjItMTUuNSAxNi45LTI1bDIuMy02LjktNS43LTQuM3pNMzEyIDQ4OS45aDUwLjdjMi40IDAgNC40LTIgNC40LTQuNHYtNDUuMWMwLTIuNC0yLTQuNC00LjQtNC41SDMxMmMtMi40IDAtNC40IDItNC40IDQuNHY0NS4yYzAgMi41IDIgNC40IDQuNCA0LjRtNjkuOSAwaDUwLjdjMi40IDAgNC40LTIgNC40LTQuNHYtNDUuMWMwLTIuNC0yLTQuNC00LjQtNC41aC01MC43Yy0yLjUgMC00LjUgMi00LjUgNC41djQ1LjFjMCAyLjUgMiA0LjQgNC41IDQuNG03MC44LjFoNTAuN2MyLjQgMCA0LjQtMiA0LjQtNC40di00NS4xYzAtMi40LTItNC40LTQuNC00LjVoLTUwLjdjLTIuNCAwLTQuNCAyLTQuNCA0LjR2NDUuMmMwIDIuNCAyIDQuMyA0LjQgNC40bTcwLjEgMGg1MC43YzIuNCAwIDQuNC0yIDQuNS00LjR2LTQ1LjFjMC0yLjUtMi00LjUtNC41LTQuNWgtNTAuN2MtMi40IDAtNC40IDItNC40IDQuNHY0NS4yYzAgMi40IDEuOSA0LjQgNC40IDQuNG0tMTQxLTY1aDUwLjdjMi40IDAgNC40LTIgNC40LTQuNXYtNDUuMWMwLTIuNC0yLTQuNC00LjQtNC40aC01MC43Yy0yLjUgMC00LjQgMi00LjUgNC40djQ1LjFjLjEgMi41IDIuMSA0LjUgNC41IDQuNW03MC45IDBoNTAuN2MyLjQgMCA0LjQtMiA0LjQtNC41di00NS4xYzAtMi40LTItNC40LTQuNC00LjRoLTUwLjdjLTIuNCAwLTQuNCAyLTQuNCA0LjR2NDUuMWMwIDIuNSAyIDQuNSA0LjQgNC41bTcwLjEgMGg1MC43YzIuNSAwIDQuNC0yIDQuNS00LjV2LTQ1LjFjMC0yLjUtMi00LjQtNC41LTQuNGgtNTAuN2MtMi40IDAtNC40IDItNC40IDQuNHY0NS4xYzAgMi41IDEuOSA0LjUgNC40IDQuNW0wLTY0LjloNTAuN2MyLjUgMCA0LjUtMiA0LjUtNC41di00NS4yYzAtMi40LTItNC40LTQuNS00LjRoLTUwLjdjLTIuNCAwLTQuNCAyLTQuNCA0LjR2NDUuMmMwIDIuNSAxLjkgNC41IDQuNCA0LjVNNTkzLjQgNDkwaDUwLjdjMi40IDAgNC40LTIgNC40LTQuNHYtNDUuMWMwLTIuNS0yLTQuNC00LjQtNC41aC01MC43Yy0yLjQgMC00LjQgMi00LjQgNC40djQ1LjJjMCAyLjQgMiA0LjQgNC40IDQuNCIvPiYjeGE7PC9zdmc+;" vertex="1" parent="vhtiH4_wVitRDqFueMQG-44">
          <mxGeometry x="15" y="11.666666666666668" width="20" height="20" as="geometry" />
        </mxCell>
        <mxCell id="vhtiH4_wVitRDqFueMQG-46" value="&lt;font style=&quot;font-size: 5px;&quot;&gt;127.0.0.1:5000&lt;/font&gt;" style="text;html=1;strokeColor=none;fillColor=none;align=center;verticalAlign=middle;whiteSpace=wrap;rounded=0;" vertex="1" parent="vhtiH4_wVitRDqFueMQG-44">
          <mxGeometry x="5" y="23.333333333333336" width="40" height="23.333333333333336" as="geometry" />
        </mxCell>
        <mxCell id="vhtiH4_wVitRDqFueMQG-37" value="" style="shape=image;verticalLabelPosition=bottom;labelBackgroundColor=default;verticalAlign=top;aspect=fixed;imageAspect=0;image=data:image/svg+xml,PHN2ZyB4bWxuczp4bGluaz0iaHR0cDovL3d3dy53My5vcmcvMTk5OS94bGluayIgeG1sbnM9Imh0dHA6Ly93d3cudzMub3JnLzIwMDAvc3ZnIiB4bWw6c3BhY2U9InByZXNlcnZlIiB2aWV3Qm94PSIwIDIgNDggNDgiIHk9IjBweCIgeD0iMHB4IiB2ZXJzaW9uPSIxLjEiPiYjeGE7PHBvbHlnb24gcG9pbnRzPSIyMC4xLDE4LjIgMjAuMiwyMC41IDE4LjYsMjMuNSAxNi4xLDI4LjQgMTUuNiwzMi41IDE3LjQsMzguMyAyMS41LDQwLjYgMjcuNyw0MC42IDMzLjUsMzYuMiAmIzEwOyYjOTszNi4xLDI5LjMgMzAuMSwyMiAyOC40LDE3LjkiIGZpbGw9IiNFQ0VGRjEiLz4mI3hhOzxwYXRoIGQ9Ik0zNC4zLDIzLjljLTEuNi0yLjMtMi45LTMuNy0zLjYtNi42Yy0wLjctMi45LDAuMi0yLjEtMC40LTQuNmMtMC4zLTEuMy0wLjgtMi4yLTEuMy0yLjkmIzEwOyYjOTtjLTAuNi0wLjctMS4zLTEuMS0xLjctMS4yYy0wLjktMC41LTMtMS4zLTUuNiwwLjFjLTIuNywxLjQtMi40LDQuNC0xLjksMTAuNWMwLDAuNC0wLjEsMC45LTAuMywxLjNjLTAuNCwwLjktMS4xLDEuNy0xLjcsMi40JiMxMDsmIzk7Yy0wLjcsMS0xLjQsMi0xLjksMy4xYy0xLjIsMi4zLTIuMyw1LjItMiw2LjNjMC41LTAuMSw2LjgsOS41LDYuOCw5LjdjMC40LTAuMSwyLjEtMC4xLDMuNi0wLjFjMi4xLTAuMSwzLjMtMC4yLDUsMC4yJiMxMDsmIzk7YzAtMC4zLTAuMS0wLjYtMC4xLTAuOWMwLTAuNiwwLjEtMS4xLDAuMi0xLjhjMC4xLTAuNSwwLjItMSwwLjMtMS42Yy0xLDAuOS0yLjgsMS45LTQuNSwyLjJjLTEuNSwwLjMtNC0wLjItNS4yLTEuNyYjMTA7JiM5O2MwLjEsMCwwLjMsMCwwLjQtMC4xYzAuMy0wLjEsMC42LTAuMiwwLjctMC40YzAuMy0wLjUsMC4xLTEtMC4xLTEuM2MtMC4yLTAuMy0xLjctMS40LTIuNC0yYy0wLjctMC42LTEuMS0wLjktMS41LTEuMyYjMTA7JiM5O2MwLDAtMC42LTAuNi0wLjgtMC44Yy0wLjItMC4yLTAuMy0wLjQtMC40LTAuNWMtMC4yLTAuNS0wLjMtMS4xLTAuMi0xLjljMC4xLTEuMSwwLjUtMiwxLTNjMC4yLTAuNCwwLjctMS4yLDAuNy0xLjImIzEwOyYjOTtzLTEuNyw0LjItMC44LDUuNWMwLDAsMC4xLTEuMywwLjUtMi42YzAuMy0wLjksMC44LTIuMiwxLjQtMi45czIuMS0zLjMsMi4yLTQuOWMwLTAuNywwLjEtMS40LDAuMS0xLjljLTAuNC0wLjQsNi42LTEuNCw3LTAuMyYjMTA7JiM5O2MwLjEsMC40LDEuNSw0LDIuMyw1LjljMC40LDAuOSwwLjksMS43LDEuMiwyLjdjMC4zLDEuMSwwLjUsMi42LDAuNSw0LjFjMCwwLjMsMCwwLjgtMC4xLDEuM2MwLjIsMCw0LjEtNC4yLTAuNS03LjcmIzEwOyYjOTtjMCwwLDIuOCwxLjMsMi45LDMuOWMwLjEsMi4xLTAuOCwzLjgtMSw0LjFjMC4xLDAsMi4xLDAuOSwyLjIsMC45YzAuNCwwLDEuMi0wLjMsMS4yLTAuM2MwLjEtMC4zLDAuNC0xLjEsMC40LTEuNCYjMTA7JiM5O0MzNy42LDI5LjksMzUuOSwyNi4yLDM0LjMsMjMuOXoiIGZpbGw9IiMyNjMyMzgiLz4mI3hhOzxnPiYjeGE7CTxlbGxpcHNlIHJ5PSIyIiByeD0iMS4zIiBjeT0iMTUuMyIgY3g9IjIxLjYiIGZpbGw9IiNFQ0VGRjEiLz4mI3hhOwk8ZWxsaXBzZSByeT0iMi4zIiByeD0iMS43IiBjeT0iMTUuMiIgY3g9IjI2LjEiIGZpbGw9IiNFQ0VGRjEiLz4mI3hhOzwvZz4mI3hhOzxnPiYjeGE7CSYjeGE7CQk8ZWxsaXBzZSByeT0iMC43IiByeD0iMS4yIiBjeT0iMTUuNSIgY3g9IjIxLjciIGZpbGw9IiMyMTIxMjEiIHRyYW5zZm9ybT0ibWF0cml4KC0wLjEyNTQgLTAuOTkyMSAwLjk5MjEgLTAuMTI1NCA4Ljk3NTQgMzguOTk2OSkiLz4mI3hhOwk8ZWxsaXBzZSByeT0iMS4zIiByeD0iMSIgY3k9IjE1LjYiIGN4PSIyNiIgZmlsbD0iIzIxMjEyMSIvPiYjeGE7PC9nPiYjeGE7PGc+JiN4YTsJPHBhdGggZD0iTTM5LjMsMzcuNmMtMC40LTAuMi0xLjEtMC41LTEuNy0xLjRjLTAuMy0wLjUtMC4yLTEuOS0wLjctMi41Yy0wLjMtMC40LTAuNy0wLjItMC44LTAuMiYjMTA7JiM5OyYjOTtjLTAuOSwwLjItMywxLjYtNC40LDBjLTAuMi0wLjItMC41LTAuNS0xLTAuNWMtMC41LDAtMC43LDAuMi0wLjksMC42cy0wLjIsMC43LTAuMiwxLjdjMCwwLjgsMCwxLjctMC4xLDIuNCYjMTA7JiM5OyYjOTtjLTAuMiwxLjctMC41LDIuNy0wLjUsMy43YzAsMS4xLDAuMywxLjgsMC43LDIuMWMwLjMsMC4zLDAuOCwwLjUsMS45LDAuNWMxLjEsMCwxLjgtMC40LDIuNS0xLjFjMC41LTAuNSwwLjktMC43LDIuMy0xLjcmIzEwOyYjOTsmIzk7YzEuMS0wLjcsMi44LTEuNiwzLjEtMS45YzAuMi0wLjIsMC41LTAuMywwLjUtMC45QzQwLDM3LjksMzkuNiwzNy43LDM5LjMsMzcuNnoiIGZpbGw9IiNGRkMxMDciLz4mI3hhOwk8cGF0aCBkPSJNMTkuMiwzNy45Yy0xLTEuNi0xLjEtMS45LTEuOC0yLjljLTAuNi0xLTEuOS0yLjktMi43LTIuOWMtMC42LDAtMC45LDAuMy0xLjMsMC43JiMxMDsmIzk7JiM5O2MtMC40LDAuNC0wLjgsMS4zLTEuNSwxLjhjLTAuNiwwLjUtMi4zLDAuNC0yLjcsMWMtMC40LDAuNiwwLjQsMS41LDAuNCwzYzAsMC42LTAuNSwxLTAuNiwxLjRjLTAuMSwwLjUtMC4yLDAuOCwwLDEuMiYjMTA7JiM5OyYjOTtjMC40LDAuNiwwLjksMC44LDQuMywxLjVjMS44LDAuNCwzLjUsMS40LDQuNiwxLjVjMS4xLDAuMSwzLDAsMy0yLjdDMjEsMzkuOSwyMC4xLDM5LjUsMTkuMiwzNy45eiIgZmlsbD0iI0ZGQzEwNyIvPiYjeGE7CTxwYXRoIGQ9Ik0yMS4xLDE5LjhDMjAuNSwxOS40LDIwLDE5LDIwLDE4LjRjMC0wLjYsMC40LTAuOCwxLTEuM2MwLjEtMC4xLDEuMi0xLjEsMi4zLTEuMXMyLjQsMC43LDIuOSwwLjkmIzEwOyYjOTsmIzk7YzAuOSwwLjIsMS44LDAuNCwxLjcsMS4xYy0wLjEsMS0wLjIsMS4yLTEuMiwxLjdjLTAuNywwLjItMiwxLjMtMi45LDEuM2MtMC40LDAtMSwwLTEuNC0wLjFDMjIuMSwyMC44LDIxLjYsMjAuMywyMS4xLDE5Ljh6IiBmaWxsPSIjRkZDMTA3Ii8+JiN4YTs8L2c+JiN4YTs8Zz4mI3hhOwk8cGF0aCBkPSJNMjAuOSwxOWMwLjIsMC4yLDAuNSwwLjQsMC44LDAuNWMwLjIsMC4xLDAuNSwwLjIsMC41LDAuMmMwLjQsMCwwLjcsMCwwLjksMGMwLjUsMCwxLjItMC4yLDEuOS0wLjYmIzEwOyYjOTsmIzk7YzAuNy0wLjMsMC44LTAuNSwxLjMtMC43YzAuNS0wLjMsMS0wLjYsMC44LTAuN2MtMC4yLTAuMS0wLjQsMC0xLjEsMC40Yy0wLjYsMC40LTEuMSwwLjYtMS43LDAuOWMtMC4zLDAuMS0wLjcsMC4zLTEsMC4zJiMxMDsmIzk7JiM5O2MtMC4zLDAtMC42LDAtMC45LDBjLTAuMywwLTAuNS0wLjEtMC44LTAuMmMtMC4yLTAuMS0wLjMtMC4yLTAuNC0wLjJjLTAuMi0wLjEtMC42LTAuNS0wLjgtMC42YzAsMC0wLjIsMC0wLjEsMC4xJiMxMDsmIzk7JiM5O0MyMC42LDE4LjcsMjAuNywxOC44LDIwLjksMTl6IiBmaWxsPSIjNjM0NzAzIi8+JiN4YTsJPHBhdGggZD0iTTIzLjksMTYuOGMwLjEsMC4yLDAuMywwLjIsMC40LDAuM2MwLjEsMC4xLDAuMiwwLjEsMC4yLDAuMWMwLjEtMC4xLDAtMC4zLTAuMS0wLjMmIzEwOyYjOTsmIzk7QzI0LjQsMTYuNywyMy45LDE2LjcsMjMuOSwxNi44eiIgZmlsbD0iIzYzNDcwMyIvPiYjeGE7CTxwYXRoIGQ9Ik0yMi4zLDE3YzAsMC4xLDAuMiwwLjIsMC4yLDAuMWMwLjEtMC4xLDAuMi0wLjIsMC4zLTAuMmMwLjItMC4xLDAuMS0wLjItMC4yLTAuMiYjMTA7JiM5OyYjOTtDMjIuNCwxNi44LDIyLjQsMTYuOSwyMi4zLDE3eiIgZmlsbD0iIzYzNDcwMyIvPiYjeGE7PC9nPiYjeGE7PHBhdGggZD0iTTMyLDM0LjdjMCwwLjEsMCwwLjIsMCwwLjNjMC4yLDAuNCwwLjcsMC41LDEuMSwwLjVjMC42LDAsMS4yLTAuNCwxLjUtMC44YzAtMC4xLDAuMS0wLjIsMC4yLTAuMyYjMTA7JiM5O2MwLjItMC4zLDAuMy0wLjUsMC40LTAuNmMwLDAtMC4xLTAuMS0wLjEtMC4yYy0wLjEtMC4yLTAuNC0wLjQtMC44LTAuNWMtMC4zLTAuMS0wLjgtMC4yLTEtMC4yYy0wLjktMC4xLTEuNCwwLjItMS43LDAuNSYjMTA7JiM5O2MwLDAsMC4xLDAsMC4xLDAuMWMwLjIsMC4yLDAuMywwLjQsMC4zLDAuN0MzMi4xLDM0LjQsMzIsMzQuNSwzMiwzNC43eiIgZmlsbD0iIzQ1NUE2NCIvPiYjeGE7PC9zdmc+;" vertex="1" parent="vhtiH4_wVitRDqFueMQG-35">
          <mxGeometry x="222" y="6" width="48" height="48" as="geometry" />
        </mxCell>
        <mxCell id="vhtiH4_wVitRDqFueMQG-31" value="" style="shape=image;verticalLabelPosition=bottom;labelBackgroundColor=default;verticalAlign=top;aspect=fixed;imageAspect=0;image=data:image/png,iVBORw0KGgoAAAANSUhEUgAABFYAAAEoCAYAAABy0HVwAAAABGdBTUEAALGPC/xhBQAAACBjSFJNAAB6JgAAgIQAAPoAAACA6AAAdTAAAOpgAAA6mAAAF3CculE8AAAABmJLR0QA/wD/AP+gvaeTAACAAElEQVR42uzdeXxU1d0/8M/33JksbGFHcUNFUENmEqIguEVJJkQFbTW2dqXok0Imcelja5ff045t7dNa+7hkAdPWWmt9npq2blXIJGi0CqLGZBJAQLTuCgFDWJOZuef7+yPBorIkmbl3tu/79aJaSe7yveeee873nnsOQQghhBBxrbS01Ni4b/woHc4gZfaMBgAojAEAgpFlEClN5igylQEArDiDmDI/2QBjNCsmAGD+zN9R33b6fy4TChkAQAzS4NH//jEaRqD0T36UORPU97NHRRgFhjGAn1QAsmwK6zMaVN7hr94oJUwIIYQQkSAJgRBCCDF42QXlI9IyjcxwKDzSYThGmmY40zAcIzSZo0gjE1DDAc5igiJGFjMUE40ksIOBEURwQtMwJp1OoEwCZTCQDvAwAGkAhgNwABgp0bYGAzuc2jGzpenudyQaQgghhBgqh4RACCFEsptdUjlqPzCKtM5ShFFgNdwEZ5FGJhGGgTFak84kpkwQxoCRSYRMDR5NoGEgzgRTFvqSHZkARgGANjWUUtCsQf3/BBP4QLe9/x8MAAQc+Bs68NfEoP53HHzg54VtCBgXVuEfAfi2REMIIYQQQyWJFSGEEHEt59KlYxysRoW0zjLCNIoMztKaRpFSWQBngWk0gbO4L9nR999A/f+OLACje0xNB4ZoagYA3ZfOoIOTHvTvcZz9//1A0gMsAzyTFqFAgiCEEEKISEhiRQghhOVyC24crdKD400YYxnmWMUYx1BjGXosgcYCGEfgsQwaBVAWg0fRgcRICNAADChAAcwEIgB8YITHZ8d6SBJEDAJDSxCEEEIIEQlJrAghhBiw6QsXj8wMpo3TbIwlzeOZaKwCj2XGuL5/p7EMHsvAOALGou/POEZImUzoGyny709l6KAkCH/y7yypEWEfwioJghBCCCEiIYkVIYRIYTmXLh2DkDFJaT0eRBOI+FgNTCCiCcSYBGAiM8aDMA7AWPTA2feJDADqS4tw/yc0ff9+0BwiQsS/D8IG/1zCIIQQQohISNtXCCGSyJSCRRkj0oZNcCgcA+aJYDUewEQmHAONCSBMAHAMgAn9f9IkaiLFdAPQAD9LSt/UtnL5WxISIYQQQkRCEitCCBHvfD6V/dK2iY6gcSyUPo6Ij9WMyQQ6loFjCJgA8ASAjoEszSvsxQB29v/bLhBMgPYR0MvQIQb2UN/SRwd+ZjeAMBHvZ009TBwmot0AQExd/S2TPdAIAQAb2lRs7DqwM5NZM8zuTxoxpJhNvfNTR5SOroP/b8eTy3YCsuSSEEIIIawjiRUhhIghl2fJRNaOSQbxCaxoErQ+nkkdo4iP575PcY4HMAny6aYYmt0Aevr/uZeBXoB3EqgHhP3MtJMYvQDvJaLdGuhVwC5A79VAr0HGTm2aPVrxfjYcOxXQyyq8l0LDg+3+O/ZKeIUQQgghJLEihBCWyC6+aazB+yeTdhxHio/RjOOIcAyA4/tHmRxImMinOOKzegHsImAXQDsZ3M3AbmLsgsIuYuxiQjdA3QTsYuZdGtiltNqtEe7WRsZOg41eSXwIIYQQQthDEitCCDFIUwoWZYx2jjpBkz5BgU9gwkkEnMDACdA4AYSTAAyXSKWs/QA+BqiLwB9roIsYH0Ohi5g+BnQXs9pFinczeJdm3gWNrrSwuas7M333lhVVvRJCIYQQQojEIYkVIYT4jL6VcnAKgSYrqGOZ+RQonALGZADHApgCQEmkkl4PQF1g7gKhC0AXGF0gdBGoSzO6oHQXGF2k0QWDurRDf9Dx5LIuCZ0QQgghROqQxIoQIqXkLygbFg46TwbjZAZOUMAJDD4BwEkAnQDgOABOiVTSCQLYTsB2BrYy0KmIO5lpO4G2AdjGWm9nB3cGQ2r7xlU1OyRkQgghhBBiICSxIoRIOgdGnBhsnMKKTwHjFAafQqBTIKNNkkUvQB9/ajQJ8AGBPjwwksSA8YGG/lBp6mo9d/xH8Pm0hE0IIYQQQkSbJFaEEAlnSsGijJGOzMkOw3EKM59y4FMdYjqFwadD5jdJZD0APgDwIQ5KlgD4QEN/yOAPHGx8KIkSIYQQQggRLySxIoSIOwUFPsf2zB0nOUzdlzQBnQyFU5hxMgGnABgrUUooGsA29H2C8z4RtoHxHkDbmPCB0vjIZPPDEXszPlyz5s79Ei4hhBBCCJFIJLEihIgZV0nl8TB5GrE+DaDTQJgOwjQwTobMc5IoggDeB/g9gN4B8ftg9R4Rv0Oa3gfwwdTRW7fW19ebEiohhBBCCJGMJLEihLDU5+Y70cgmojMZPA3ASIlQXAsCtIOAD5j4TTA+BOED0vQms/5Qgz84fcz2tyVpIoQQQgghUpkkVoQQEZsz56bMnlHhaSabp4FpGimcxozpAKYRME4iFLc+AvgtgN5i4F0A7ynQO1D6fYPD77U01H0EgCVMQgghhBBCHJ4kVoQQA+byLJlIpLKJcQZAM5gwjRmnEXCC1CdxaSuAtwB+C0xvMeFtBr3l1Pqtj8P7/vVW8/09EiIhhBBCCCEiIx0hIcTn5Fy6dIzqpWxS6kwGZzP4TILKBvhYiU5c6SLQmwz+EMAHILxJmt40yXwzmNG7edPj9+2WEAkhhBBCCGEtSawIkcLyi8uODWnnmUR0JsDZAJ8JUDZk1Z14EQL4LQK2MGgLQK8TmW+ScvxLOXrfanmibp+ESAghhBBCiNiSxIoQKeDQI1AoB8AkiU7MhQC8y+A3CfTmgVEnrHjDmN4Jm5qbfWEJkRBCCCGEEPFLEitCJJH8BWXDzJAjG4xcBrkBuMHIBjBGohNTPQDeAPh1ML0BRVsUaAtTaEvbOce8A59PS4iEEEIIIYRITJJYESJBuUoqj1dh7dIENzFyQXABOA2AIdGJCQbjHRBtItKvMdRGQG8yGVvW+Wvfg6yuI4QQQgghRFKSxIoQca6gwOfoSu+cTprOBCGbwfkAzoZ8xhMrIfQtTbwBjPVE9CZrvSEcRtv65to9Eh4hhBBCCCFSiyRWhIgjuQU3jmZHcAaTyifiMwFkA8gHkCHRsV3fijvMG6Cw/sC8J9NGbdtYX19vSniEEEIIIYQQgCRWhIiZ/OKyY0PsOIuYzmLCWQTkApgskbHdRwxeR1AdRPo1NvGaIxze2NJct11CI4QQQgghhDgaSawIYYP8wrKsMBw5TCqf+j7lyQfhTImMrXYTaPOBESjMvMFJ4VdaGuo+lNAIIYQQQgghhkoSK0JE2fSFi0dm7MtwfyaJcobcb7YJA3gHwAYCtYCxnhVvCMyZ8JqsviOEEEIIIYSINunoCREBl+fm4aT35ZFBZzHjLABnAZgm95YtGMC/iLAOwDpmameE1zt36E0tLXUhCY8QQgghhBDCDtL5E2KACgp8jo/TO12K+RxmOguEswCcCVne2A5hAjYA1AbiVtK6VbHZ1tJU1y2hEUIIIYQQQsSSJFaEOIzZJZWjghqzmPm8/iWOzwMwWiJjuSAYWwC0MKiFWLc4MsOvtjxRt09CI4QQQgghhIg3klgRol9O4dJTyKDziCmfQOcyOA+AkshYqhvAOgAtTNzCzOt11qSO9fW+oIRGCCGEEEIIkQgksSJSUnZB+QgjTc0i8FwG5hAwB8AYiYylOhl4mRivEFErObi19amatyUsQgghhBBCiEQmiRWREvKKKiYzcC4TnwcgH8DZANIkMpYJEaidwS8wcQuBWgINNRvQN+GsEEIIIYQQQiQNSayIpCzXOYUVM5RCAcAXAjQX4GMlLJYxCVjP4JeJsJZgvJTVO259c7MvLKERQgghhBBCJH0HVEIgkkFO4dJTDGUUMnEhgIvAGC9Rsaza+BDoG4WioVvYyc93PLmsS+IihBBCCCGESMkekoRAJByfT814cesMpVUBAQUMXEDAOAmMJfaB8RIIzwNYyzBfavcv3yZhEUIIIYQQQog+klgRCUFGpNhmK4CXQXgeJr+w12m8vGVFVa+ERQghhBBCCCEOTRIrIi4dnEhhxsUyIsUyb4LxAhE9z8QvyASzQgghhBBCCDE4klgRcSGncOkpyjA8YPYAuBDAWIlK1O0H+BUCPQ/SL5gOrJa5UYQQQgghhBAiMpJYETExfeHiken7h11Eij1gFAOYKlGJum4Az4H4WUW0OjhyQsv6el9QwiKEEEIIIYQQ0SOJFWEbd7E3G8BlzFxIoPMBpEtUomovg9cQURNMfsHRFV7b0lIXkrAIIYQQQgghhHUksSIs4/IsmajYcWH/hLOXAZgsUYmqfQBawXheKdUUHDXuORmRIoQQQgghhBD2ksSKiJqpJZXpI0x9AcAegDwMuCQqUdUDxotQeIahnjFHjVsriRQhhBBCCCGEiC1JrIiIuDxLJhI5LoXGZSD2ABghUYmaEAhrAXoG0M909+5b81bz/T0SFiGEEEIIIYSIH5JYEYOWU7j0FCJjAUhfRqACAA6JStT8C0AjMTUh5Ghsa75rp4RECCGEEEIIIeKXJFbEURUU+Bxdjm3ngOgyKHwBjGkSlajZx+DVRNSkWTd1+Je1SEiEEEIIIYQQInFIYkUcUn5B2XjTmXYRgxeAcDmAURKVqHkTwD8UqSd2K/xzy4qqXgmJEEIIIYQQQiQmSayIT+R4Kk4n5i8SYSGAswEoiUpUdDLQCOIG04B//VO1H0lIhBBCCCGEECI5SGIlxc2Yv9RlmOpKEK4EkC0RiQom0KtM/Lhm/WTH3Emt8Pm0hEUIIYQQQgghko8kVlKQu9ibTUylDP4SgNMlIlERBrCWmeo16b+v89e+KyERQgghhBBCiOQniZUU8e9kiv4KQKdJRKLiYxBWMfgfmcp4dO2Kql0SEiGEEEIIIYRILZJYSVY+n3I/v20uFJUCuBLAcRKUqPhk4lm1vffZlpa6kIRECCGEEEIIIVKXJFaS7Hq6iivPI21+BURXApggIYmYCeBFYnrcJDze4a/eKCERQgghhBBCCPFJR1xCkPjySirPZJOvBvhrDJwqEYmYBrCGmeqdKvhwS0PdhxISIYQQQgghhBCHIomVBOUqqTweYb6SiEsBnCsRidgnyRQDqG9trP5AQiKEEEIIIYQQ4mgksZJAcgtuHK3TgwuJqRRACQBDohIRSaYIIYQQQgghhIiIJFbi3JSCRRmj0oYVEdHXwbgcQJpEJSKfJFPIDP818PTy9yUkQgghhBBCCCGGShIrcSq3qOJcJl4M4CoAoyQiEWH0JVMelmRKfJhaUpmepXvHhsgYxRojDvx3BznGDHZbOhR6Ta6pEEIIIYQQIlYcEoL4kXPp0jFGyCgF2Mtgl0QkYu+C8RDB+H1b4z2vSzjsU1Dgc2zP2HqmQ6s8BqYCPAWgkwGcCGAsTD08DCeIP53d1awHvS92OOYBkMSKEEIIIYQQIiYksRJrPp/KW7PjYg1dhhCuYLBTghKRXWA8ppR6oLWhahX6RqsIi5WWlhqv75x0DhRfwoyCLnTmGloN+3fwLRscpzMNekWugBBCCCGEECJW5FOgGJnhKT/BIPoKNJaCcJJEJLLONYA1BHpAI+PP7f479kpI7OEurpxF0P/BjC8CGGv3/hl4rd1fc6ZcCSHEEZ+5826YZFDoNDZwCjEmA3QsAAr4a66X6AghhBAiUjJixUZTSyrTR4R5oSZdRqB5YJCktiLrVCvQw1Dh+9tWLn9LImITn0+5VndeTcD3wdod4yFBL8kFEUIcMKVgUcbojGE5zCqfGTMBziNgGhAeBRCIP/UMeUwiJoQQQohokMSKDfJKKs80TfaSqb/ChNGSTYkAYTsYD2noBzr8y1okIPZyF5V7sLrzdgDueDgeBZbEihAprLS01NjUNf5sMpQHDA+AWazhBPioT1oFelkiKIQQQohokMSKVQ7MncL6Bm3qS0k+u4oIgVoA1GXucv5pzZo790tE7JW/oGxYuNf53wAqEUdl2QSvlasjRGrJLvWlGTu3zyfwVzd3o4gUxgxtNi1JzAohhBAiOiSxEu0OaGFZVojSFtHqzhs1MEUiEpFdAP5PkaptbagKSDhiY2Zh+RlmLz0B4NQ4O7QenTWpQ66QEKkhr6RyApvs5e7OchAmRLg5Np1aJr4WQgghRFRIYiVKcovKc5loaRj4GoGHSUQi8iqB7g0F9UPrm2v3SDhiWa4rzjUVPwrG+Hg7NgZa19f7gnKVhEhuc+bclLlvVPB6beofARgZpc1u7nhyWZdEVwghhBDRIImVCJSWlhqbuidcAuB6BhVKRCLSC8LjCqqutaGqScIRe+7i8ouYeQUY6fF4fATI/AhCRJPPp7Jf2jbRGcIxhgpvbWmo+zDWh5TjqTh9Hwf/BkZ0V/9imfhaCGFd/2DLzkmTwmQeGzLVWxtX1eyQqAiR/CSxMgT5BWXjw07H0s3dtISAyRKRiGxkpuWcZj4gbw/jR05hRQ6Y/w7EZ1IFAEjmRxBiSGbMu2ESGeZMArIJfBqAqQxMpdWdkwFyMAEhpF8AIKaJlVxP+VwG+0EYHu1tM0E+AxJCRMR98ZLj2KFmEtGZYD6NoaYSeOrmbhwLYqWgkA5MByCJFSFSgCRWBiHvEu9JOozvhIFrgeg39FLMCwz+Vbu/9h8AWMIRP7KLbxqrOPgUgNHxfJxsyooeQhzNJ6vmKFVIhLP7liAOH//Zn/vMjNQmOP3VWB73DE/5CRr0OFn1rNVaErNCiAHLzy9zBsc55yjGPCI+m0EzAUwiHGjFEujzzdmdgVU1r0v0hEgNklgZAJdnyQxi43s6jC8DcEpEht6UBfAUSP0s0FAljdp4rRR0cBkIx8f5YX4sjRUhDi37kvJjnGG1EOCizd2YRwpjAIAHmMImYH3Af8feWJ6DgvovAo+zaPOhXeH9bVJShBBHkl94w4lhI7SQQEVhxsUKGAEayGLun3gZ8vJQiNTpQ0kIDs9dWH4eFN0C4FKQLJccgT0A7nNox29amu5+R8IRv3KLyhcx4er4P1J6RRorQhzE51PuF7ddQRrXcZg8DDaGuikGx3Q0WEGBz9GFzmus2j4Dgbea7++RQiOE+Kz8/DKnOc5xNTNdF6bwBWBSQ21sEMlccEKkEkmsHKIedHnKLyPQLQDOlXBEZCuBlptO826ZPyX+TV+4eCT3qF8kRL6CsFaumBAAfD6Vu7rz67y68/8BNDUqdy/HtjPQlb5jJhgjLKxAZMSkEOJTCgp8jp3Ozm+HCbcAOCEqr1NZPlkWIpVIYqVffn6ZMzTecQ0xfQ9AtkQkIh0E/CaUNeF/ZTncxJHRM+yHAB+bCMfKrKWxIlJejqfidPVC5wNMODu6N5gR48SDeT4sHCSqpP4QQhwkr6jirC7qvD/a7X8Oh6WuESKFpHxipbS01Ni0a8JXw0w/IcYpUiQieoS8qKF+2uGvXgn5TCOxGhUllRO0qW9IlOM1HTK8VqQ2t8d7GcAPgTAyypve7+jqXRfTJwnT+VZ+e0sOQ0asCCH66tKiiq9p4t8CyIjypt8PPL38fYmwEKkjlRMr5PKUX7a5m35GgFuKQgSBBNrB9PO2xpq/QhIqCUmHdQUImQlxsIy31z9V+5FcNZGqcosqzmVwvQUdATDQ1tJSF4rlI4WAuRZuf/fUER9tapViJETK609Q3w/AiP7WWV4ACZFiUjKxkldcWcjMv2RwvhSBiNq/64jx07bGakmoJLD8BWXDwkGUJ8oVlMngRCorLS01Nnfz72FBUqVfTOcvmllYfroJTLBsB4yW+vp6U0qSEKltSsGiDIDqEMFE30euamQuJyFSTUolVtyF5eeRots06wvk0kdkPRPf3j5nwoPw+bSEI7GFe9K+COLxiXK8GiQT14qUtXnnxIUgTLdq+wr8SkzrI6XmkrVZXqk/hBDIcg77ppXzyingFYmyEKklJRIrefO9czTjZ2DMk2EVQ8fAayD+5fRRnX+ur6830SAxSQqEr8e4XL2jQJ3MvJsJ+4iw94iNFa2b5KKJlK2HiUosTTywI9ZvWWdbGj8lq3QIIQAQ5lvatAk6pa4RIsUkdWLFXezNZsbtWuMSudQRPR9eJ+DWwNyJ/wufT7dLQJJGXlHFZA2eZ29xwgYG/qxAzxocXNfSVNctV0KIgfYFuNDCzXe1Nd6zJcbnd46V29esZXi+ECmu75NKutDCXWxua75rp0RaiNSSlImVnEuXjlFBdQsYNxGQJpd5yD4G4fa9yrhry4qqXvglIMmGwV+AJZO2HbLLtI6Jytv9Vf+UyAsxeDOLy6eajJMtvEdfRgzny5q+cPFI9OBMC3fx0Tp/7btSkoRIba/vnjATwBgLW1cyWkWIFJRUiZWCAp9jZ9r2xRzin4MsnPwu+QUBLKeg8yeScU9yxJcCZP1+mJc7Pg5dH+PVRoRIaCZUoZV5D4aOaWcgfX/mLJB1iV4iyGgVIQSY6WJLtw/55FCIVJQ0iZUcT0XJx+j8DQFnyGWN6GnwMBnmLW0rl78lwUhu+QvKhoV76SLLd0S4P+CvLYesHCVEpL0BK4euQ1FsOwOK6By2MnHEsqKYEAIg5gvZwpdKhpK6RohUlPCJFfc87zQ48HMwl8rljKjzuxkmXR9oqpYpaVOE2eMsAFm2ZGt/TwZvD9udJkkVIaJyO2GulePLSMc2scLg2dbugGXEihCCGGTlXE6hjO60NgmzEKknYRMrOZcuHWOE6SfMKAfDKZdyyHaBcatjR6hKPtNIsU4a0fmW5zsUvrdmzZ37JdpCRKZ/oukTLdzFe62N1R/E+DRnWVnl9WpqkZIkRGpzF3vPBFs5vwo6pN0jRGpKyMSKu9h7NUK4h4FJcgmHjoj+10DwP1v8dR9KNFIRn2/xDj4a0zvh7xJnISJnkp5LVs6HxBTT0RwzSipPhaktfKbzlo2randISRIixdu+4LlsaV0qI+OESFUJlVjJLy47NszOKjCulEsXkbeYeGmgoWalhCI1TSlYlAHgLGtbL/xAc7MvLNEWIgq3E9EcSweYUWwnrnWY5jmWdnZA0tkRQoA1zbG2qpGJa4VIVSpR2pSu4vJvhNm5DpCkSgTCAO4JBzmnvaFWkiopbLRzRD6AdGs7gmqFRFqIKHUGGHOs3X6s51eh2cl8fkKIeOlRYK6Vm9da6hohUlXcj1hxz/NOIwO/ZcYFcrkiepKs0zAXdfiXyTfmAiCea/EeejO7nWsl0EJEbmpJZTqZOs/CXbAKOWP7bGCcY+VbZMOQ4flCpLrT53nHAZhm4S72jQuPf00iLURqitvESkGBz/Gxc7sXxLcxMFwu1ZBpANV7DfrelhXLeiUcAgCY6RyQpRPXviCTtwkRHcNC4TwoZeUKXpvamu/aGavzm1KwKAMEt4W7kFU6hBBINzAHsC6FS8Ar8gm0EKkrLhMrecWV7i5s+wMx5cklisgWYlrU1lj9goRCfPrpz1YuNQhmelyCLESUbldS1o4wY8R06PqYjOF5WiPNwl3IKh1CCBBhDlv4ToljXJcKIWIrvhIrPp9yrd7+Hc365wCly+WJqKH8B6bMykDjHXslGOJgufOXTGGNyda2XpCUiZXsgvIRajgfcnn33Xv373+r+f4eKWHWmTPnpsw9Y3s+NXJjv3bs27KiKqlH4xFhDlu7g5h2BkyTZpG1I+heiXQDpaWlxsZ940cd+P9qPw9zqHQjmB7crfdSaH1z7R65QyPn8tw8nJ1704y96RzLUVTJLj+/zBk8xhhxqL9LU2ZvyxN1+5KyaawxVyauleeyEFaJm8RK9iXlxzhXb7uPQSVyWSKyG0zlgcbqByUU4lC0Ns4ha3fR0e6v/lcixaSgwOfoztwxjbU+TWuaAuIpBJwEYDKACQxkEZAFwIHQoaOXlTYcbo/3wP/dAyAEIAhgO4O2E2MHEW9lou0APmDGZhi0uX1F1XupXB7ziiomm4TTAZxM4CkAT2HgGCKMg6axIIwFMBIA9iEIFfr0nOvDoQ/EPQxQJ4E7GdgK8FYwvU+E16B4w/60no2bHr9vd0J2BgBrR5ghxvOPEM+y9vwGviJQbsGNo7UzfAERu0BwgekMgCdu7sYEdfAnBA4gjDBUSEGl4UAZDAK0A+B3wHibiN9hwtus6bXezP0vJWr5i7h9V3zTWKcOnQGlz2RgKrE6hsETCZjMoAkAZwIY3d8lA4UUOC10cH26u+/+xk4AH4BpK4APAL2NiV5nTev1mPGb1tf7gimdLCksyzKVI5tZnQLqq0v7YzwOwNiD/iAMQIUOvZ0wFNwe7z4GtgPYpsCdGrQNwCZSvEmRsTE4YtyWRIt3QYHP0UWdZ1lb1yAp5nJyX7zkODaM00E0JXrPZfoI0NsA9R6Tfk0RXkvk57IQh2zOxMUNPL/8i9D0OwBj5JJEVKG/4iC+5tWG2i0SDXHYjkNx+V3MdINllQrx3aaDb43W9qL+5tLnU3lrduQwm+dqqFyA8wjIBpAZo0uyB8BmENqJ0axBzyVaYmqgphQsyhiTPvI8zfpCBmYSMBPAMTYewrtEaNVM/4Q2n3d2mS0tLXUhuzo9wXRj0CvxObTjWG3q9RYeWqg7uHdULEdb5Xq8Wxg41arta02ujqbqjsP9vctTcTKBvwqgBMAsWPPSyQSwjoDVGngOyHyi3Z98I0rz88uceoLzLM24gBkXEJAPYJINuw6B8TopCoDRrEg/ndRtIZ9P5b2wfSYDF7Pis4gxk4FTbGzXhxl4ncCrifE84HihrfGe1+O5LkVI5SjgWQsPrStMaVOVoycqw+8oNDxoRx0xpWBRxui04edr8IUKmMmgmTbdswf6Lu8AaCXGc0x4YWxwQovMUyMksTIE2aW+NEd3568BXC+XImJ1ew11vQy9S/KkSFF5Lkj9LrKHGE9F3+iLxMD4Q6CxZnEkm8grqTzTNHUhgS9i0PkEjIvvU8Y7xFillHqodc64p+Hz6YTtaBWUjQ+nO74M0GVgnA9gWBwd3j4ALzJohTbokXUrqt6wYidz5tyUuW9ksBuAMw4vkQbwVhRbFS2BhpqrB1U+0pzbLGyP7J2WtS2rvr7ePPg/FhT4HF3O7V8G6TKAzotBe2gPGI8A/OC00Z2rPnt8CfVcKrhxNNJClzNTKYgLEC8LDjDeBnETgf5yWta2pxM5xgfqkb0jg5cT+AoQzQNjfJwd4lYAzwD0aIZBK9auqNoV9X5DQfkIRxp1IQFWNY1CO+Cadn/N/1mxbZdnyUTA+DKBLgX4fMTuxdIh62wQXgR4hTb5kY6mZW9K619IYuUoZnjKT1CgvxAwRy5DRHoJdH2bv7pOQpH8XEUVNxDxXSl0ynscFJrW0lD34WDrNndx5dlg/gKIvwi2dHlFq71HwJ+gzLq2lcvfSogj9vlU7urtC0H8LWaUxGlC4VAPxHZmPGoa+m/rVi5rj9Z23YXl50HRP1PhhtXAhR3+mucG3Ckv8l7ChCctvKbPtflrLvykY1bqS3N2b7uOQd8FMCVOOlCvKcIP2hpqHkuU61xaWmps6p7wBQJ9E4AHsHTy4Wj4AIz/hcIfAg016xPpnnJ5vLMV4TpmlCJxXooEQX1Jlt4w129cVbMjGhvN9XiLGPCnQFW6NuCvmdNXPUTvuex+cdsV0LQIwPxEeS4DCBDoUVPjb0caeShEnLQj7dffkHoQ8ulPpN5nra9qb1r2ooQiNeQWVzzEzNekyvky40ftjTW/GOjPzyipPNWh9WJmfB3ACUkWjiBANb0m3xatRmrU+Xwq94XtV2riWwk4I7EfjtQCoC4U1A9FOjGpu7j8P8F0R/LfsHg40FjzpcF1lCp8DP6Jhcf0m0Bjzc199efSS5npToBOi9MIvkDMFW2NtW3xeomzC8pHONPUVxj8HQDTE7KUAk+y1rfFe9upPyF7C4DLEv7ZRXhMQdW1NlStiiRZ4C7y3grCj5O+JtV8QaCp9vlobCw/v8wZGu+4hph+AOB0eS4LYWUZtXl/7mLv98C4DYAh4Y9Ihwm+dJ2/9l0JRepwe7xvAjg5RU73XUd66PSjrU7Q933wsCsZdC2AAsTJ3FEW2gnm7wcaa++Nq7JZVO4BUQ2AqUkW790AHgKhaqhvut3F3ofR97Y5mfWQMs8Y7Kgqt8e7An1vT61q5XzJDDueNYzwbwEsSIA47idgaZu/5o/xdFDZpb40o3v79QT+IZLlpRihwTD5plebal+Lp8PK8VScrsC1AC5Kwk7HG2CqS3fQ8qF8KuT2eFcBuDipO2ZE/9vWUP2VaGzLVVw+n5hq0Df/TjLZBeaHlMOoal1RtUF6ByKO6jh7TClYlJHlHF4Hwtcl7BFfNn+GQaVWfL8q4pfLs2QiwdiaQrXTlwINNQ8f7q+nL1w8Mn3/sMVE/F0Ax6VgkfizIz1UFutlMfu/1b6TgK8kebw1mB5lxbe1N9S8OsjOwDtIvhFUn+kM4BdtDTU/GuyvuTzeTivnPCKwl0E/ho2TMUZJVcBfcwOi+SnAEOUVVxZqre8G4cwkLLohMP6nO7TXF8sJnAFgakll+giTf8Dg7wNIT/L6tAtE1b1hvnugIzDz88uc4XHOLsTLHD7W6FEOnN76VM3bkWxkxrwbJhlG+C4AX0765zLwCDH/PJ5H+okU6qHbsRP3xUuOg8P4B4BcCXnEF2zZaVnbKhN9EjYxlA5s+QICPZ4iBX1VoKGm6FCdirySyglsmt9j0LfRv9xfymK8nOFQhbFKsroKl55DSv0VqZXYYjA9xcQ/a/fXrD1qZ6C47NgwOz9I8pi815Ox/8zBLpuZW3T9aUzmZsuvV4KOYiPgv9v8NT+M1f7zC8rGm+nO3zNjYQrc15sY5lXt/uXrYrHzvKKKyZr03wA6B6llD4GXG8Hwr1qa67YfsS9RXDkLrNcmczAY7Gv310a0qmKup3wuQ/0V4GNT6rkMPEmKf9q2svZl6TGIWFFW78DlWTKDHcZqSFIlGtXGr9r8NeWSVElZs1PkPPcb4CU4zJtaE0hnUCVSPanS1/M6u8fUj2aX+myfONLlqbiWlGpG6o0WIhBfSsAal8f7Z1dJ5fFH+uGwdiZ9R4kIFYNNqvT9YniWPfmJhO0p/CC3uPw/YrFvl6fi4nCasy1FkioAMJ1grHF5yq+ye8e5nvK5mvBKCiZVAGAEg24Opzk35xZ7b8zPLzvChKrm+Ukei027gvt+FVlZqihj0DMpllQ5UM9fxprWuj3lf3JfvCQVRzGLOGBpYsVV5J1HMJ4n4EQJdaQtLP5xoLHm+xKIFO5DU2o0uojJ92pD7ZbD/X37iqr3APxRSsQnLnJ2d95l5w7dxeUVBP4dkn+4+lHyCfgKmXpTrqfCN6VgUcZhfi65E6KE+qGuZsOszpHb92gxoqrcouvtnGyX3B7vzwjciNRLmo4g0MOuIq9to4T6RhdQQwp2hD9rDDPuDI93rnN7vIeerJdxXjLf6iBeGsnnaC6P93oG34v4X6HL2icS6GtwGJuP8lwWwhKWJVZyiyu+QoQVSJyl4eKVJrA30Fj7MwlFCvP5FBhnp8ATsd34OHjnUW8KrX8FICwF40CLDEvcheW2NDpdRd7rwHSPRP0Twxj8k6y0YdWHvDbJnRDtRsi8aeg3PM+S4nNU6VCmLStKFRT4HG5P+W8B/D/YMKI5Xh9DRLjNjuSKu7hyFoNWABghxfyTh9k0APdmF9809hAd5rlJfOa/DTTUPjPkslRU/m0C7pIC9Nnn8nCJibCVJQ9Od3HFEmb+ExJnjfR4fsrc3OavrZU4pDbX6o/OBDAqyU9Ta62/3dJSFzraD3Y0LXuTQA9JyTioM6DUXfD5LO0MuYvKPUS4F8m/8tJg6+nXtZO/+9n/WlpaahA4P2nPmnFz4Onl7w/ld6eWVKYDcEvZGVCcF7qKvPOs3Mf0hYtHdqV1PoW+1dWkQiXcllvsvdGyZ3pJ5fHM+qkUeK4P1n5SfMX6hjs/Pvg/5ngqpgOYmKTn/JF26iGPSM8t8l4Colp5Ln+m3gRec+jQLRIJYaeoN8Ldxd5bwFyL1H3bEc1q4QcBf+2dEgdBMJL+zS4RftnetOzFgf68VuYvAMh8Q580IjjftWabx7KOgGfJRJC6X+r2z9kNoi90PLms67N/8dru8dlI0rfRDG5qb6z5/VB/f5ipc5Han5INrn5U+LZV285fUDYsoydzJYAiifRBZZzxG3dRefTrVJ9Pkan/aOVqWIkaciK67lCTjxJz0n4GRKClh3p+DMSMeTdMYsLv5bn8OR8rNi5vaarrllAIO0X1RnQXeW8F45eQrGk0Opm/CPhrfymREH2dmOSeX4VALaFREwY1E377ymWbwPiblI6DG5/4qnVVkuNPMg/A55ga9KVAQ836Q/2lYdKcJD3vLqd2XovIlgKeLcVnUA+By/NKKidEe7OlpaVGuNf5IIC5EuRDtJGJHoz2RJiu1dv+C8DFEt7Pua2tofqhwzQSkjKxQoTftfmrHx3qrxtG+CEAx0jR+ZQQg0rbGu95XUIh7H9oROtB4am4GYQfS0ij0X7CH9saan4kkRD/blNwMidW9mplfnV9vS84hBrspwC0lJBPSsoXsgvKoz5CwuUpvxJgj8T3c5X19zr81SuOcD2SM3lAWNLSdPc7EdZpZ0sBGpQ01uYV0b6Sm3dN/B2AL0h4D2sCDONBROmFYe78JVMI9AMJ6+c8Epg74SeHry+QdCsCEfDG/vT93xn6c9n7JUiC7lB9qBva/dVPSyRELEQlseIu8n6HwL+WcEalpn1+n6G+LYEQB0xfuHgkgDOT9iHIuLF95bJNQ/ndQEPNegaekFLyieFp6UZUk3AFBT4HQD+V0H6u9fanQGPN/xzlp5IxsXJfoKHm4Sg87GRFoEHSTOdGc3vuYu/3wFgkkT1qu6zAVVT+5ahUG9r4OeQTuM9qY2R+HT7fIV+SZF9SfgyAU5LsnMNa668NaZl6APn5ZU4CZFGLz9+rNe3+mmUSCBErESdWcj3l5SD8RkIZjfoAbzh6Q1/YsqKqV6IhDsgMDssHYCTp6T3S3ljzuwhvnJ8isk8Skqu/zzovmtvrcm67loAzJLIHxRhYs9eh/uNIPzO7pHIUCKcn2am/2ZOx/8ZIN9K/4sepUpIGW9Vx1D7XcRdXzgJLx2zAsSe63eW5eXgk25gxf6kLwDUSzU/Z6tCOy9v9d+w93A84TLogCR/UPx3MnHKfZY51lgGYKsXn4OcyN43pnXCjRELEUkSJFVdRxUKGLLsZJT1gvqqluW67hEIcTGtO1nka3uo18R+RbqS9oeZVEPxSUj7pAeRFd3NULkH9lA8obJYeLQEe1JiF5JpQsEdDXz3UN6wHM9A7CzIX21DuxqmzSyojXkUmu/imscy6HrJy42AcD+y/PqJyr5UXMsnoZ6pJXH3UzwoZ5ybZeT89bXTnLyJqFxK8Unw+5U1nMHxNc7MvLKEQsTTkCj7H472AiP+C5H2TbitmVLY11rZJJMQhJOPnBD1MuHLjqpodUdmayT+XYnKgLuGojQTIm++dw4BLovqJ/aT4ioEsMaxZJ9WnLgyq6PAva4nSxmTi2qGhUMiMeCJVBwfrCDhRwjnI4APe/PyyISWj+ke7fFmi+Kk6pbzDX/Pc0QPPyTS/yrvKUF+ur68f8oqGruLK82UU6afsAmGhvJgW8WBIiZXcoutPU8CjADIkhNF4uOChiD+HEMncmEu6SR6JeWl7Q82r0dpeoKn2eQY9K6UFAHhM1LbEWCzxPLgfgEWHWgr0MJIpeXBvu7/699HamJIVgYYsTDQ5kt93F1YUA7hSIjkkx5nj00qHVOZ5XymAURLCTxoBtw+kTpldUjkKTMmS3A8R0zWtK6o6I2sTankuH1QlQtPVh1uZTwi7DTqxMn3h4pEM81EAYyR8UfFupqGWShjEoeRd4j0JwOQkO62qtsba+6NfmfFtUmIAEEWrbiZmLJCA9mP8bJCTtiZLQvSlvYa6IapdKiJZEWio9RzxkJdWnVKwKIMU10gUI6kGeEjtNU10hUTvQGKAV0wb1fnDgfxsT4jnIFlGxhNd39ZY/UJE2/D5FIDLpBQduB/xn4Gm6gaJhIgXjsFWC5k9mfcxJe8KJbZXCkwVa1dU7ZJIiEM2xsykeLOrQRxgpiZS/GJ45MR/WLGTNn9No9tT/mKEq43sBtABoAPEr5PGDk3YoYAdWvEOZ4+5IzjcMAGAQuxkTSPY6SBl6vEETCDm8Ro0mfrqSBeA02H3PAaMkdHYjMuzJBvAJJvLyn4Aa0B4FsBGRXg3HNZbHU7H7rAKhwEg1KOUk3SWw+nIYFMfB+bjWNGJYD6TQS4CThvCs+0oMaW/BxqrfQP98ZzCpafEIHZWWO/QjtIt/rujNqH6jJLKU2Dq8VK7D7UoqrSh/u6otGG3sEwaHGn9Oje/uOzYloa6DwfTGabVnXZPwGoCCDDoRSL9JjO9b5DaDh0OhQl72Ex7jzKCQfRiDDngVDCOZeYTWOMEEKYRsQtM2QDSontYtG5/xv4vDfhTGMXnJUGp6QHw20BD9fJIN5T7wjYXE9ldf4YAvArgJYD/BaL3FdTHTBw2tbnbUKSIjSwTpkNBjWXoYwk4gZlOBJCDvhWdVPRvRfptu79a5vkUiZtYcXm832fgKglblB4vRP8b8Fc/LpEQRxD/iRXC/cT4kBlpIKQB6GZQN1i/T2xsHLbXsXHNmjv323Qwt2Hgyy+HQXiRmZsUUZtmam/3V7+Fwa0wtK3/n28cus68eTih5zIGX0PAQtgzYWcoOpfVcZGNiy3tYcZ/mypt+fqGOz8ewM8fmJtnw2f/YkrBooxR6SPPBpsXA+oiAs+JsHMQCIf0NwdTLojUyQQa0nwkDJ6JGEzsysAOAm8AaAOAl0xw4zp/7btRb3Roni1LeEVwnXhoHZS8oorJGnxLHJyCZmATMV6BwnoCvcumfkcr3k/gXjKNoDb0SIJyADxRQR3LpE9lphlEmAVGrJNyyoTjMgC/HXDbeU1nLmwa5c19deNvnMHQbwc450RX/z83ffYv8vPLnHpsmpuJLwL4IgZdACCSlZE6GVg4qAmwCWOIB1+XMvN4EE6KQfkwAfyLgfWKsJ41PztsT/o/o9UGYsJFNp7LB0T4tWGG/tDSVNc91I1kF5SPSMugHDbp/L6yhPMjLEdg0LPOHUGZwFfEYZdooA/l+d45WuM5RPtNYOrabZqO09atunurhEIczox5N0wiCg75AWSQcSwTP29pK1nrUzualr0ZL3Wau7i8BXzYlXHeB3glAytVMK2prfmunXYdWG5RxblM/HsA0y2u1bcHGmomRLoZd7H3YTBKbQjNWxpU0uGv3mhJ3AtuHK3TgwuJ6SoAHgDpg/j1bcqBWa1P1bxtRxnJL7zhxLAKW7wv/oF28r2OoJEZZjMD6ejqOHtSN3w+bct9UFx+FzPdEON6YiMRngf4Jc3qDTL5PZ2hO9N6TZ22d3hwz9ieDM2Unh7EmDDRZAU+gRXlgPlsgGYNsgxF9/YmLmtrqP3tYH/P5fHeScCNMUsIgZ5VpP8cDjsfH3K7x+dTOau35imiq8H0DQDHxOh0/hHw1wz4M0lXUcUNRHyXDccVMMELrEiIAsCcOTdl7hsRnE+KSpn5MmBQoyODTKqwvaHqn/bUM97bmPFDC3ehHRQ6PugweihkjKZwOBjWqnt9c+0eK8/L7fH+HcAXbOgdPq+U+mKk88EcMtFS6ktzdG2/CEqXMugKAsYNchNvOoKh2TJZrYhHA0qS5BbcOFrr0J8lqRLNVgb/WpIq4mgiLSO5ngqrJ33rjKOkSt+dxfgFAfUH/be9AP6iFH7XurJmTawOrK2x+gVXSWUhmXotrJw3h9ETpe2cbkNYTNb6mo6mZRsti3tf8uwBAA/klVRO0FovBuPbAE4+WkcAmq9sfar2bbvKiEmm9SPUNJ7veHJZF/79php40r77QDPNitE6y90E/i0Zxh9aV1RtOMrPHni7/BGA1z7bHuK00BcBfAdAtv01HAUH+ysz5t0wiRAui1HV94gidWtrQ1Ug4i35fLoDaAHQMqVg0U9Gpw9fwoyfABht8znNRd+LyQENviLo020YhLbXIL4q0GBNUgUA+kddPALgkeyC8hEOJ75KROUDWTmOQeV2JVX69mf1aF/acNDnYF02ntfplpckwnYz7LgqsOruTis2v77eFwTQAKChoMC3pMvZuYCJywk0D0e/UWQFIBHXBjSkVKeFagbQCBUDr7U+ZBr2PxIHYX1RY2sniWR6Kd5OuX3uxL+DsQHAqyBammGoyQF/zbWxTKp8cmwrqt4D80+t7kBGpWllw1wMDH6mvWnZi3bFv3VFVWegoeZXgbkTpoLxRRC3HqkjEGiqfd7O8sFgqxMrIUdm+NVYlf/sUl8aAXk279YEUzUFnVPa/LXfHUBS5Yjamu/aGfDX3BeYO8HFQDkQpUTmAGmmQXfiHEboZgDDbI77u8woDPhrvhiVpMpnvNV8f09bQ81dDu1wA/yizec2dmZx+YDrRyZMtb4vTH97taF2i10BWN9cuyfQWHtvm7/GrVgXgLDqCEd3ZzRXFRtQOBj5lu6AbC9zfXP19M1XYnGzke+368Vvc7MvHGiseaTdX1sEE6cDqANwuOSxSaS/IisAiYROrLg93ssI+IqEKpq1lv5Fu/+OvRIIYX0jnGdZm1fRL8fdSft82sGhuQF/TX6goXp5vE0OHVbp9Rbv4oNIN+C+eMlkOzpiRFgZqzISaKx5JNBQm0+EK9A3YfHBjea7be4IHGjRWnu/AoGWJ+r2xarsp+3c7gKQYWP3ajsBJYHG6sqof/bn8+l2f80yAs/Dv0e42NBqG1xiJb+wLItBdq88uDJMabntjTWrrN5RS9Pd7zCGFQJ42tZ6XA981S9iOs2Gp70/Vvd1a+OyZwMNNYXQfD6Dnv1sWZiWtfW7dh5PXknlGbB4FJPWWGt3nPNe6jwBNnyGyIzGWJSjwKqazQF/zbeVA9PQl2AJffr5Rd9va1j2JISIY0dMrMwuqRwFoFbCFFVd4V7cL2EQdnQrCGTpWxuGeikeTzySidas1j85627rrjrej3gThmOKHbFgHXkSKNJDaGuoeWxMcMJMgK4HsBNA4+jeiTfbfSClpaUGQDMtrRCYXoxpsK0fkXOwrUqpC9v8NZZ2Etr8tasBVNhWqUN/PJifN5Xjq4hwoshB+j/HjtDCAU5CHRXt/jv2aqe+ig4zibgljWdFMwZ8XxNOsPp4NNSHiLFAU+3z7f7qAoC+DOBdBl5z6NCXB7wCUNSSHjbUM2TaX5eGtD3PZdIxfS63PlXzdsBf821lqNwDI6EY+GO7v/oOadaLeHfExEpPmG8DrH8gpBRGndWTWwkBAK75S6fB2pUIOC0YfFkiPbQmknUdr8iTFVrpkXYEgRSZ8XAxmpt94YC/ukoZahoFnVc3N/vCdh/D6zsn5NjQAV4b00ATzbJpT/s19KWRfvYz4A7l3An34zOjniwLYa9zUIlTJlxnX/MGT40JTvh6S0tdyO6i1fHksi7dN3eSPefKfOJAfq69d+QwWLDU7Oca8woacSLgr/4LI/MMCptFMXnJobXV9czu6Vk7XrP9tEjZ8lw2DGdclKXWFVUbAg01hRp0yT5DfRtCJIDDVvbuYm82iJdIiKJbL5rENRIGYUsDnJWljQsC3pQJxIYaOmRZ1+KnKEy2qobbU0aRG08XpnVFVaedK0V9plNq+VtWQ+mUGLFCxDd0+Je12HZiPp8m4E827GnnYMpnXlHFWUdYIS3aF3eDGeQvxSIp+UkSo7Fm1ZHn+ohmJU4DSqw4whn2jBZijqu6tN1/x97A08vfj8nOlbV1KYPX2j0Kp7/U2VKWzLDpjqey1OGvXrFlRVWvNB1FIjhSFv03kFWAou1Zq5bBE+IQT39rJ64lekmCPHjZxTeNAWBYl6wwN0W+FT3cniKKb/V/ciosHs3BwI5XG2rfiNXp5Vy6dAyAadZ3ePFcW0Pt7+w+P621HSueDCppqontGq0SBKuvxcVoXA1bXl4xMKDECrFhT13KWDK1pDIdKW7OnJsywQP7TGvodUysPqlke5J0RJXw+RSEEIN2yBvHXVhRDEaxhCfqlfH/SRSEjQ9hSxMrzFo+AxpKpctBSxt9IZ0W8dLFpJFpUziO6TH1X1yem4dLybD2LSsBazDA5WEtKfdBOhs2rDlLrH8ci/M0jYzNNtTp/xroTxYU+BwMXGVPPwx3BJqqWuPhJuoO7V0BwI4Jmgc06pBCbNdqTNNHaP5Dfn6ZM5Ur0f0jQjMBWB2DmHxSSWzPc5mAOe7VnXdJckWIIbR1DtPy/7GEJvrtrhA5/yphEHboa1yRpcM5iZWMWBlS3Cwdmr8zGsskEpGdS8jOJ+x/2uVZMiNVy8T0hYtHAjg9GTsDB7HhMyB+sbVx2bOxOLkJvVnWrz5GasDzuHyctv0CAsbZcOof7U/f/8t4uZfear6/h4GADbsaUCfXaWjbVoxi5mvC450rZpRUnooUZcfnhgwzJm0fbe9zudL9wvb6vKKKydJqE2LgPvepj8tTcTHAcyU0Ua+JX13vt2+WfJHa9Ng0N8BWvt0Ia8poS/Q4ZRffNNZhhk8i0sdqxeNJ03gAEwFMhMIIMGUBOpOghgE8mhkOED776YoBYNRgKgMLrY9SD67b5pf+swhGq9vjvU8Z6m67Jh2NFxm9GWfBws/DAECRiun8KnZMXMvAL5K5nJAe+AS5BL7CnoPi2zY9ft/uOItUK8BzrL5tS0tLjaPNtcHK6IZp41ygjHmGqde7i7012tQ1HU3L3kypxg/xLIsHxm1p9y/fFqOWXbcNg/4OjuUXNeBxF3n/R4HubW2s/gBCiCM6xBwq+ge23rip4zkJgbCLSXy2pXcxcUd7wx17EyEWBQU+x8dpH52uoNxMcIHpVBCfAqaTwcHRUH0pBGL6dNXHB/6HwAeSDPFeNRLaonN5zS4m20cBOwCUaVOXuT3l/wSph5TG4ynRmGPLR3NoZfbG+tM9qxMrXc4d4ZWxOrkdw7eOVCFr7xmTBpxYIQYut6G62uZIC98Xf31r3Q6y/uw3dZ+UAeCIz8HgiHHdju5ODRtWBjpIOhjfUUrd6PZUNAH8F0cw9HhqTDZPFtelHLsENVNXDNogI0D4sQb/0OXxPgnmvzg5/FRMVnsSIgF8KrGS46k4ncDzJCxW1If8rERB2NewxNmWPoA5fieuzSupnMBhLgDxRQDN6kJnNsHI+CRP0nf8yVnPMEVlnoOQTttoGOFYluDzwXy+JtS6Pd6XidAERrNG5up2f2Ik9AZ5vhYnHWhDLBvCLk/FyQBPtPYU8Vgslvk9wAjSSRZXK/tPz9r6+kAyK65ibx7xwCZXjfBBc3/LE3X74u52MtBpx+LDY4MjjrpSyfp6X9Dt8b4JYGoMIqEA9gDwhNOcprvYu4aYVhGbz3SF9q99q/n+HiQRl2fJRABTLK5nYvZJJZnmRjiMWO3eQcDlILo8TM6gy1P+HEBPGwrNWT0TXo7lamBCxBPHp+sL/jZkuIo1TzelOyQKwr4nMCxeYYTiaeJayvWUz2GiK4lRqE2dAzpQj3FqXXZNr0ZjO+tW3b3V7fF+BOCYmJdkYBYzZgH4IWF/0F3sfQmMZgY9M3y3c82aNXfuT4JLZ+3S6MQvxvgiWv4ZEBh/i/FT/jQr6xsG1g90iVcCiuw4Y5P4z3FaD+62oebvGURnMoDYJFYOZoBxHoPPY1I/yUobvt/t8b4I5mfAeCY8ZuJL6+t9wQRvaVs+v4rSsfukMvD08vfdxd7tYIyPcaDTCFQIoFBroCutc4/b430ehGZmNLfPnfAyfD4NIVLQJ4mVOXNuytyH4DckJJboPW3kjnfbJA7CBtMXLh6JHmsnwmSNmI9YySuudGuYX4GmLzFwEjjV0iifEwyPGbc+atcYWEvA5XF2jmlgnAfgPAL/v30jgz1uj/efBDQSKX9rQ1U7EqwYuEoqj4epj7NyH1rHeOJa4lkWX5VwOMjNsTxFDT7NyrdSBB7whKzMuMDyN2SMDetWLmuPx3tKA7vI8tPH3oFfO6xl4Mo4C1MmgItAdBEIcHR37nV5vM8qQqNms6ndv3xdoj0AyfKRf+gJjh4f2zKvaS2IL42z0I8AMB+M+QTAtbpzBxV5V5HiJpBubFu5/C1pmYtU8UliZf/I4NUAxkpILLFloG+ahIi4tRQcls9gK8eL7h0XHv9arNpOecWV8zTrGzTrywCSMXb/bukHovrGkfjvYLo8zs86A0ARA0XM+na3x7uVQA0g/nvmrjR/Qoxm0davYgEyYztxLfPZVt6oBAqsb67ZE9tOncXJbB7YikClpaXG5m6ca/kJKzwQr7eUoaC09e/LB5xYUcSPmEy3x3lNNJyAS5hxCcGA21PxIcArmOmx4XucjQkyMnC2xTf5KzEf1UP8dwCXxvNFIGAcCFcz09VgA25P+esArQDxo9NGdT4n/SGRzBz/bpPjyxIOy2qZjyQIwjYmZlmZbGDQKzH4npZyPeVfYaYfatZnykU+RIAIr0S139Sb9jinhXoBpCdQGCYx+BtgfGPfyODeXI93hWb+e29mzz/ib+WSA48HbfUqFrunZ+14LVavWQsKfI4udOZbmnQAvxAHF/JsS/MYxsCWEN60a6KbgCyrT1cZ+L94rQSY9Vir54olYMATwb7aULvFXVzeCqa8xKlK+VgAi4l48b6Rwb1uj3clmB51cPCJOJ24lACcZW1OI7afVAJAr4nH0g0sB+BMoNbJaQBOA9P1m7on7nAXe58g4NGdvXsbkm2eHyEU0PcZEIALJByWPeV3SxCEfc8wPtviAm3rZ0B5xZVud7H3OQY9CIIkVQ4vqp97tDXftRPA/Qkcj+EMXEVED2X0ZG5zF3kfyCuudMff48HaeQEYvDaWbwi703dkAxhmcaW3OpbXML+wLAvANAt3Ye5P29cywM7fhTZ0YTe3PlXzdvy2uZTlc1AwBvfCjIG7ErkuBXAliP8UVs6P3MXeh/OKKwvj6QBzPBXTAYyxch8aMf6kEsDGVTU7AH4gUQsSAePAWMSMR7PShn/o9njvdRd7s6X5JpKFAoD9I4IXWd/wSWl7JATCLtriiSIV2zNx7ZSCRRluj/duzbqlf14NcaSGe5RHrACAcuC/AYSSIDwZIHxds25zF3v/6SoqvyY/vyzmb/xKS0sNAs+0tiFLMX3Lymz9p07KEds3ydpIPxvWDpHYMOARV0zn2NA5ei7Oe29jLN8FYdtgfn5s78SHAH49KepSRqlm3eguLn8111NR1v9yNraXnLT1E2QbxovxcAG05l8ASIZVeEYDKAOjw13sbXJ5yq8qLS01IEQCUwDAoBIJhYUNS5B8Tyhs4fIsmUiwdplNclo/YsVVUnl8VtrwZgDXA5AH7dHtDsyZEPV5b1qfqnmbwbcnVaQY5xHRQ+GxztdzPRVlsWzIvbZ7fDaAkRbvJtYT11o8gg7bYj16wmQdP6MECdaPyuLYThR89MPDOOt3QoMasdLc7AsT041IpjnWmfIYfO++kcEt7uLyiuxSX1rsjsXyFYE+aF9R9V48hL2jadmbYPwmiZ7KBMY8AtVv6p7Y4S72Xg2ZPU8kKNXf8CmSUFhZY2CEREHYdEtb3biwvBPj8lRcTFq3wuqJ6JLLK1Ytb+jcEb6VQC1JFzHCSQy+d/OuCS/nFVWcFZO71VRWv2VlZaiYJlaYLb+P18a+KLG1y9vzwEYd5S8oGwYblvXVhvFsnN/bx1tfsPVbg/2Vtsaap4jw+yR8/kwGU5Wju3N9rscbo/6EtfcgAavjKeB7HeonADqSrSARcAYYf3EXe59zeZbMkKadiEfZxTeNdXsq/tvt8T7t9ngfd3m8Sw+8pFMuz83DAZwmYbK0qhgpMRC2lDRSVr8dtrQTk+vxFhH4KTDGy9UcTJvSuuWvW1rqQor0lwF0JmfsKE8Tr3EXe38Mn0/ZuWulLE86vNG6oipm162/fXGGxbt5KfaFyOJlXge4qlM4mD4D1o/wezNe3twf9pZmWN4hY9CWofyekRa6AXGQDLTIVAYaXJ6KmikFizLs2umUgkUZBLis3IcGxdU127KiqhcmrgINfBLlBGvTnEcwXs0tqvgeZPSKiCMuT8XJDg5uAPj7AC4CsICA2s3dExvz88ucCtg/A1ZPny69HukkCrvKmrUNfGbL5lfJ9ZTPZeARJNYqNPFx1ZW189682lC7BaQuQ/LOF+UA41b36s6V2cU3jbWx8WjxiJXYzj1i8N6zcNDqg5bkHGLcSZ3hKT8BwGQLd7F7etaOAX3mR6zPsPyECXE9eq1v3iLrJzlXhvnGUH6v5Ym6fcpQC0DYnKR1KRG4PCt92Or8whtOtGOHYzKG5wGw9DMk0vrFeAt0YFXNZkVYiEEs/Z1gnEz8K3dRxRPTFy6WF9QiXvwBwKRD/PeLzHFp31Ng5EiMLCcjgoQtDRpma5cbBCtL3g7nFpXnMmgl+lYfEINtfZiG5RMKBxqqXtKa5gJ4P4lDWWRw8Hn3xUuOs3pHLs/Nw9nqDiDFNunAZP2nTqZTvxLLc1TWn+MrA1/ViU624ZTXxfMNvPnjiafC+sUYek8buePdof5y64qqzt4w5iLOPi+J8s2fF1bmi3Z8zmHD54YhR2b41XgMc+vKmjWKqQAY3GTKCdayvTSzZ9gzeSWVE6S1J2Jphqf8BAIfdhVlBl+liCSxYoOR+cVlx0oYhJVmFpefSrB00j7uZY56J2ZqSWU6Ez0A6yfxTFYftTTd/Y4dO+poqu7QWl/AwCvJGkwCzoBDPZNfUGbpSEM7RnMorWK7IhDB6k8TN3c8uawrpuVFWzs5LwGDuYbWJ1aI4zqxwg6yo027PtIlzDeuqtkRDnIxgP9L3kcTH0swGvMu8Z5kcaG0do4jINDyRN2+eI1ya2P1KwbxuSBuTdqSBM7XpvZnF5TLnJUiZhToXBzp0zTC8cqWB7GAyU6ZhElYSsPqN6e8ZeOqmh3R3upwU98OSIJ3yE1KsneOiY6mZW+aWRPOBfHtSI4lHw8V1dPMNOffrFzlgmFY/Za1Jzh6fHuMKyWLP02Mg/lVyOJzHMSoI4a2vD3H4PVxfeeypZ9lHbgmUbmv1jfX7gn4a64h5m8B6E7SR9QxOgxLP+Wwekl3Ynox3oP8akPtlr3KmNO/WlCyrkSa60ijh+yeC02Ig8w8ygNynAIwVuJkPQYukCgIS/swbPWyphT1Tkxe0dILAVTK1YukUYmX7d7n+npfMNBQe4updD4BzyVrne3Yte1nlm2f2OoO+Svr633BWMXP5VkyEQRr31Qrjm1ipa+Bn2/pZdSDmT+JrP6ErWf6yO1b4vvO1ZYvN82a2qK5vbbG2vtN0zEdjD8gmZZj/rec9J5hliwPfPo87zhY/4I4ISYb3rKiqjfQWHMzMZ8FwvNJ2uRZ4Hphu7QZRUzQ0Z/3pGDtpwPi34/iCyUGwuIb3uolP6PegdekfoHYzvgeZuA1EOrB+A0DPyTQt5noKlJ0kYY+S0OfZRCfprU+VWt9KinzZO3UYwf6h5husbYfQS/HKnjrVi5rb/PXXKhIFcV6olSLsh/fcRV7Z1q0dYvfssb6eli+9DsoxnPIuFZ/dCaAUZYVP+Cd1sbqDwbxK1bPQfBhpJ/AWP8cpAKr92HAbIt6Xbrq7q2BxprFWpMbhHoAOrnaJ3xd/4uUqMpw6HOsbkMYSifUs62tsbYt0FBzPpG+DHGxalq0633+ufWflwnxaXPm3JQJ4Jyj/ZwDwBgJly1VwezZJZWj1q6o2iWxENFWUOBzdKEzz9LGhRHdt8OuIu88AHNtDlU3gBUErCRSbcFR416z+q2+21M+zcJ2H4cN58uxLn+tDVVNAJpyPeVzmek6EK5GckxE7CDgdgCF0dxofnHZsWHG8VYeuI7xW1YidTbY0pfvvXvIiOmnTgTD0mQ28cDnV+lf3tbqeaq64vlmneEpP4GBUy3eTUhlmJbVuR1N1R0Arp5ZXD7VZHUtgG8CnAxz9JEm9auBdEwG9QDUapaVaRUGdrzaUPtGIga8rWHZkwCedBeWnweDrgWjNEmeyyN0GD8GcK20/oVd9o0MzsMAJkZXkMSKXdL2a/MKCYOwpLXr2JEDINPKxmRGd1pblHte/2VjD2gziBY70kOTA/6aa9r8NX9sbagK2PGpBEHlWrj5N9Y33Plx3DTk/LWrA401izMMNZlA30Zf5z6xh7Yz5uUVVUR1tS2T0ywfzQHDiPFbVrZ6tZy2LSuqemN7ilZ/fjnw5NiozJHjbTjjnfF8qyrCRTbs5mU7JjJ9taF2S8Bf/YMxwfEnMtPlAJ4AEErwpsrsqI9aURaP/APWJPozLNBU+3ygoeZbGYaaDOYlSI5RLF/LK6qYDCHsc9lAfsiBJBtuGNcPfcaXATwgkRDRf/qbs6wcDUug9jVr7twfre3NLCw/w7Tn87gwCP/PsT30Py0tdbY3SrNLfWnc3WnZxNUcpw2k/pF5dQDq3BcvOY4cjksZfBmAAWX8441W7AXwrSheN6sTKx+0r6h6L5Y1EjPOsvgbv9jPe0DWrkZCoAGfowGMsr4xx3E94pY0FVj+YSnjn3aeU3OzLwzgcQCPzy6pHNUb5mIQLmNwCaz/9Cv6dSmpJQCelXomZs/lewHc6yqpPJ7C5qWAWgDii2HtizkrpGnixQB+Lh0AYUdbHt2dVwywr4+9EjJ7MKhwxrwbJkkkhAUtcIvfnEb3M6Aw0RdsiEoPAZcEGmp+FYukCgA4u7edBSDdustCcf/mKfD08vfb/NV1AX/NwmG708YT41IC34G+SXcTYvUCZiwoKPBFcWlktrhDjtWxjFdu0fVTLV76HYTYTlzb/721lauZhYyM4ICXT9UhC+uZf0f943i9R/Pzy5xQWGD9ozZ2k3WvXVG1q62xur7NX/3NaVnbjlUKcwH8F4ObAMTtcsCfURKt1dbsqGcUqeSbOwxA+4qq9wKNtfcGGqsvc6SHxhPpy/rnmXslUZ7LBLoCQtjA6N62EMCA+u8O9CVWZAJbm/pZDsNcCsAnoRBRfsRYO3EtRXmCVIINiRVa1OavboztdVEXWTmKWJF+OZFKaf+op6f6/2D6wsUjM/dnnq8JBQAuIiAPgBF/DTiM63ZuPRfReNPq8yms7jzLyuPVgxjpYE3AwrMsn5OaHTFNrOwfEZoJwGnhLjoG88kJI5xOsHYVUqL4HeFsjndeAobVn0OZCDlXx8P59k8ivKb/z8+zS31pzp3bzwahgIkvAmMu4nMUQpaxs/N8AKsirgKgrR75p5XZm1DP2KHor2ee7P+D2SWVo3p1+HwwFQDqIgbnxuNzmcEz84oqJg9ygm8hhtAGpLKB/qyDQLuSc3W3+MTg8jlzbvpVND+rEKktf0HZsHAvzrC45EatEzPDU34CWbxEKZj+Hmis/kvM7/e+Bq5VQpm701sTuexuevy+3Tgo0ZJdUD4iLd04R2tdSESFDM4DLO4tDrRHRcbZiEJixb2m8wxYuJIMAJCO7SoWbHGiF8DHbY33bIntva0tTR4xaFDXUDmMDNbWtuWYeWTcViaMr9mwl7VtzXftjMfT758v7IX+P7cVFPgcO9K2uhWpQmYuJNB5ADLi4VgVKB9RSKzA8k8qaUNLU113qrUp+z8Z+iTREsfPZdLEMwFIYkVYpm/qAswb6M87wHgbhBkSOttM2Dei9xvo+85RiIgFe51nqb7RZ1bZPW3Uto2BKG3MIJoDtvh1NlPMv7udWlKZDlNbuepRR7IlaNc31+4B0NT/B3kllRNMbZYQ6DIwiq1OSBylUEXnOcmWz68ScmSGX41xL9fqESsvIcZvhIjU2WzlqkekBzXqyNSsre7pUEzvv8PLLyzLCgOXWn7NmR5LlLq0f26Wlv4/v+p7AeO8GH0TMF4G4LjY3TzIjtIFsfaTSuKk/Awo0ueyy7NkooJRAuAyBoph/WpkR3su/0OukrCKqehHGHgi0XSA+E0Jm+0tsh+7PDc/2O6/Q+a3EVFoo9Asi/sYr/QPO47WEc+w8ngJaG9rqor5SI4RzHPY2qHYST9EuXVFVSf6Jvx+YM6cmzL3j+z9ogYWEWgeLP/W5LPliqdHaVPWfrYHBOxYteSwndz8MmcY5La2LR0HkzazxaseEQ8qsWIo3s/a4nw1KC4/Gw8bjq+Drf/sxSQ8nqh1aX+d8A8A/4DPp/LW7LhYs14E4CrAjvl5Di5Helqk2+h/cWFpPaN18kxcG03t/uXbAPwRwB/zF5QNC/ekfRHE3wJwcQxawKfJFRFW6Vv2Hl8aROX2nmKmNyR0tpsM3n+DhEFEp/1t8ZKf0e7EsM6x9HCp761KzGm+2uJOzsupVM7XrLlzf5u/9s/t/toiUjwbIL/Nd9qYKN2wlnbIVYwTbnpsmhsWz+1ASsc0sXL6PO84Bk6xcBc728+Z9PrgOoHajtFrM6I7iXPk8vPLnGD6TxvSAa93+Ks3JkVl6vPp1oaqpoC/5msm+DQG/RZA2Ma6dHSkWxiu4YbFCSFt6Jcgjqjlibp9gcbqBwP+mnkMnNM/kbJ9OPKyJMThhJluxWC+CCC8qaD0JgldDDrDhFtcniUTJRIi8sJk7YpArKLdgSeXpeHQ3BHrS5Jd6kvTwNXW7iVs6du06QsXj+xf+STutK2sfTngry4GcaWNHYKsSDcwtaQyHUyWfnqrQS2xvDZ9c49YSzPHNHmUoTAb1q5vvxY+36AmitWG047EyrCu9M7p8VQXhMc6FgOYYnm5Bj2ajHXpOn/tu+3+6jIQe0DYbtNuI/6kjNg8y+Jj7EnvNF+Lt+uVX1A2Hj6fisey1O6vWdvury0iwk12PZeZdFx+nigSn7uw/DwCrhncoxsblepNexGI35nek9goRY67JAwiEnkllRMAnGxtJyaqb20IwElWHq9JFPPPG43ubQstXgby/elZOyxr9GWX+tLSezL+vm9k8NUcz9L8eC3/gYbaaij+EuyZbyPijtHwEM6EtSvJgGG2xfKaMJHFS7/jzf6h6LFDFk/OO4RPEHi/udWmk58VL/d/bsGNo0H0Mzv2pZgfGmpdmtGT+ejekcGWOK9Ln2HS5wHYmQh1KVv8uSED61pa6kLxdI3yC8rGh9OdL7hWb3867xLvSfFaltoaau4C4au21EagTAgRZaWlpQYUVWOQL1CYsEa1Nd+1E4yNEsYYNECZr3F7vJdJJMSQy5AOW93I/Widv/bdaG3M5bl5GCxets9g3hXr60Kgb1q8h4ejO+/Npzfu2Nn5OwIVAjhdQa1xebw/KC0tNeLxHgisrP07gEdtuKqRz1uidJ7VR5kWNN+O6QXRsLpOivnwfA1rP78kDD6x0j/BZJcNJ39lvNz7Oi18O4AJlj9ngVfaGmvbhlSXdnfeB+BiAs5QUGtcRd4fxmtd2r5y2SYQ2zHxezTmgMq1+B58O56uzZw5N2WG0pyPgzGNwBfqMALuooqvIU4FGmoeBvBEgpQlIT7l9V0TKwEMOnlrgNcoACCF1RLGmFmWX1iWJWEQQ2vxGdZ+BoToTt7mpF2WD9tUjN5YXpKcwoocAJdY2uhj3W7VtnM93ttA+PqnLhvwi807J67JnV9+dnzeCGTD0tp6TxTupxyLD9JsKZj8cayuwvSFi0eCcLrFlV7MEysEWPkZAhuh0FDP8R3rT56LZ5RUnhrra+Au8n6BwP9hy/Um+v0Qj/G/gU+9uXcS4bbNOyeucRdXxs3In08VPmXYUJcisrq071MYa1czZe6Ml2tSWlpq7BvZ+xABcw76z1kg/pPb430ip3DpKfFYlggc/2VJiM+24T0VpzPjtiH86rZXG2q3KADQHJX15MXQHB8mZ52EQQypq2fxm1MV5QlSw2Gn5cvymYYxMpbXRCm+DQNfmm1o112RJYkVl8e7lIEfHKaVdDZretHlqajLLygbH1cNOMZ7Nuwl4lXcCJhq8UEaU5rfSovVdUjvGXa21WWfENuVOvo7MVbOj/ZGS3PdkOa6YOAtG0LgMEx9ayyvQV5xpRuEP9q0u30OM/i/g/2l3CKvF4RbDleXgvWa3GLvb+OtLm2fPe4DWP9pZUR1qWvtjskAhllc36fHyzXZ1D3pHoCuOMxfX6aUWu8u8t4ab/P4ELMNz2WW1VVF1OTnlzkJ/Keh1C9EtAoHGkCZhnoKiO1b3pRGuNpdXLFEAiGG0MmweAK36L4d1oa2PulB5vGxuh65noorACywuiWxq3fvhqgfe7H3cgKqjvJjisD/EU5zbnJ5vD+YvnDxyHi4D5h4jOX7AHVHYSOWv1kc6cicHLv6yPKJa0OZu9NjupQ6Ec22eBcRJI7Yrth81VVUsTAW8Z9ZWH6GZv0kALvqnv9raaob1L3vLvJ+gQl3H60uZcZ14TTnZleR94fxUpfmvLw1C9YvZR9RXcqmPsWGG/24eLgebk/59wlcfpQfywDhx/tGBF9zFXmvy88vc8bDsTMZY2y4Tt0QIkrC45w/HnK/SuMRoD+xsnZF1S6GjFqJbQ3Ed+YWledKIMSAG0DWvzll06lfSbjAaLowFrvNL7zhRAbbMfos+Fbz/T3R3KCrcOk5zHgIA5//ZiwBv8jozXzTXey9JbugfERsO7t8rOX7YI50UmQCWTvRNAAoRZfH7jmmrP5UrGPNmjv3x7asWX2ONOTEimL7lmAn4gfziirOsjP2uUUV55oGPQfArk6vyUrfPqhj9JTPBeHPg6hLxxDhtvSezH/FQ4JFhZUNidnI6lKD2YZPX/i8WI8m6ptDhX4xiCfMSUT4bXicc5PLU3FtrBMsGtY/l6ER88UKRHLILV56KYAfDvHXe0IhvQI4eMgu92VaRMxkMNEjM+bdMElCIQbWgTKs7sRs7nhyWVQnQySwHSPjvmz3vEXZxTeNDavwY7BhIkUA6e6Ll0StYzGjpPJUUuoxDGVoNWM8GL90pNH7bo/3XnexNzsm/XlQkeX7ILweye/nXLp0NKKwGsYA7rL/55q/NDZL4hJbOmIl1p8B9ZcEa0fl0NATK5pMOxPhIzXx0y5PudUj9FBQ4HO4irw/ZOJmMOzr7DL+1r5y2aaB/vjM4vKp/csyZw6hbI8jwm0ZPZnvuT3ee12eJTNicgsDRdbvhCKqSzXRsTaEYljY6ayJ1UTDufMrCkD8Owxt9NDJBP5deFza2+4i7y9neMpPSNayxMSvQ4gIued5pzGrBzH0T5mb+ieQ//cGnByqR4TfPYqITVFG+JEpBYsyJBTi6E8Ua+dXAUd/9Q1tOO142zwxpNJ+DeuHMwMA8i7xnuTg4CpYvErBpxiOe1yem4dHupkZ826YZJjaj8hHPo0CUAZGh7vYu9Jd7L06Gsc3ENmXlB8Dhg2rq0XWgHOGaZxNpWMstHrB5am4dmpJpW3zBOQXlx0LwNrP8Di2E9cWFPgcAKxc2al3r0JgqL/ctww1rbMxJCMJ9Li72PsHV0mlFdeeXJ7yBR+ndbYT4TYADjufsEqpAY8WyL6k/BiTyY/Ik+ujAJQRjHaXp7zR5fF+2a4RgQUFPgczFlnf446sLlXgsTZlBq7e3D2x0V1YmWdnPZNXXOlmzY8BiLD+5mNBuMUAveEu8v4lx1NRkl3qs2UOrryiismweBL/vmaqksSKiMj0hYtHQuERAKOHXinxHw786ycPqZamum6Xp+Ihu2ZZF4erxzFndPqI+9A3kzxLRMQRGiezLM0dUPSHlYece7cZZqYN9xH/R26xlzJ3pV1v2acDPp9yr9n+TR3mOwCMtfnaf5Gwf15uccVTYKwH6W3QaicB/2ptrB7QW+u+xMf+fwBRnfeDwCgGUEzYvy/X432KCfUZSq1cu6Iq6stgZ5f60pzdnX9hO0aCKO6I5NdNGGMBbddzZBzAvxtm8q/cHu9qBrcAWG+QsZPJ7FZh7AkdZfRYiFX3xlU1OwZ8fpw22+pHFjmMmCZWuhw7cmDppJncumVFVUSj+hj6MQLZO9qBsYhM/eVcT8XDGvjj2OD455qbfeGhbs7lqTiZoK8A0RIwpsXiWjPweGtD1YCSXNkF5SOcYfUPBkfzUz/qX/K+0JFG+90e70oi+it6HU+1Nd+105Ly7ez8JYawxOigT8x0RFSXMtM4e16bAAAugtKvuj0V6wB+icAtIH6bNPaECXugj77EeVqX+W5LS11oIDvLL7zhxDCHn0Jfgi1anCBcrcBXq+7OLnex9zHSqM/ck/aMFe2j7FJfmu7ufDjyxNBR7dNZ4+VTIBFRWXV0d/4NhDMj2Mz7Y3omPv65xEpfu1HXMpEkVmKMma9xF1XsCDRWV0o0xKGUlpYam7tpprUNy+i/Hd70+H273R7vHgAjrL+PcN2+kcESl8d7m1OHHhrsBISHM33h4pEZPZmlWN15vR2N0CPIYuZr+k6WAGIw+AcAjppYKSjwOT5G58MWT348jIGrwLiqx9Rht8fbAtAzYP0MhdJeirRz4Cpceg51dy5ne67B+4P5JOCQeRkdztSkbC0gfQkWLCDQAgDQrAEmmApQR+mZZDAqANQM4o6zeuLa3a2zx23EihjecQbPtjJ3RBT5p05K4THW+FEMopPB4G8Q8I2utM7dLo/3nwoIMNMGTfwOQNvYNLooIxj8pMPZmzZSG3qMZn0C9yV4ZwKYReAzAIrlq6UeB/HNA+oI55c5w2lUz+B8C48nE8AXmPkLSAuZuZ6KNkA/A+LmEDLWrG+4M6Il1vMu8Z6kw3wXgCtsiO27bY33vB5hxRaD1W94BoAZDFoMJjD1D/k/epUeSkvLyAJw1MRKzqVLx4SD4RUArJznZgwYi5iwaN/IYK/LU/EioJ9h0DM6yK8e+JxhqHKLKs7l7s5lAHJseMD9c329Lyg9AjHUEmR0d9Yhwk/WGPzbg18kfCqx0tZY2+byeNd8Zq10EZPLzRXuIu/Hgcaan0gwxGe9tnt8tgFY+alFcJ+h2iza9tsA7JqL4zgCasPKeU+ux7uamZugaJPS9GY4zXzjaHPIuDw3DyfdO42UeSZDzQBxHnpQAOvfxAy1oTGgjtnO9M5lxNYP0z2IA8BsgGeD6PucFoLL432HmDqIuJ2JXmfoDwn0LvU6329rvmvn1JLK9EwVHsY9aWlkmGMM6LEMOh2EbDAuBTDdvrBSxJO7h0mxSqRKxhhcYpUJsyztCBNegs+nYxoTiz+/1DryxErbytpXcj3eNxg4NYaRGknAJQxcAuL+vicDRhgI/fsuCKvwJ8kTiq/Sf8erDbVbBlIqw2Od9wKYb+udCc4HKB9MNzsQhNvjfR+EdcxoB2OzUvpDguO9UFh9tG7V3VtLS0uNjfvGjwr1KDXMwWNMGGOZ9SlEdCaY5+kw5gBkzyWgyBfKYEDHWXk50rOjfSCjQqYULMowQupRjuzN+WClE/hCgC4kwKfSSOd6vP9ioB2MDlb8hgHjAyh8oEK977c01XV/7rnMGKcJpxOQDeJLmdm2EWbEsuiKGDqXx/srAr4ZaV+Jwvp3n23sfqbCop8R+CkJeVzUyD92F5fvCjTU/kaCIQ6mTDXL0pYoIxDpkPQj6LAxsfJJXcfABSC6oK9VxlAhBbfHCwDdIITAOPCpyjD0vSHMAvYDCmBQX3Muvj/OM8O9OOrnWy5P+U+YcV3sqzecCOITGbgUzKD+As1pob7rYmrAVH2dMRy4BojJNWBGY+S9ITKZEubrzt7QyImBQV1ORr6l5cWCOZ+GcBSzrCyAzLw2OsWVawD6H3lSDsm7jMxfDuQH3UVeHwjfioNjPg6M4wgoBgHMCgwNw9Bwe7zY3N03sCLdAEwmALqvNmX76yMCNUa+DdZxl4o77M2oj/5Jtc+nsl7o/CMDF8S6admfkD0VhC8QEzQ0YAJaOQ/9XKaDrgTbHtxGCDEE7iLvrQC+G4UyeF/g6eXvf+om+lyPx1+9AnEx877or7XucBeV/5cEQnyqYUGwduJaZWUnhgNxFs6s/pUmTun/c0xfUiXBygSw/mjDeF2eimsJ5JM7aFD29GTueyzSjWgKdyfOKXPrYIZYzywsPx2RTPw2sBIe08RK3wSifIaFu+jsaFoWlfkCHDp8H4A9cusOocVFemm7/46jLuTgKvJeB8KPJWSD0q0547HIqwJKmLqUiF48aidv9fY7QLhaisegdLQ11rZJGMRg5XoqfFGqu0Nk6F99vvt0qAYg6FYJfVzVzD/N9VRIZ0gczNplTRkvW7Vt1twsl8+CuAJrjvT3OZ6KEgIvl0gNNrD84KbH79sd6WaCpvFh4jxyBvdyRSuaZfkxxXjEijNDnQXAyqVXo/ZCq6WprhuEOrl5B62qrWHZk0dtmBd5LyHCMgnXYJ9R9OeBJK2OXhdQwtSlJo68fLq7yPsdgG+S0jHoQiD1mxg0d3HFTxkclSk2CPhd28rlb332vx8ysdLhr17BoGflEsTTA4l/kuspt20JWRG/5sy5KRMWf0qjtHXLmk4fs/1lBnbIlYx6b/iwDbgcz9J8BX4Y9i5XmiSVrxGVBtzGVTUfA9iXIA+cQSVW2eoRdMC7rY3VH8S4h2R18iiqI4W1Q/8chO1yAw9Yx7Ddad8/2g/lzi8/mwlSlw6lJiWKSl2qSb+bIOfc3TF3/ObDd/K8V4Pwaykag7aXetMelDCIAfP5VG5x+V1gjtYXIHs4bN52yP7T4dvo7MUAZrEWdrZ16eZcT8X9dq1DL+LT/hGhmQCcFu5i96vnTdxk1cbr6+tNAj8qVzLqNcQhk2EuT8XJCuofsGElpmRDwF8DTVWt0avC8WoinHfYMF4c1C9oy5MOMZ9fhcnaVY8oyomVjieXdRGzTH4/wGceK116tElGcwqXnsKanoC1E8cnawO2fqDLVx/9XqGWxDhlfvlwE27neLwXgPFHDGRdIfHZuP7aqiXHRfLJLvWl5a7Z/iAz3RC15zXTzz47t8oBh72hAw016wEZ6hiHFco3HLs6n8ovLMuSaKRoGSBtbSfGjtU3yJBhnNHVHZgz4bXD9Hq/gb55Y8Tg9Jpa3xLlu3d1/D9jsGPdiqoBz/UxtaQyHQSXpdUFUxxMXGtp8ohNp34l2hsdHZxYB/CLcisfUZCAKweynLoyjEUAJknIBl+XMtH3o7WxQEPNBgBdCXDeh02WGkAlgAwpGoP2PjDsDgmDGIjsgvIRju7tTzDzNVHc7KbQ6PF3HfY5ccTGTND5EwBb5dLEXct3XlilPZ9feMOJEozUQ6QsHXZvx1wGgYaql6TBH80q4fBvxtr9tbcy0VXy+dVg7zP8JlqTiR5kZbyft+ob+TTg9R2GmToXFi8/TjBjOqF+9iXlxwA4wbr7FxuPtvT7UDQ3+8ImcLXc+4cPPRP/R5u/ZkCriwQaqn9MTFcD+FhCNyi/bvdX/yu6jzzE/4owrA7blmqbO+FLIL4ZQK8Uj8HcsPzdaMzTI5Jf3iXek5xp9ALAnigXwuuPNLn/ERMrbc137STCt+XyxGX1MiNshFtcnoqLJRYp92SZZe3mrZu49lOVj6LvIN4XME6YJIA64sS17Q3Vf9OmIxtMT0q0BnQXvBgaNSHqk7gHGmqbAbwZ12c+gFUsPlX2YPnEtXpfZm9MP6FymjTb2vvXupUY1/lr31WEa6WuPWRp/8/2htoHBvMbbY3V9WEHZzPwlMRvABEG1jh2hH4a9UqB6P54P3etjcPf1z6fDjTU/gaEfABtUlIGVJp+395Y+78SB3E0uZ7yuTqMtYyoj6a9L9BY6z9i3+aoD5GGmscY+KNcprh8Yo0n8Eq3p6JSgpEasotvGst9SwJbxzRtGXbfurJmDRH9n1zVaNQFR59seN2qu7cGGqsXMNONAOSNz+F1IqyvGsxyw4OqteN8tRbN9PIgy57VE9euj8aqTBGyOHlElo7I6W/H3Si39r+fciBaGvDX3jmkAvlU7Uft/prLAP4OEmVC6tjYZjBd1dJSF/X5Gk/P2uoHsCWO2+dvr1t191FH/AcaatZ3B/fOAehOAKYUmcOHatjudOnriKNyF1d8i0FPI9qfbTLezjDUUVfwGtCkSU4duoGBd+RyxSUnwPe4PN77pxQsku81k5yB3lmwdGUo+vBwEzJZcj5mcCni/A1+hGxJYChDDbRjxu2N1Xcrpmlg/AnyFvuzdpLiS628B/YqdVccdwg4ZA5yRTCyeOl3C0dzDJS2eJQgTLL8HNv9NfcA+C+5xdELwlcCDdWRLj3PAX/tnQibUpceWhcpvsyq1bzq6+tNItwcx+c/4Hv6reb7ewL+6u8YmnNAaJCi87lnzGaEzUuPNrm0SG1TChZluD3e5WC+D9H/PFmTQYvWrqjaddT2+EC21tJU160UfROSTY3jegffHJ02fG2Op+J0iUYyX2erh93bO+9JS1NdN7S6CkB3El6uNxnmOQACVu+ndUVV52B+obWx+oNAY803QOocIPYd13jpCCimoraVtZZ+CrdlRVUvkb4RgI7DGLyxcVXNgOfj6J9E/TRrqyR6OcYxIQKdZeH2940Jj+uw40QC/pqfM/DDOC17dviASRUFGmoejlpMn17+/kF16UsQB+pSj9V1aVtDzWNEeDwuI6B40GXh1aba1wINNfMZvBDAW1KMAACblKaL7HzhJxKPy1Nx8ui0Ec8D1kxfQuD/aVtZ3TygW3/AFdjK6mYQfiSXL34x4FLgV3I93m9KNJL2Ip9tcRmyvRMTaKpqZa3nA9iVNNeJ8DzDnNPuX76OwY9YvLc1Q459Q9VL07K2nUugbwNI5YbLeg2a29pY/YodO2trWPYkgX4chxXMoBKrpnLOgsXLhRJRTBN/OZ6K6QBGWxjzluZmX9iu82n31/w3MRYgOZPZRypJ/rCD89sbqv5pyXOsry6dC+YlAD5AyqJ1rPQcu+rS/en7vwagI+6ioNWLQ79Ha59wpIeyGexLvfv04PYoNylDnW/VqCeRHFye8gUEbmFwvjXNeTxn7Aj/cKA/P6gGUaCh5nYw/V0uY1wbzsD97iLvA9MXLh4p4Ug6Vr45BWmKySSR7U3LXoRWBQD+leDXJ0SgWx3bQxe3+5dvAwAN3AcLZ/7nCN+S1tfXm23+6rpw1oRTmPibADam2D31Z0bm7A5/ta3n3eav/gUYv4mvhuxgR4dYPnHtvqzecetj2kGyeHl7isGIsbbGmqdAOJeA9hS4v/cCdH3AXz1//VO1H1m5o/r6ejPQWHtvOGvCyf116SakFH6QkXHOQJaujpZNj9+3WzmwAIwNcRSIsJERbI1kAy1P1O1r99fe2pOx/4T+edFSKbnAYPxqelbn/MGOxhWpI39B2TCXp6KGQI8BGGPRbt4Pm46rBzNP1GDfNHE4pL8ZZxWYOHRr7esZPZntufMrCiQYSVKJ9C2vfYylTzMVjtmohUBTVat26vyETd4StypSZ7f5q30HV8Lr/LXvMuj3Fu45Kh2z9fW+YHtD7QOBuROyGbwQjJeT/JbaQkxXB/w1X4vR8o0caKy5uX+0UDBOYrJ2kGXe6k8TbR3NcehHqbXJIx2jT/ECDTXrRwcn5CfxZNYMQr1yIDvgr66CjXOgHFSXnpladWnt12NRl7Y+VfO2g0Nz42h+knUtT9RFZVLjTY/ft7u9sfruvYbqf/HBrydzQWLgFaVwbqCx5vv19fUy/YQ4pJzCipxwr/NFApfDunknQ9D85YFMQv3pNsMQuOYvnQ6tXiBgnFzeuKcJ/D87g/v+663m+3skHIkrt6iilIkftnAX707L2nZyPDzMcjwVJYr4LjCmJcCl+QigXzh2BJcfLqs9feHikRk9mWsAZEd53717DZW1ZUWVFSNiKMfjPV8xFoFwFYBkGQG3lYDf7DHUPRbFbdBmFpdP1Yx7GFQSw8MYdFlyeyo+APhY65IafEebv/a7sbw27iLvSyDrPsFkQ53QvqLqvdg+W64/jaF/CeIrYPGnXTZZTeDvtvlrV8fJ8VBe0dILtFKLwLgymepSBt1hZo2/x6JV1AYdZ1dx+deJ6XZEe0WQQd3UvDzQWLvUik3n55c5zfHOS5jxTQCXAkhLkpTK6yD6WaCh5kHIRNDiMEpLS41N3RO/R8CtAJxWFkhiXtzWWHv/4NstQ30Qe8rnMqgJQKZc6oSwXkN/s8O/rEVCkZjcxeW/AtP3rKpEoPiqwMrauBktkp9f5gyNdVxFoJus7NgMPWDYoZhuNzKC1QN5O5VfeMOJYRWuR1SXbuUXA/7aOVafq8tz83Ci/V8E8E0wLkrMzhetY+CufQY9GC8Jlc934ss9IKoEcEkMYvxSwF8ze8D3Z195ftvSK8Z0dVtjdX2srsfUksr04abuRvRXGDhwhh8G/NWT4+cZ482Gxi0gXAPAkWA3uAbwlCJ1d2tDVVO8HmRy1KXoAHDXXkP9OR7r0vzCsqyw4biOmJYycKr9jxpaHGio/oPl51lQNj6clnYNAd+0an4J69tR9KwivrNtzoQn4POl6qTaYkB155IZBOP30W1DHzY78pNAQ81Ph/arEZ1k+QICPQLAkEueEMIAasNB/tH65to9Eo4ES6wUeZ8BocCCTb/LRDe1N1T/LW7PvbhyFrFZyqArAZwcy3YAAf9kwu+6e/fWD3YUWHapL83o7ryWAC+iMHqFiO9ua6i90c4A5BVVTNbE88EoBqEQwNg4vm3eBOhhaHo40FTVmij3ustTcbICX8XAfADnwZ63klUBf831g3j+X0UgS5MeyoEprU/VvB276+CdTYCVK6U9EvDXfDEeyx8Rfx2MrwOYGue3y5sE/EUR3/dqQ+0WJBD3xUuOY4djPjF7pC61gM+n3C9sKwTRZQBKbCvLhBmBhhpb54Zyz/NOYwPzARQTcCGA4XF8ZdoYeFgb6uF1K6rekNa9OJKCAp+jK73zP8G4FZa95PhUM//3AX/tdUO//SPu8JRXgKlKLn1CeZOAJW3+mkYJRYLw+ZR7dWcXgFFReOp/COLniamJiV8INNRsQAINvZwxf6nLYarzmTAHwFwbEi1BAC8A7GfFj0RrYj73xUuOY6fjHDBOBvg4Iow+UmOImPYz+B0wv0egd1nhbUda6F/R+pZ7KPqHZZ7V1zGg8wG4AUyMXemgDwH9HIOedWhufrWp9rVEv/WzC8pHpDk5X5PhYiCHwGcCOLb/T/RGjDJ9PdBY/eCAy2+R95cg3GLhqW8N+GuOiWXsXZ6Kawn8awsbcD8L+GvvjOPiR7lFFXM18VUEzAMwA9Z9zz7wqAGvEWEFoP4SaKhKiiWOP6lLCcVgnAcgF8CEGB7SBwCeA9GzhqmfTYa6NHf+kikMNZO0cjEjB8Snou+ToYmI3sihXYG5E8bEcvTF1JLK9GFhfR4p9oAxByAXgKwYhn4LgOeY+Fmn6Wxuabr7HWnUi4HI8SzNV1C/668PbXi40JNjQuOviGRut6g8IN3F3lvA+KUUgcRCoAfIoJtl1u341z8EbohLCn4ukbI+mWKTXVA+wuEwToPiaWA9DVATQTwejGNANB7gYWAYoE+SUpkAMg6xqRAI3cx4iwjriLGBNbWzyng+RpObJqS8oorJDM7VBDcR8phxPAHH9zdgozHyoouAdxl4h4B3NbARoHXOYLC9pblueyrFenZJ5ah9ofB4Jyg9pHiYIoehhph8VWbvyy1Ndd0Dr5NuHs7OvZaNpBmmHebaFVW75I6KHzPm3TBJqdDFiuh8Blz9iRarO2y7ALwG4CUGPwfo5w6suJYydSmQSwq5/XXpCf2JgGjcex8T8B4D7zDoHQI2MrA+1erS0tJS481dYyYGTSPTIBplEhtKU6YyjIzBbss0w3vam5a9GGenSDmFS08mw8gjwM3MLgU6noHJAE9EdL462MrAuwR+jwhvg9UGQK9LN4x1Uo+LwcovLMsKU9rPQbwUNn0Vw+Cm4bvTF65Zc+f+yPrWUZLr8X6XgdulOCScnczkGxsaXxPr1RfE4bk93sUABrqyzJtgvEBEz5ODG2I5lD6e5Vy6dIxmSnf0aIMdI3ZK8sR6Ls+SiawdkxwGTQIAk83RitUhn0MmYY+DKGSa4T2sjJ3aoXfu3bdvp0zCLUQcdf4v8Z4UDtOZivSpgJoI5uPANAlKTwZTVn87c3T/j4/u//+70fdp8n4APSDuZqYPibCNGB9qpq0E/ZqDnRvl7fahzZh3wyQic6LUpSISpaWlxpadkyaFyTzWQY4xWpuKoLIO3/nU3UoZmsnshunYSQ7eqbb17hzMcrRCHLmdWL6AQLXoeyFnD8Lz4V4uicY0GVEd0uku8t4Kwo+lWCSkNmiuDDTVPi+hiMPESlH5MhAtOcRfhQkUYPALxPS8pvCzqfI2TwghhBBCCJHY8koqz9Ra3wPGPHv3zP9kDCuJ1svVqH8r6/KU/4RAPikiCYnBeBCm+YPA08vfl3DEj1xPxSv9s77vARAA43mlVJNK610dyzk2hBBCCCGEEGKwsotvGuvQoVtBvAR2r0bHaO7J3L9w0+P37Y7WJi2ZhCy3yOtlwj1IzGXkBLAPjKoMh/qFfBsZH3I9FWVEtHbqqI/W1dfXmxIRIYQQQgghRKIpKPA5dqZtX8zgnyM2E3U/MWx32pcinVPlsyyb3T3XU/5VBv0BgFOKT6KiD5n5x9NHb/uDdOaFEEIIIYQQQgy1c5lb7F3IjNsAZMfiABj449jghOusmFvU0mXzcouXXsqsHgYwTMpRQusA8MOAv+YfEgohhBBCCCGEEAOVV1xZqFn/HMDs2B0F3RnwV/8nALZk61Yffm5ReS4TPY6+JeJEQuMXGepH7f7qpyUWQgghhBBCCCEOx+XxzibCbfZPTPspJgg/CjTU/MrKnZAdZ5JXVDGZCY/3T74pEhyDmwxWP2htrH5FoiGEEEIIIYQQ4gB3sTcbwE/AuAo25RwOYw+Aa+z48sK2k8wuKB/hTKc/M2OhFLWkwAA/Bm38NNBU1SrhEEIIIYQQQojU5Z7nnQYDtwK4GrFfyOZfICwINNSst2Nn9maPfD7lXr39NoBvQWwzVyJ6mAhPmKx/2uFf1iLhEEIIIYQQQojUkV94w4mmEf4vZiyC3UsnH9ozylBfal1R1WnXDmOS3Mgt9l7OjD8CyJJimDQYwJOk+KdtK2tflnAIIYQQQgghRPJyF3uziel7DL4G8bEaMIP412N6J/7IipV/jiRmo0ZmFpdP1Ux/Y8AlRTLpvMDgX7X7a/8Bi2ZdFkIIIYQQQghhvxzP0nzF6gYQvgLAiJPD2s3gxe3+2r/GYucx/Rwnf0HZsHCPczkIX5fimZTWA/ifvYb685YVVb0SDiGEEEIIIYRISOT2eC8F4RYwzouzQ1sHk68MrKrZHLMjiIcw5BZVlDJxHYDRUl6T0jYCLesxuWrjqpodEg4hhBBCCCGEiH/5+WVOc2zaFSDcEper/DL+5MgILWl5om5fLA8jbiaQzbvEe5IO488AzpXim7T2AvgzK/0/7SuXbZJwCCGEEEIIIUT8cXluHg7uuQ7E3yHgxLg7QMJ21nRte2P14/FxOHEkP7/MaY53+pjxfcR+eSZhHROMv5HBd8hEt0IIIYQQQggRH/oGPNASBv8HAePi8RgZ3OSk8DdaGuo+jJdjisslj13Flecr1n9g4FQp2smNgOfAVG18HHy0paUuJBERQgghhBBCCHu7Ze6i8iJS5GXGpYifCWk/ax8z/bD93PFV8Pl0nPVr49OcOTdl7hsR/AkI34WMXkkFW8G4n4nubfdX/0vCIYQQQgghhBDWmV1SOarX5C8z+HoA2fF8rAysgdLfitcpJSjeL3aup3wuE/0BjGlS9FOCZvDTilXd6ND4R+xef1wIIYQQQgghklmOp+J0BV4K4FoAw+P8cPeDcOu0UdvuqK+vN+P1ICkRLrzLc/Nwwv5fAPAifoclieh7F8y/VVC/b22s/kDCIYQQQgghhBCDl13qSzN2bruSFJXH33LJh8P/hEnXxXIZ5YGiRCoMeUUVZ2niewHMlFsjpYTB9DgRL2/z1zQBYAmJEEIIIYQQQhzZzOLyqWHGIgJdC+CYRDhmBnYQ8L2Av+YPidL3o0QrGKWlpcamnZMqiPhnAEbKrZJythBQFzYdD6xbdfdWCYcQQgghhBBC/Ft2QfkIpxNXgehbDJyfQP1+BuGPjt7Qd1ua67YnUswpUQuL++Ilx8Fw3APiL8qtk5LCDPjB/ODwPemPrllz534JiRBCCCGEECJFUY7He74ifAuMqwCMSKSDZ+A1g/XS1sZlzyZk8BO99Lg8FRcT+C4AOXIvpaxdYDzGxPXTszqfiudJjYQQQgghhBAiWtwXLzkOTuNrYFwHYGoCnsIeAv1mj0H/vWVFVW+iXgdKhsJUUOBz7EzbvpiJbwNjvNxeKe09AH9XpO5rbagKSDiEEEIIIYQQyWRqSWX6iDAvZOJvAJgPwJGAp8FgPGhqx3eTYYoHSqYCll9QNj6c5vw5gOsgqwcJ4CUQ/8nRG/6/RPtGTwghhBBCCCE+4fMp15od55I2vwKiLwMYncBn84KGvqHDv6wlWS4PJWOZyyuudGvm2wH2yB0oAISIsEKDHtjVu+fJt5rv75GQCCGEEEIIIeKdu7hyFqC/BMbVAI5P8NN5k4Eftftr/oIkW+mVkrkQuoq884hwO2R5ZvFv+wGsYuJ6sxd/X99cu0dCIoQQQgghhIgX7mJvNjGVMvE1YExLglP6GITb9yp1VyLPo3IklALlknKLKq5i4l8COEVuU3GQT5Isvek9j2x6/L7dEhIhhBBCCCGE3XLnL5nCbHyJGd8k4IwkOa19YFRRyPnLtua7dibz9aNUKahTSyrTh4e1F4TvA5ggt6743E0PrGDgr2aQ/yEjWYQQQgghhBBWcnkqTiboLwH0JQC5SXRqIQbdT+HwrYGnl7+fCteSUq3wZheUjzDSqJKAmwGMldtZHMJ+gBsI+Gu6YTyxdkXVLgmJEEIIIYQQIlIzSipPNbR5BZhKAcxKsj65ycCDrPVPO5qWvZlK15VStUDPLqkctd80byLQTQCy5BYXh9ELwA9CvXbof3Q8uaxLQiKEEEIIIYQYaJ87r6gi3yR9BUFdDvCMJDxHDeBhVtrXvnLZppS8yKleyrOLbxrrRPA/mVEBYJTc9+IIwgx6QYGfNEFPdPirN0pIhBBCCCGEEAfLzy9z6vHpF2roK8BYCOCEJD1VDeARhulr9y9fl8rXnKTY95m+cPHIjN7McmZ8l4BxEhExAP8C0Mjgf+wzDH+yznAthBBCCCGEOLL8BWXDQr2OeQS6DMAVACYm8elqAE8x4SftDTWvytWXxMrnuDw3Dwf3XEfE3wVwnEREDNA+AE8T6AmDgk+0NNR9KCERQgghhBAieeUXlI0PpTsuIdBlYFwCYHiSn3IQjL9A4+eBVTWbpQT8myRWDmNKwaKM0c7h1zLwXRBOkoiIQdAMrAXwhFb6yXUrl7VLSIQQQgghhEhwPp/KfXFbPpuYD8IlAM0CoFLgzPcR8W+1Mu5oX1H1nhSEz5PEylEUFPgcO9O3X83QN4MpTyIiBo3xNhM9SeAV4SA3y1LOQgghhBBCJIb8grLxZnqah1mXAFQMYEIKnf42MFf3aqrduKpmh5SGw5PEyiC4C8vPg6JbAFwqsRNDZBKojZmblFJNwVHjnltf7wtKWIQQQgghhIgDPp/KWb01T5EqZOZCAhUAcKRYkuANzVQ1fI+zbs2aO/dLoRhQzMRg5RZdfxqTWQGgDECGREREYC+D1xBRk2bd1OFf1iIhEUIIIYQQwj75BWXjTWfaRUxcCNACgI9NzeQAtWjS90wf1fnn+vp6U0rGYGInhn4DFpcdG9bOJSB8G8AkiYiIgreI0MRAo6M39HRLc912CYkQQgghhBBR7MfllznDYxyzoaiYgfkEzERqzJVyKL1gPKxA97Q2Vr8ipWNoJLESBdmlvjTnzu2XM/GNAOZKRETUMDYAeEIp1dTVuw5y4pQAABfKSURBVPv5t5rv75GgCCGEEEIIMTg5hUtPMZRRyMSFYHgAZKV4SLaCcT9Msyrw9PL3pYRERhIrUZY33ztHa1wP4EoATomIiKJ9AF5gRrMibh4dnPhSc7MvLGERQgghhBDi03I8Facb0Bcz6GIGCggYJ1EBAKwlontCo8b/VeZ6jB5JrFgkr6hisoa+lomuI+BEiYiwwB4Az4PQzIzmscEJLZJoEUIIIYQQqSi/8IYTTQpdzKCLQZgHYLJE5RN7Af4/xWq5fO5jDUmsWM3nU3lrdlysocvA+AJSbEZpYW+FeWAiXJj8gqMrvLalpS4kYRFCCCGEEMkmr6RyAoe5gInPI9C5DM6XqHzOJhD+EEbab9c33PmxhMM6klixUe78JVO0VtcR6FoAx0hEhMW6ATwHRjNYPRM4b1wAPp+WsAghhBBCiESTX3jDiaYKnc+M80DqPICzpT97SL0A/sqk7m1vqPqnhMMeUhBjUSnklznNcWmXavAiAi6BzMUi7NHFwHNgesZQ1Dx11EfrZBk1IYQQQggRd3w+5Vr90ZmAcT6A8wg4H8AJEpgj9ey5lZnudwZDD8nKojEIv4QgtnIuXTrGCBmlDP4GgHMlIsJGewAEwHieiV9gJz/f8eSyLgmLEEIIIYSwU0GBz7Ejbaub2DiPFJ/LjItlstkB+RjAX5lwb3tDzasSjtiRxEoccRd7s6HxdRAWAZgkERE2M8HYBOpLtBCoJdBQs17CIoQQQgghoim7oHxEWrpxDjOfp6HPJdC5ADIlMgMSBOAnpgeMj4OPypyK8UESK3EoP7/MaY53XsLMiwC6BECaREXEyPtgvMCg1crQq0f3TGyVlYeEEEIIIcSA+Xwqb+2O0zlszmJgNojmAMgBoCQ4g+m4UwsDf+w1+aGNq2p2SETi7fqIuCafCok4sw9AK4AWYnq+R/PTUrELIYQQQogD8gvLsrSRfjYzn8fgfAbmyGc9Q/YRgIeh1f2BpqpWCUf8ksRKApkxf6nL0MYigL8KYKJERMQBDeA1EF4m5peh8HJo5MTA+npfUEIjhBBCCJHcppZUpo9kPdM0aZZSmM3M5wA4WSITkV4CngDp+0f3TmqQ0eKJQRIrCSg/v8wZGu+YR5quBuEKAGMkKiKOBMEIMNHLivXLrOjlaaO2bZQViIQQQgghEltu0fWnMfRsEM8CMBtALmTagmgIg7AKjIe1Uz8iC0okHkmsJLjsUl+ac9fWIrBxNYMvB5AlURFxaA+DWoj5FRC9zMBL7f7qf0lYhBBCCCHiU07h0lNI0UwFmsmEmcw4Sz7piSqTwc8owsM9Yfq7fF6f2CSxkkSmllSmDzNNDzGVgnA5gFESFRHHugGsQ/98LSGn/uf6p2o/krAIIYQQQtgrr6hiskk6X0HlMzgffaNRJkhkok4DWMNM9aZT/0XavslDEitJakrBoozRaSPmg3A1My8AMEKiIhLAuwBeAaGNNbUZTg60PlXztoRFCCGEECJypaWlxuZdE09ncL4CZjJjJkC5AEZKdCyjCXgejIdDTv6bJFOSkyRWUsCcOTdl7h0VuoQ0Xw3CZQCGSVREAukC0AZQG5NuM2AE1PbeDS0tdSEJjRBCCCHEoWWX+tKcO7edyUQz0fcpz0wC3NIXsEXfyBTgYYPpr62N1R9ISJKbJFZSjMtz83Ci/ZeCcTWAEqlYRYIKAljXN0ku2hhoS9OhQEtTXbeERgghhBCpZoan/AQHUw4r5DDDRUAOgNMBOCU6ttEMrCVwPRtGffuKqvckJKlDEispbErBoowx6SPP06wXALgSwHESFZHgVdqHALcQqAWM9ax4Q6ChZgMAltgIIYQQItFll/rSHLs6T2NwPmk6E4RsALMATJToxEQPg58Hq3+QGf5r4Onl70tIUrQXIiEQB8pC7vzys7TG5Qq0gAGXhEQkiS4COph5A4HWseINShnrWldUdUpohBBCCBGPSktLjc0fTzyVDXYRUw4IOQS4GDhF+nAx9xER/qE1PeHMCDa1PFG3T0Ii5KYUh5Q7f8kU1o4FAC8AcCFkfXqRfLXfdjA6QNgA0DrNvCFkYr0sdSeEEEII2/h8yrV6+0mK+QxNdCZBn84gNwFnQj7ZjycdRHhCMx5vnzvhZfh8WkIiPt21EOIo8heUDQv1OuYR6DIAlwOYJFERSawLwAYA65lpg6Fovcmh9nb/8m0SGiGEEEIMqT2dX+YMjjFOIEXZRHQmGKcAyEbfZLKyemf8MQG8CMIT/P/bu7ffOq86jePf33q3z44dO2e3aRuT9BCXQHERCnRoQCVVpoK73KO5qNoRkajEH+A/AKmMCp1RLxD3uRmBVGgoIsxAU9qEtgFn0lBMaBo7aerYO3G8fdjveuZi222ghaY0aXx4PtKW40MS55G9s97Hv7XeyP99/Gf/+bojsX/ExYp9JHv2DFUmWt7+F5S+Hugbgk85FVslzkJjukXSiZBOpqbidW8pMjMzs0W79n6nQ1y5O6m4J0I71ThAdieNNXPFCS1pkxHx0yz9OM01/ezVw9+bdCR2rVys2Mdy374DO1XmRzLaG8QDQKtTsVVmAjglOIk4RehUTjo1NVM7dfrwj2Ycj5mZ2QpcA3/tW31Q7lCKO6V0D6GdZO4muM3XWMuGgOOCQxA/651b/z+HDw/VHYv9M/xNb9fN7t1PtM101b+Uc34oIh4S+py/xmyVP8WOiTwcxAjBiKQTyhr+/QObTntvrpmZ2dL26Uce72Ge/kJFv5L6yQxExE6hO4E1TmhZXv2+A/wyFM/nIp71LZHt+n1pmd0gn/nqY7fQVNmLtJfgIcR6p2IGwDRwqjHhwqlAJ0mcYqb5jx47NTMz++QMPPxEb6G5HaHYQeJOpB2C7QE7gG4ntOzNAr8hOESZDr32/FOv0phUMbuuXKzYJ2NoKH32xbcHcxlfS8HDgt1Ak4Mxe5+LiD8RGgliJIuRSPpTKmJke8fbbx08eLB0RGZmZtdu197HNkKxDak/YDvBnRA7aJQnvU5oxTkJHArxXI62Xx0/9N0rjsRuNBcrdlMMfv3R9jzX8sWrtg0NOhWzDzUPnBGN0oVgJHKMlFGONOfyjWPPP1N1RGZmttrcseebrWsqbX2VotIvqV9SP4n+UPQL7QC6nNKKNgUcDuInUdFzrzz7g784EvukuVixJWHX3m9tC+W9RHyN4EFvGzL7p7wNGhExEhF/ipxHyoiRKNLIXZ3nxjztYmZmy9HA/qHmysULdxCxjch3QGwDGo/ENq8bV51Z0EuIn0v6+V0977zsNY7dbC5WbEl+Xe7a+9hAUPkK6EHgy8AGx2L2scwDZ0FnUJxW6M1EerOEM5Ui/lKWLX/xqKyZmd0Mu/Z+p6MoZm/P89qqxK0JtgLbRN62UKL0AclJrVozAS9B/FKRf9V+qeXFI0eerDkWW1IXsI7AloNPP/R4f5GKhyQ9QPAV4FanYnb9Fy7A6NVbjYTGCorRelkfubvnnb/4J0JmZvZRDA4+2pR7mzfUo9xSqOjP0Bdoy3tbdegDbfZ1iV2lHsRrkp5PKT3feqnyGxcpttT5CcyW5dftffsO3KOy3CPFgwQPApsci9kNNxdwRvBmEGcknY6kt6QYI6ez9eZybPjZp8/j0/bNzFbNmmzw4Uc312nZKrSVzK0R3B5oq9CtELcBW3zNYR+iBrwo9CsRv7w8d+Wl04d/NONYbFk9GToCWwn+ZqJlD40RUjO7OSaCGBEaA0aDGANGM3lMaLSiYuyVn39/DBcwZmZLd231yOM9qZ76EmlLSdkXxBZEH0HjZaMw2Yrv8mgfXQ34HeLXKaXnJ2Yv/9pFii13LlZsZS4G9n7r7qT8oCK+DDwQcJtTMVtSpkFngXMizkRwDuktEWNEOluhHIvm+uixnzwz7ajMzK7f2n/gX/99U9M8m0m6JavYHKFbQmwmuEViE43t1htxYWLXzyWIF0H/S9bhes/Gl4YPDs05FltRT66OwFaDz3z1sVtUSbuD9EXIuyE+BzQ7GbMl70rAOcF5wYWA80ScR1wgdD6Lc01ZF6YVb5/8xQ/GHZeZrTaLZ5iQYkMutZlgA5E3QNpIaDNiPWITQR+NrdMVp2Y3lv4YpCNSfiErvfD7B9YPMzSUnYutZC5WbNUuQubWFbtCxQOBBhU86KkWsxVhAjFGMEEwihgLYoKFrUiRmchotHmiPHPs2DPzjsvMlqLdu59om+mc76lHuSWIPoKed7fiiJ7F1xcOft0IFE7NbpL5II4L/SYUv85R/9XxQ//1tmOx1cbFitmCe/cd+FSR8xdD7Aa+JBjwQsVsRasGvCMYDzQu4iIwTjAOuqjMeMB4Do1XKumd6Urt4us//uFlx2Zm12rPnqHKxeZzvZWc1uVIvTlybyJ6JdYp9O6vSaxDrAfWAxvwVK0tXW8hXojEkSyONI3P/84/qDBzsWL2d931jX9b0z7b8YVM/iKNsmU30O1kzFa1OYhx0MWAcdEoYQjGQ7FQ0sTFHDGeo15tSqmq6abqq4e/N+nozJavgf1Dzc1T4915Lvcocm8qWCdSr3L0BuolsS6IXqFeiXUB62g8upyeLWN1wasBLwiOZPSbPxx6+oxjMXs/Fytm12poKO164dxOqHwh0OeDuF9oFz7czcyuzeTCoxpQFVRBVSKqkiYTUYWoIiZEriqiKqKaK3mya6KleuTIkzVHaPbR7dkzVDlXXOhuitxNoicoukPqjqArQ3dI3RDdkegWdEvqCUU3QReNH6h0A21O0laBPyNejuBoKL+UWsuXfYi82bVxsWL2MWzfd6ClU+WunOP+EJ8nuB+4Bx8MZ2bX3xxQBapBVBWaREwjagSTEFciVBNcCumyItUiMyVyVamoSfVpMhPNRVmjZPrY889UHaktRYNff7T9ynRTW1Pkbig6UhFtCbokdRK0IzozdIVyG0QHqFsRbdF431pYLESiG9QFdDhVs/d5C3Q0SEeVOTorHfUh8Gb/PBcrZjdgQVjONN+X4f6IfD/E/cCdQHI6ZrbEXAGmgcvAZTVug30liCowA1xBMQe6Qlp4mZmPiCkF843iRvWU0mWF6mUuL1eiUq+X9cuV5lTWI19qz5Xytz996pKjXt7u2PPN1jUdbW1Z0ZLm1N5EtMwntVdSakapQzk3Q3SQaEJ0IjUp0RmKiqQ1QIVgDUEz0IGiG3JbkNpBa0W0g9qAtU7b7Lp7W3A0xFGCl+sVHR1+9ulzjsXs+nGxYvYJ+MK+A12z0ufI+rzE/QuTLf1OxsxWkUxjC1SOxuRNXihwAFBoUpIai5OoEcw03qHMVR9HMEWmcVDiYtnz7t+gyYikhT+vFjlmPuCTmC1SfOhou7JqZZQzH7qQSkyp3vh8IqldRMuHR5E6KpE+9HBSSZ3oA7abprwWpWj8k2mLpNaF3xAoriomooPQ4t/TKDbe0yWpWFgMtjQKDpDURtAK0QZqBVrxNhiz5WQCOBpwVElHK/Wmo8ee/483HYvZjeVixewmGXj4id5Knr0/In1eaBD4LLDNyZiZmZnZNZhAvAYcU3C0Ejr6u+eefsOxmH3yXKyYLSFf2Hega7qs74iIgVAMAoPAfUC70zEzMzNbtZdtY6BjQRxDDCvpxGvP/eAEIGdjtgS+Qx2B2dK2f//+4uTE+tsjxUAiDS5Mt+zEW4nMzMzMVpo5xBvAMRHHihTDtXp+xQfLmi1tLlbMlqnP7vn2WlXm7lWkwQjtBAZoTLi0Oh0zMzOzJX8pNibycBAnFI1plDu73j558ODB0tmYLbPvZkdgtnIM7B9qLi5duDdl7coRnwnYRbALsd7pmJmZmd0UM4T+T4rjgV4T6bUyml4dfu7Ji47GbGVwsWK2Cnz6kcd7mKc/IgYix06CAbydyMzMzOx6amzjSQyH4sTiWSieQjFb+VysmK1iLlzMzMzMPjIXKGb2V1ysmNn7fHbPt9eWzbOf+oDCZZufN8zMzGyVcIFiZtfEF0hmds0GHn6it1LO7oyUdhJ5pxR3AXcCtwOFEzIzM7NleEX0DuIU4vUgTpLK4azixPFD3z+Nb2dsZtf0NGJm9jENDj7aNNdTbK0Ulf4yayBCO4X6g+jHUy5mZmZ2880CZ4ETiOGIGImIkbmi/MPws0+fczxm9nH4YsfMbqjt+w60dOS8PXLsVFI/op/GraHvBbqdkJmZmV0ndeBNoZEgRqQ4UaQYrpf1kd8/sOk0Q0PZEZnZjeBixcxumsXDcwsV/QQDCu0MRb/QPUC7EzIzM7MPMNEoTnSCxHDkGCmjHLk8Vxs+ffhHM47HzD5pLlbMbMnZv39/8cfL67bmXOkHtqVQvxqTLtto3LFog1MyMzNbsWqIPxOMACNSjAB/JuojTS155NhPnpl2RGa2lLhYMbNlZ/u+Ay1t8/VbKkWlX1K/pH4S/QvTLncBnU7JzMxsSWtMnYRGyIwsnnnibTtmthy5WDGzFefqLUaL57pcdZjuHUBySmZmZjfUDDC6eN4Jwcjilp2g4+TxQ9+94ojMbKVwsWJmq8ode77Z2ltp3zaf0h1J+TYFW0NxmyJuC7QVuBVodlJmZmb/0DnEGYgzkfIZiNOZOJMivzkzHyMnf/GDcUdkZquFixUzs7+xOPESRF8ibVncaoToA7bgqRczM1vZFm9NPEYwurhVJ5PHhEbzXLw+fPjpKcdkZtbgYsXM7CNaPOMlEX0RactVt5HuC2KL0A6gy0mZmdkS9d75JmqUJ4vbdCoqxl75+ffHADkmM7Nr42LFzOwGuG/fgQ31eW0uQluVYhM530qKTRK3BmymseVoI9DktMzM7HoQjAcxRuisxDnQW0E6j/RWKjg3n/VWy3j93LFjz8w7LTOz68fFipnZTfTpRx7vSfXUl0hbSsq+ILYg+gi2XLX16Dag4rTMzFatGWCUxa05C1MmQmMFxWgmj8201N58/cc/vOyozMw+eS5WzMyWuqGhNHhkdNOcir7Fc1+Avgx9KbQpiw0Bm2g8OhyYmdmyMA9cWHiMIS4oOIfibCSNUWq0bCrG1kxWRo8cebLmuMzMli4XK2ZmK8gde77Z2tPU2ZuTehanYMipJ9AWoI+gB+ihMQmzFW9FMjO7nmYgJqJxm+ExxAQwKmKMlCcQE0KjFRVj29eeP3/w4MHSkZmZLX8uVszMVrH79h3YAGygXt+Qo9gMbCTYgLQRtAliA8EGiXUBvf5/w8xWmSnBxYB3Ap2HdEHSBZLGBBekdCFC52O+PH+lpemdN3761KwjMzNbfbxANjOza7Z79xNtM53zPTmph1I9SvQsbk0S6kH0vDsVI3qI6AFtBAqnZ2Y30QzEBNIEwQQwgZggmAhiIouJxYmSyExkNFprqpx1UWJmZtfCxYqZmd1Q+/fvL96Y2txbqt6bcqwT0atQb4h1EL0ieoO8DqIX6P6bR5sTNLMFJVAFJoFJxCVCkxAXA10UjEcwrmA8SBfrlBeLOY2319ou+owSMzO7kVysmJnZkvZBUzIEPUmpNYu2FPT8g2mZVmCt/78zWxLePzUS1MjM/L3JEYqYyGWuVaKYeeVL688xNJQdo5mZLTVeaJqZ2Yo2sH+ouXlqvDty2T0vdYfS2pTozKItEV2SOiOiTdIaRawJqY1EJ9AVog2iQ2hxeqadxiRNcrK2wk0BNeBy46GaYCqULhGqAVcE1RA1EtMQ1ZBqKKYJTUZiikjVPDtfnemcu+TbAJuZ2UrmYsXMzOwj2r7vQEtbqrfHfLG2KKKtXtbbKlHpKVW2RURbKNYSahe0hOiWSIpYE6gi6IygSaID1BxEexAtktoIWoFWGiVOM759tv21OnCZoERcAnIQ1YwEmgRIxKQCBVQlcqBLUpQRcRkxTzApMa1ErSCqUjmtXNQy9arUfKWjOdd++9OnLjlqMzOza+dixczMbAkbHHy0aW5z0VnJlUp9vr6miKaijPmuIkUKFd1SDhRrAZTUGoo2ACkHqfF2ADLtQAuAghSNyZtFHQTNAIiK0Jr3FgqxJohK4zU1CTr/zqe69hrXFZ18Mrf5rgLXsm1kCpj/gLfPBzG1+IrQJaESIJRmSZp+932KyUBaeHUG0TjPI0KNM0AWPzCmA2YBspQTUQUgldNBZVZZtTLKmRRpJpe5Fk2VOaX6lXwl5ocPPz3l7wYzM7Ol6f8B61pplXQr1L8AAAAldEVYdGRhdGU6Y3JlYXRlADIwMTktMDMtMDZUMTU6MDE6MjArMDA6MDAJEsxkAAAAJXRFWHRkYXRlOm1vZGlmeQAyMDE5LTAzLTA2VDE1OjAxOjIwKzAwOjAweE902AAAAABJRU5ErkJggg==;" vertex="1" parent="vhtiH4_wVitRDqFueMQG-35">
          <mxGeometry x="140" y="20" width="75" height="20" as="geometry" />
        </mxCell>
        <mxCell id="vhtiH4_wVitRDqFueMQG-87" value="" style="shape=image;verticalLabelPosition=bottom;labelBackgroundColor=default;verticalAlign=top;aspect=fixed;imageAspect=0;image=data:image/svg+xml,PHN2ZyB4bWxucz0iaHR0cDovL3d3dy53My5vcmcvMjAwMC9zdmciIHZpZXdCb3g9IjAgMCAxMDI0IDEwMjQiIGhlaWdodD0iODAwcHgiIHdpZHRoPSI4MDBweCI+JiN4YTsgICA8Y2lyY2xlIHN0eWxlPSJmaWxsOiMwMDkxZTIiIHI9IjUxMiIgY3k9IjUxMiIgY3g9IjUxMiIvPiYjeGE7ICAgPHBhdGggc3R5bGU9ImZpbGw6I2ZmZiIgZD0iTTgyNy4zIDQ2MS41Yy0xLjYtMS4zLTE2LjEtMTIuMi00Ni43LTEyLjItOC4xIDAtMTYuMi42LTI0LjIgMi4xLTUuOS00MC43LTM5LjUtNjAuNS00MS02MS40bC04LjItNC44LTUuNCA3LjhjLTYuOCAxMC41LTExLjcgMjItMTQuNiAzNC4yLTUuNSAyMy4yLTIuMiA0NSA5LjYgNjMuNi0xNC4yIDcuOS0zNy4xIDkuOS00MS43IDEwSDI3N2MtOS45IDAtMTcuOSA4LTE3LjkgMTcuOS0uNCAzMy4xIDUuMiA2NiAxNi41IDk3LjEgMTMgMzQuMiAzMi40IDU5LjMgNTcuNiA3NC43IDI4LjIgMTcuMyA3NC4xIDI3LjIgMTI2LjIgMjcuMiAyMy41LjEgNDctMi4xIDcwLjEtNi40IDMyLjEtNS45IDYzLTE3LjEgOTEuNC0zMy4yIDIzLjQtMTMuNiA0NC41LTMwLjggNjIuNC01MS4xIDI5LjktMzMuOSA0Ny44LTcxLjcgNjEuMS0xMDUuMmg1LjNjMzIuOCAwIDUzLTEzLjEgNjQuMS0yNC4xIDcuNC03IDEzLjItMTUuNSAxNi45LTI1bDIuMy02LjktNS43LTQuM3pNMzEyIDQ4OS45aDUwLjdjMi40IDAgNC40LTIgNC40LTQuNHYtNDUuMWMwLTIuNC0yLTQuNC00LjQtNC41SDMxMmMtMi40IDAtNC40IDItNC40IDQuNHY0NS4yYzAgMi41IDIgNC40IDQuNCA0LjRtNjkuOSAwaDUwLjdjMi40IDAgNC40LTIgNC40LTQuNHYtNDUuMWMwLTIuNC0yLTQuNC00LjQtNC41aC01MC43Yy0yLjUgMC00LjUgMi00LjUgNC41djQ1LjFjMCAyLjUgMiA0LjQgNC41IDQuNG03MC44LjFoNTAuN2MyLjQgMCA0LjQtMiA0LjQtNC40di00NS4xYzAtMi40LTItNC40LTQuNC00LjVoLTUwLjdjLTIuNCAwLTQuNCAyLTQuNCA0LjR2NDUuMmMwIDIuNCAyIDQuMyA0LjQgNC40bTcwLjEgMGg1MC43YzIuNCAwIDQuNC0yIDQuNS00LjR2LTQ1LjFjMC0yLjUtMi00LjUtNC41LTQuNWgtNTAuN2MtMi40IDAtNC40IDItNC40IDQuNHY0NS4yYzAgMi40IDEuOSA0LjQgNC40IDQuNG0tMTQxLTY1aDUwLjdjMi40IDAgNC40LTIgNC40LTQuNXYtNDUuMWMwLTIuNC0yLTQuNC00LjQtNC40aC01MC43Yy0yLjUgMC00LjQgMi00LjUgNC40djQ1LjFjLjEgMi41IDIuMSA0LjUgNC41IDQuNW03MC45IDBoNTAuN2MyLjQgMCA0LjQtMiA0LjQtNC41di00NS4xYzAtMi40LTItNC40LTQuNC00LjRoLTUwLjdjLTIuNCAwLTQuNCAyLTQuNCA0LjR2NDUuMWMwIDIuNSAyIDQuNSA0LjQgNC41bTcwLjEgMGg1MC43YzIuNSAwIDQuNC0yIDQuNS00LjV2LTQ1LjFjMC0yLjUtMi00LjQtNC41LTQuNGgtNTAuN2MtMi40IDAtNC40IDItNC40IDQuNHY0NS4xYzAgMi41IDEuOSA0LjUgNC40IDQuNW0wLTY0LjloNTAuN2MyLjUgMCA0LjUtMiA0LjUtNC41di00NS4yYzAtMi40LTItNC40LTQuNS00LjRoLTUwLjdjLTIuNCAwLTQuNCAyLTQuNCA0LjR2NDUuMmMwIDIuNSAxLjkgNC41IDQuNCA0LjVNNTkzLjQgNDkwaDUwLjdjMi40IDAgNC40LTIgNC40LTQuNHYtNDUuMWMwLTIuNS0yLTQuNC00LjQtNC41aC01MC43Yy0yLjQgMC00LjQgMi00LjQgNC40djQ1LjJjMCAyLjQgMiA0LjQgNC40IDQuNCIvPiYjeGE7PC9zdmc+;" vertex="1" parent="vhtiH4_wVitRDqFueMQG-35">
          <mxGeometry x="310.48" y="160.97000000000003" width="19.03" height="19.03" as="geometry" />
        </mxCell>
        <mxCell id="vhtiH4_wVitRDqFueMQG-92" value="" style="shape=image;verticalLabelPosition=bottom;labelBackgroundColor=default;verticalAlign=top;aspect=fixed;imageAspect=0;image=data:image/svg+xml,PHN2ZyB4bWxucz0iaHR0cDovL3d3dy53My5vcmcvMjAwMC9zdmciIHZpZXdCb3g9IjAgMCAyNTAwIDEyNTAiPjxnIGZpbGwtcnVsZT0iZXZlbm9kZCIgY2xpcC1ydWxlPSJldmVub2RkIj48cGF0aCBkPSJtMCAwaDI1MDB2MTI1MGgtMjUwMHoiLz48cGF0aCBmaWxsPSIjZmZmIiBkPSJtNjczLjggNDc5LjQtLjYtMTY4LjFoLTkzLjhsLjYgMTY4LjEgNDYuOSA2NC40em0tOTMuOCAyODguMXYxNjguN2g5My44di0xNjguN2wtNDYuOS02NC40eiIvPjxwYXRoIGZpbGw9IiMwMGYyZTYiIGQ9Im02NzMuOCA3NjcuNSA5OC44IDEzNi4zIDc1LjYtNTUtOTguOC0xMzYuMy03NS42LTI0LjR6bS05My44LTI4OC4xLTk5LjQtMTM2LjMtNzUuNiA1NSA5OC44IDEzNi4yIDc2LjIgMjQuNHoiLz48cGF0aCBmaWxsPSIjMDBiOWYxIiBkPSJtNTAzLjggNTM0LjQtMTYwLTUxLjktMjguOCA4OC43IDE2MCA1Mi41IDc1LjYtMjV6bTE5OC43IDExMy43IDQ2LjkgNjQuNCAxNjAgNTEuOSAyOC44LTg4LjctMTYwLTUxLjl6Ii8+PHBhdGggZmlsbD0iI2Q2M2FmZiIgZD0ibTc3OC4xIDYyMy44IDE2MC01Mi41LTI4LjgtODguNy0xNjAgNTEuOS00Ni45IDY0LjR6bS0zMDMuMSAwLTE2MCA1MS45IDI4LjggODguNyAxNjAtNTEuOSA0Ni45LTY0LjR6Ii8+PHBhdGggZmlsbD0iI2ZiMDE1YiIgZD0ibTUwMy44IDcxMi41LTk4LjggMTM2LjMgNzUuNiA1NSA5OS40LTEzNi4zdi03OS40em0yNDUuNi0xNzguMSA5OC44LTEzNi4zLTc1LjYtNTUtOTguOCAxMzYuMnY3OS40eiIvPjxwYXRoIGZpbGw9IiNmZmYiIGQ9Im0xMjg4LjEgNDcwLjZ2MjE4LjdjMCA0OC4xLTM5LjQgODcuNS04Ny41IDg3LjV2LTQzLjhjMjQuNCAwIDQzLjgtMTkuNCA0My44LTQzLjh2LTIxOC42em03OTguOCA0My44aDk4Ljd2LTQzLjdoLTI0MC42djQzLjdoOTguMXYyNjIuNWg0My44em0tMjczLjgtNDMuOHYyMTguN2MwIDI0LjQtMTkuNCA0My44LTQzLjggNDMuOHMtNDMuOC0xOS40LTQzLjgtNDMuOHYtMTMxLjJjMC00OC4xLTM5LjQtODcuNS04Ny41LTg3LjVzLTg3LjUgMzkuNC04Ny41IDg3LjV2MTMxLjNjMCAyNC40LTE5LjQgNDMuOC00My44IDQzLjhzLTQzLjgtMTkuNC00My44LTQzLjh2LTIxOC44aC00My44djIxOC43YzAgNDguMSAzOS40IDg3LjUgODcuNSA4Ny41czg3LjUtMzkuNCA4Ny41LTg3LjV2LTEzMS4yYzAtMjQuNCAxOS40LTQzLjggNDMuOC00My44czQzLjggMTkuNCA0My44IDQzLjh2MTMxLjNjMCA0OC4xIDM5LjQgODcuNSA4Ny41IDg3LjVzODcuNS0zOS40IDg3LjUtODcuNXYtMjE4Ljh6Ii8+PC9nPjwvc3ZnPg==;" vertex="1" parent="vhtiH4_wVitRDqFueMQG-35">
          <mxGeometry x="300" y="250" width="40" height="20" as="geometry" />
        </mxCell>
        <mxCell id="vhtiH4_wVitRDqFueMQG-97" value="" style="group" vertex="1" connectable="0" parent="vhtiH4_wVitRDqFueMQG-35">
          <mxGeometry x="280" y="344" width="80" height="90" as="geometry" />
        </mxCell>
        <mxCell id="vhtiH4_wVitRDqFueMQG-94" value="" style="rounded=0;whiteSpace=wrap;html=1;" vertex="1" parent="vhtiH4_wVitRDqFueMQG-97">
          <mxGeometry width="80" height="90" as="geometry" />
        </mxCell>
        <mxCell id="vhtiH4_wVitRDqFueMQG-93" value="" style="shape=image;verticalLabelPosition=bottom;labelBackgroundColor=default;verticalAlign=top;aspect=fixed;imageAspect=0;image=data:image/svg+xml,PHN2ZyB4bWxucz0iaHR0cDovL3d3dy53My5vcmcvMjAwMC9zdmciIHhtbDpzcGFjZT0icHJlc2VydmUiIHZpZXdCb3g9IjAgMCAxMTUuMzMzIDExNCIgaGVpZ2h0PSIxMTRweCIgd2lkdGg9IjExNS4zMzNweCIgeT0iMHB4IiB4PSIwcHgiIGlkPSJMYXllcl8xIiB2ZXJzaW9uPSIxLjEiPjxtZXRhZGF0YSBpZD0ibWV0YWRhdGE0NDk1Ij5pbWFnZS9zdmcreG1sPC9tZXRhZGF0YT48ZGVmcyBpZD0iZGVmczQ0OTMiLz48ZyBpZD0iTGF5ZXJfMiIvPjxwYXRoIGQ9Ik0gNTYuNjY3LDAuNjY3IEMgMjUuMzcyLDAuNjY3IDAsMjYuMDM2IDAsNTcuMzMyIGMgMCwzMS4yOTUgMjUuMzcyLDU2LjY2NiA1Ni42NjcsNTYuNjY2IDMxLjI5NSwwIDU2LjY2NiwtMjUuMzcxIDU2LjY2NiwtNTYuNjY2IDAsLTMxLjI5NiAtMjUuMzcyLC01Ni42NjUgLTU2LjY2NiwtNTYuNjY1IHogbSAwLDEwNi4wNTUgYyAtOC45MDQsMCAtMTYuMTIzLC01Ljk0OCAtMTYuMTIzLC0xMy4yODMgSCA3Mi43OSBjIDAsNy4zMzQgLTcuMjE5LDEzLjI4MyAtMTYuMTIzLDEzLjI4MyB6IE0gODMuMjk3LDg5LjA0IEggMzAuMDM0IFYgNzkuMzgyIEggODMuMjk4IFYgODkuMDQgWiBNIDgzLjEwNiw3NC40MTEgSCAzMC4xODYgQyAzMC4wMSw3NC4yMDggMjkuODMsNzQuMDA4IDI5LjY2LDczLjgwMiAyNC4yMDgsNjcuMTgyIDIyLjkyNCw2My43MjYgMjEuNjc3LDYwLjIwNCBjIC0wLjAyMSwtMC4xMTYgNi42MTEsMS4zNTUgMTEuMzE0LDIuNDEzIDAsMCAyLjQyLDAuNTYgNS45NTgsMS4yMDUgLTMuMzk3LC0zLjk4MiAtNS40MTQsLTkuMDQ0IC01LjQxNCwtMTQuMjE4IDAsLTExLjM1OSA4LjcxMiwtMjEuMjg1IDUuNTY5LC0yOS4zMDggMy4wNTksMC4yNDkgNi4zMzEsNi40NTYgNi41NTIsMTYuMTYxIDMuMjUyLC00LjQ5NCA0LjYxMywtMTIuNzAxIDQuNjEzLC0xNy43MzMgMCwtNS4yMSAzLjQzMywtMTEuMjYyIDYuODY3LC0xMS40NjkgLTMuMDYxLDUuMDQ1IDAuNzkzLDkuMzcgNC4yMTksMjAuMDk5IDEuMjg1LDQuMDMgMS4xMjEsMTAuODEyIDIuMTEzLDE1LjExMyBDIDYzLjc5NywzMy41MzQgNjUuMzMzLDIwLjUgNzEsMTYgYyAtMi41LDUuNjY3IDAuMzcsMTIuNzU4IDIuMzMzLDE2LjE2NyAzLjE2Nyw1LjUgNS4wODcsOS42NjcgNS4wODcsMTcuNTQ4IDAsNS4yODQgLTEuOTUxLDEwLjI1OSAtNS4yNDIsMTQuMTQ4IDMuNzQyLC0wLjcwMiA2LjMyNiwtMS4zMzUgNi4zMjYsLTEuMzM1IGwgMTIuMTUyLC0yLjM3MSBjIDEwZS00LC0xMGUtNCAtMS43NjUsNy4yNjEgLTguNTUsMTQuMjU0IHoiIGlkPSJwYXRoNDQ4NiIgc3R5bGU9ImZpbGw6I2U2NTIyYztmaWxsLW9wYWNpdHk6MSIvPjwvc3ZnPg==;" vertex="1" parent="vhtiH4_wVitRDqFueMQG-97">
          <mxGeometry x="30" y="30" width="25" height="24.78" as="geometry" />
        </mxCell>
        <mxCell id="vhtiH4_wVitRDqFueMQG-95" value="&lt;font style=&quot;font-size: 8px;&quot;&gt;Prometheus metrics&amp;nbsp;&lt;/font&gt;" style="text;html=1;strokeColor=none;fillColor=none;align=center;verticalAlign=middle;whiteSpace=wrap;rounded=0;" vertex="1" parent="vhtiH4_wVitRDqFueMQG-97">
          <mxGeometry y="60" width="80" height="30" as="geometry" />
        </mxCell>
        <mxCell id="vhtiH4_wVitRDqFueMQG-96" value="&lt;font style=&quot;font-size: 8px;&quot;&gt;127.0.0.1:10001&lt;/font&gt;" style="text;html=1;strokeColor=none;fillColor=none;align=center;verticalAlign=middle;whiteSpace=wrap;rounded=0;" vertex="1" parent="vhtiH4_wVitRDqFueMQG-97">
          <mxGeometry x="13" width="60" height="30" as="geometry" />
        </mxCell>
        <mxCell id="vhtiH4_wVitRDqFueMQG-98" value="" style="endArrow=classic;html=1;rounded=0;entryX=0.5;entryY=0;entryDx=0;entryDy=0;" edge="1" parent="vhtiH4_wVitRDqFueMQG-35" source="vhtiH4_wVitRDqFueMQG-12" target="vhtiH4_wVitRDqFueMQG-96">
          <mxGeometry width="50" height="50" relative="1" as="geometry">
            <mxPoint x="220" y="350" as="sourcePoint" />
            <mxPoint x="270" y="300" as="targetPoint" />
          </mxGeometry>
        </mxCell>
        <mxCell id="vhtiH4_wVitRDqFueMQG-133" value="&lt;font style=&quot;font-size: 6px;&quot;&gt;HTTPS REQUEST&lt;/font&gt;" style="text;html=1;strokeColor=none;fillColor=none;align=center;verticalAlign=middle;whiteSpace=wrap;rounded=0;" vertex="1" parent="vhtiH4_wVitRDqFueMQG-35">
          <mxGeometry x="50" y="360" width="70" height="20" as="geometry" />
        </mxCell>
        <mxCell id="vhtiH4_wVitRDqFueMQG-134" value="" style="shape=image;verticalLabelPosition=bottom;labelBackgroundColor=default;verticalAlign=top;aspect=fixed;imageAspect=0;image=data:image/svg+xml,PHN2ZyB4bWxucz0iaHR0cDovL3d3dy53My5vcmcvMjAwMC9zdmciIHZpZXdCb3g9IjAgMCAzMiAzMiIgaGVpZ2h0PSI4MDBweCIgd2lkdGg9IjgwMHB4Ij48dGl0bGU+ZmlsZV90eXBlX25naW54PC90aXRsZT48cGF0aCBzdHlsZT0iZmlsbDojMDE5NjM5IiBkPSJNMTUuOTQ4LDJoLjA2NWExMC40MTgsMTAuNDE4LDAsMCwxLC45NzIuNTI4UTIyLjQxNCw1LjY1LDI3Ljg0Myw4Ljc3NGEuNzkyLjc5MiwwLDAsMSwuNDE0Ljc4OGMtLjAwOCw0LjM4OSwwLDguNzc3LS4wMDUsMTMuMTY0YS44MTMuODEzLDAsMCwxLS4zNTYuNTA3cS01Ljc3MywzLjMyNC0xMS41NDcsNi42NDRhLjU4Ny41ODcsMCwwLDEtLjY1Ny4wMzdROS45MTIsMjYuNiw0LjE0MywyMy4yNzRhLjcuNywwLDAsMS0uNC0uNjY2cTAtNi41ODIsMC0xMy4xNjNhLjY5My42OTMsMCwwLDEsLjM4Ny0uNjdROS41NTIsNS42NTcsMTQuOTc0LDIuNTM1Yy4zMjItLjE4NC42MzgtLjM3OS45NzQtLjUzNSIvPjxwYXRoIHN0eWxlPSJmaWxsOiNmZmYiIGQ9Ik04Ljc2NywxMC41MzhxMCw1LjQyOSwwLDEwLjg1OWExLjUwOSwxLjUwOSwwLDAsMCwuNDI3LDEuMDg3LDEuNjQ3LDEuNjQ3LDAsMCwwLDIuMDYuMjA2LDEuNTY0LDEuNTY0LDAsMCwwLC42ODUtMS4yOTNjMC0yLjYyLS4wMDUtNS4yNCwwLTcuODZxMy41ODMsNC4yOSw3LjE4MSw4LjU2OGEyLjgzMywyLjgzMywwLDAsMCwyLjYuNzgyLDEuNTYxLDEuNTYxLDAsMCwwLDEuMjUxLTEuMzcxcS4wMDgtNS41NDEsMC0xMS4wODFhMS41ODIsMS41ODIsMCwwLDAtMy4xNTIsMGMwLDIuNjYyLS4wMTYsNS4zMjEsMCw3Ljk4Mi0yLjM0Ni0yLjc2Ni00LjY2My01LjU1Ni03LTguMzMyQTIuODE3LDIuODE3LDAsMCwwLDEwLjE3LDkuMDMzLDEuNTc5LDEuNTc5LDAsMCwwLDguNzY3LDEwLjUzOFoiLz48L3N2Zz4=;" vertex="1" parent="vhtiH4_wVitRDqFueMQG-35">
          <mxGeometry x="150" y="350" width="30" height="30" as="geometry" />
        </mxCell>
        <mxCell id="vhtiH4_wVitRDqFueMQG-199" value="" style="rounded=0;whiteSpace=wrap;html=1;" vertex="1" parent="vhtiH4_wVitRDqFueMQG-35">
          <mxGeometry x="280" y="460" width="80" height="90" as="geometry" />
        </mxCell>
        <mxCell id="vhtiH4_wVitRDqFueMQG-201" value="&lt;font style=&quot;font-size: 8px;&quot;&gt;Grafana analytics and visualization&amp;nbsp;&lt;/font&gt;" style="text;html=1;strokeColor=none;fillColor=none;align=center;verticalAlign=middle;whiteSpace=wrap;rounded=0;" vertex="1" parent="vhtiH4_wVitRDqFueMQG-35">
          <mxGeometry x="280" y="520" width="80" height="30" as="geometry" />
        </mxCell>
        <mxCell id="vhtiH4_wVitRDqFueMQG-204" value="" style="shape=image;verticalLabelPosition=bottom;labelBackgroundColor=default;verticalAlign=top;aspect=fixed;imageAspect=0;image=data:image/svg+xml,PHN2ZyB4bWxuczp4bGluaz0iaHR0cDovL3d3dy53My5vcmcvMTk5OS94bGluayIgeG1sbnM9Imh0dHA6Ly93d3cudzMub3JnLzIwMDAvc3ZnIiB4bWw6c3BhY2U9InByZXNlcnZlIiBzdHlsZT0iZW5hYmxlLWJhY2tncm91bmQ6bmV3IDAgMCAzNTEgMzY1OyIgdmlld0JveD0iMCAwIDM1MSAzNjUiIGhlaWdodD0iMzY1cHgiIHdpZHRoPSIzNTFweCIgeT0iMHB4IiB4PSIwcHgiIGlkPSJMYXllcl8xIiB2ZXJzaW9uPSIxLjEiPiYjeGE7PHN0eWxlIHR5cGU9InRleHQvY3NzIj4mI3hhOwkuc3Qwe2ZpbGw6dXJsKCNTVkdJRF8xXyk7fSYjeGE7PC9zdHlsZT4mI3hhOzxnIGlkPSJMYXllcl8xXzFfIj4mI3hhOzwvZz4mI3hhOzxsaW5lYXJHcmFkaWVudCB5Mj0iOTklIiB4Mj0iMTc1LjUiIHkxPSIzMCUiIHgxPSIxNzUuNSIgZ3JhZGllbnRVbml0cz0idXNlclNwYWNlT25Vc2UiIGlkPSJTVkdJRF8xXyI+JiN4YTsJPHN0b3Agc3R5bGU9InN0b3AtY29sb3I6I0YwNUEyOCIgb2Zmc2V0PSIwIi8+JiN4YTsJPHN0b3Agc3R5bGU9InN0b3AtY29sb3I6I0ZCQ0EwQSIgb2Zmc2V0PSIxIi8+JiN4YTs8L2xpbmVhckdyYWRpZW50PiYjeGE7PHBhdGggZD0iTTM0MiwxNjEuMmMtMC42LTYuMS0xLjYtMTMuMS0zLjYtMjAuOWMtMi03LjctNS0xNi4yLTkuNC0yNWMtNC40LTguOC0xMC4xLTE3LjktMTcuNS0yNi44JiMxMDsmIzk7Yy0yLjktMy41LTYuMS02LjktOS41LTEwLjJjNS4xLTIwLjMtNi4yLTM3LjktNi4yLTM3LjljLTE5LjUtMS4yLTMxLjksNi4xLTM2LjUsOS40Yy0wLjgtMC4zLTEuNS0wLjctMi4zLTEmIzEwOyYjOTtjLTMuMy0xLjMtNi43LTIuNi0xMC4zLTMuN2MtMy41LTEuMS03LjEtMi4xLTEwLjgtM2MtMy43LTAuOS03LjQtMS42LTExLjItMi4yYy0wLjctMC4xLTEuMy0wLjItMi0wLjMmIzEwOyYjOTtjLTguNS0yNy4yLTMyLjktMzguNi0zMi45LTM4LjZjLTI3LjMsMTcuMy0zMi40LDQxLjUtMzIuNCw0MS41cy0wLjEsMC41LTAuMywxLjRjLTEuNSwwLjQtMywwLjktNC41LDEuM2MtMi4xLDAuNi00LjIsMS40LTYuMiwyLjImIzEwOyYjOTtjLTIuMSwwLjgtNC4xLDEuNi02LjIsMi41Yy00LjEsMS44LTguMiwzLjgtMTIuMiw2Yy0zLjksMi4yLTcuNyw0LjYtMTEuNCw3LjFjLTAuNS0wLjItMS0wLjQtMS0wLjRjLTM3LjgtMTQuNC03MS4zLDIuOS03MS4zLDIuOSYjMTA7JiM5O2MtMy4xLDQwLjIsMTUuMSw2NS41LDE4LjcsNzAuMWMtMC45LDIuNS0xLjcsNS0yLjUsNy41Yy0yLjgsOS4xLTQuOSwxOC40LTYuMiwyOC4xYy0wLjIsMS40LTAuNCwyLjgtMC41LDQuMiYjMTA7JiM5O0MxOC44LDE5Mi43LDguNSwyMjgsOC41LDIyOGMyOS4xLDMzLjUsNjMuMSwzNS42LDYzLjEsMzUuNmMwLDAsMC4xLTAuMSwwLjEtMC4xYzQuMyw3LjcsOS4zLDE1LDE0LjksMjEuOWMyLjQsMi45LDQuOCw1LjYsNy40LDguMyYjMTA7JiM5O2MtMTAuNiwzMC40LDEuNSw1NS42LDEuNSw1NS42YzMyLjQsMS4yLDUzLjctMTQuMiw1OC4yLTE3LjdjMy4yLDEuMSw2LjUsMi4xLDkuOCwyLjljMTAsMi42LDIwLjIsNC4xLDMwLjQsNC41JiMxMDsmIzk7YzIuNSwwLjEsNS4xLDAuMiw3LjYsMC4xbDEuMiwwbDAuOCwwbDEuNiwwbDEuNi0wLjFsMCwwLjFjMTUuMywyMS44LDQyLjEsMjQuOSw0Mi4xLDI0LjljMTkuMS0yMC4xLDIwLjItNDAuMSwyMC4yLTQ0LjRsMCwwJiMxMDsmIzk7YzAsMCwwLTAuMSwwLTAuM2MwLTAuNCwwLTAuNiwwLTAuNmwwLDBjMC0wLjMsMC0wLjYsMC0wLjljNC0yLjgsNy44LTUuOCwxMS40LTkuMWM3LjYtNi45LDE0LjMtMTQuOCwxOS45LTIzLjMmIzEwOyYjOTtjMC41LTAuOCwxLTEuNiwxLjUtMi40YzIxLjYsMS4yLDM2LjktMTMuNCwzNi45LTEzLjRjLTMuNi0yMi41LTE2LjQtMzMuNS0xOS4xLTM1LjZsMCwwYzAsMC0wLjEtMC4xLTAuMy0wLjImIzEwOyYjOTtjLTAuMi0wLjEtMC4yLTAuMi0wLjItMC4yYzAsMCwwLDAsMCwwYy0wLjEtMC4xLTAuMy0wLjItMC41LTAuM2MwLjEtMS40LDAuMi0yLjcsMC4zLTQuMWMwLjItMi40LDAuMi00LjksMC4yLTcuM2wwLTEuOGwwLTAuOSYjMTA7JiM5O2wwLTAuNWMwLTAuNiwwLTAuNCwwLTAuNmwtMC4xLTEuNWwtMC4xLTJjMC0wLjctMC4xLTEuMy0wLjItMS45Yy0wLjEtMC42LTAuMS0xLjMtMC4yLTEuOWwtMC4yLTEuOWwtMC4zLTEuOSYjMTA7JiM5O2MtMC40LTIuNS0wLjgtNC45LTEuNC03LjRjLTIuMy05LjctNi4xLTE4LjktMTEtMjcuMmMtNS04LjMtMTEuMi0xNS42LTE4LjMtMjEuOGMtNy02LjItMTQuOS0xMS4yLTIzLjEtMTQuOSYjMTA7JiM5O2MtOC4zLTMuNy0xNi45LTYuMS0yNS41LTcuMmMtNC4zLTAuNi04LjYtMC44LTEyLjktMC43bC0xLjYsMGwtMC40LDBjLTAuMSwwLTAuNiwwLTAuNSwwbC0wLjcsMGwtMS42LDAuMWMtMC42LDAtMS4yLDAuMS0xLjcsMC4xJiMxMDsmIzk7Yy0yLjIsMC4yLTQuNCwwLjUtNi41LDAuOWMtOC42LDEuNi0xNi43LDQuNy0yMy44LDljLTcuMSw0LjMtMTMuMyw5LjYtMTguMywxNS42Yy01LDYtOC45LDEyLjctMTEuNiwxOS42Yy0yLjcsNi45LTQuMiwxNC4xLTQuNiwyMSYjMTA7JiM5O2MtMC4xLDEuNy0wLjEsMy41LTAuMSw1LjJjMCwwLjQsMCwwLjksMCwxLjNsMC4xLDEuNGMwLjEsMC44LDAuMSwxLjcsMC4yLDIuNWMwLjMsMy41LDEsNi45LDEuOSwxMC4xYzEuOSw2LjUsNC45LDEyLjQsOC42LDE3LjQmIzEwOyYjOTtjMy43LDUsOC4yLDkuMSwxMi45LDEyLjRjNC43LDMuMiw5LjgsNS41LDE0LjgsN2M1LDEuNSwxMCwyLjEsMTQuNywyLjFjMC42LDAsMS4yLDAsMS43LDBjMC4zLDAsMC42LDAsMC45LDBjMC4zLDAsMC42LDAsMC45LTAuMSYjMTA7JiM5O2MwLjUsMCwxLTAuMSwxLjUtMC4xYzAuMSwwLDAuMywwLDAuNC0wLjFsMC41LTAuMWMwLjMsMCwwLjYtMC4xLDAuOS0wLjFjMC42LTAuMSwxLjEtMC4yLDEuNy0wLjNjMC42LTAuMSwxLjEtMC4yLDEuNi0wLjQmIzEwOyYjOTtjMS4xLTAuMiwyLjEtMC42LDMuMS0wLjljMi0wLjcsNC0xLjUsNS43LTIuNGMxLjgtMC45LDMuNC0yLDUtM2MwLjQtMC4zLDAuOS0wLjYsMS4zLTFjMS42LTEuMywxLjktMy43LDAuNi01LjMmIzEwOyYjOTtjLTEuMS0xLjQtMy4xLTEuOC00LjctMC45Yy0wLjQsMC4yLTAuOCwwLjQtMS4yLDAuNmMtMS40LDAuNy0yLjgsMS4zLTQuMywxLjhjLTEuNSwwLjUtMy4xLDAuOS00LjcsMS4yYy0wLjgsMC4xLTEuNiwwLjItMi41LDAuMyYjMTA7JiM5O2MtMC40LDAtMC44LDAuMS0xLjMsMC4xYy0wLjQsMC0wLjksMC0xLjIsMGMtMC40LDAtMC44LDAtMS4yLDBjLTAuNSwwLTEsMC0xLjUtMC4xYzAsMC0wLjMsMC0wLjEsMGwtMC4yLDBsLTAuMywwJiMxMDsmIzk7Yy0wLjIsMC0wLjUsMC0wLjctMC4xYy0wLjUtMC4xLTAuOS0wLjEtMS40LTAuMmMtMy43LTAuNS03LjQtMS42LTEwLjktMy4yYy0zLjYtMS42LTctMy44LTEwLjEtNi42Yy0zLjEtMi44LTUuOC02LjEtNy45LTkuOSYjMTA7JiM5O2MtMi4xLTMuOC0zLjYtOC00LjMtMTIuNGMtMC4zLTIuMi0wLjUtNC41LTAuNC02LjdjMC0wLjYsMC4xLTEuMiwwLjEtMS44YzAsMC4yLDAtMC4xLDAtMC4xbDAtMC4ybDAtMC41YzAtMC4zLDAuMS0wLjYsMC4xLTAuOSYjMTA7JiM5O2MwLjEtMS4yLDAuMy0yLjQsMC41LTMuNmMxLjctOS42LDYuNS0xOSwxMy45LTI2LjFjMS45LTEuOCwzLjktMy40LDYtNC45YzIuMS0xLjUsNC40LTIuOCw2LjgtMy45YzIuNC0xLjEsNC44LTIsNy40LTIuNyYjMTA7JiM5O2MyLjUtMC43LDUuMS0xLjEsNy44LTEuNGMxLjMtMC4xLDIuNi0wLjIsNC0wLjJjMC40LDAsMC42LDAsMC45LDBsMS4xLDBsMC43LDBjMC4zLDAsMCwwLDAuMSwwbDAuMywwbDEuMSwwLjEmIzEwOyYjOTtjMi45LDAuMiw1LjcsMC42LDguNSwxLjNjNS42LDEuMiwxMS4xLDMuMywxNi4yLDYuMWMxMC4yLDUuNywxOC45LDE0LjUsMjQuMiwyNS4xYzIuNyw1LjMsNC42LDExLDUuNSwxNi45YzAuMiwxLjUsMC40LDMsMC41LDQuNSYjMTA7JiM5O2wwLjEsMS4xbDAuMSwxLjFjMCwwLjQsMCwwLjgsMCwxLjFjMCwwLjQsMCwwLjgsMCwxLjFsMCwxbDAsMS4xYzAsMC43LTAuMSwxLjktMC4xLDIuNmMtMC4xLDEuNi0wLjMsMy4zLTAuNSw0LjkmIzEwOyYjOTtjLTAuMiwxLjYtMC41LDMuMi0wLjgsNC44Yy0wLjMsMS42LTAuNywzLjItMS4xLDQuN2MtMC44LDMuMS0xLjgsNi4yLTMsOS4zYy0yLjQsNi01LjYsMTEuOC05LjQsMTcuMSYjMTA7JiM5O2MtNy43LDEwLjYtMTguMiwxOS4yLTMwLjIsMjQuN2MtNiwyLjctMTIuMyw0LjctMTguOCw1LjdjLTMuMiwwLjYtNi41LDAuOS05LjgsMWwtMC42LDBsLTAuNSwwbC0xLjEsMGwtMS42LDBsLTAuOCwwJiMxMDsmIzk7YzAuNCwwLTAuMSwwLTAuMSwwbC0wLjMsMGMtMS44LDAtMy41LTAuMS01LjMtMC4zYy03LTAuNS0xMy45LTEuOC0yMC43LTMuN2MtNi43LTEuOS0xMy4yLTQuNi0xOS40LTcuOCYjMTA7JiM5O2MtMTIuMy02LjYtMjMuNC0xNS42LTMyLTI2LjVjLTQuMy01LjQtOC4xLTExLjMtMTEuMi0xNy40Yy0zLjEtNi4xLTUuNi0xMi42LTcuNC0xOS4xYy0xLjgtNi42LTIuOS0xMy4zLTMuNC0yMC4xbC0wLjEtMS4zbDAtMC4zJiMxMDsmIzk7bDAtMC4zbDAtMC42bDAtMS4xbDAtMC4zbDAtMC40bDAtMC44bDAtMS42bDAtMC4zYzAsMCwwLDAuMSwwLTAuMWwwLTAuNmMwLTAuOCwwLTEuNywwLTIuNWMwLjEtMy4zLDAuNC02LjgsMC44LTEwLjImIzEwOyYjOTtjMC40LTMuNCwxLTYuOSwxLjctMTAuM2MwLjctMy40LDEuNS02LjgsMi41LTEwLjJjMS45LTYuNyw0LjMtMTMuMiw3LjEtMTkuM2M1LjctMTIuMiwxMy4xLTIzLjEsMjItMzEuOGMyLjItMi4yLDQuNS00LjIsNi45LTYuMiYjMTA7JiM5O2MyLjQtMS45LDQuOS0zLjcsNy41LTUuNGMyLjUtMS43LDUuMi0zLjIsNy45LTQuNmMxLjMtMC43LDIuNy0xLjQsNC4xLTJjMC43LTAuMywxLjQtMC42LDIuMS0wLjljMC43LTAuMywxLjQtMC42LDIuMS0wLjkmIzEwOyYjOTtjMi44LTEuMiw1LjctMi4yLDguNy0zLjFjMC43LTAuMiwxLjUtMC40LDIuMi0wLjdjMC43LTAuMiwxLjUtMC40LDIuMi0wLjZjMS41LTAuNCwzLTAuOCw0LjUtMS4xYzAuNy0wLjIsMS41LTAuMywyLjMtMC41JiMxMDsmIzk7YzAuOC0wLjIsMS41LTAuMywyLjMtMC41YzAuOC0wLjEsMS41LTAuMywyLjMtMC40bDEuMS0wLjJsMS4yLTAuMmMwLjgtMC4xLDEuNS0wLjIsMi4zLTAuM2MwLjktMC4xLDEuNy0wLjIsMi42LTAuMyYjMTA7JiM5O2MwLjctMC4xLDEuOS0wLjIsMi42LTAuM2MwLjUtMC4xLDEuMS0wLjEsMS42LTAuMmwxLjEtMC4xbDAuNS0wLjFsMC42LDBjMC45LTAuMSwxLjctMC4xLDIuNi0wLjJsMS4zLTAuMWMwLDAsMC41LDAsMC4xLDBsMC4zLDAmIzEwOyYjOTtsMC42LDBjMC43LDAsMS41LTAuMSwyLjItMC4xYzIuOS0wLjEsNS45LTAuMSw4LjgsMGM1LjgsMC4yLDExLjUsMC45LDE3LDEuOWMxMS4xLDIuMSwyMS41LDUuNiwzMSwxMC4zJiMxMDsmIzk7YzkuNSw0LjYsMTcuOSwxMC4zLDI1LjMsMTYuNWMwLjUsMC40LDAuOSwwLjgsMS40LDEuMmMwLjQsMC40LDAuOSwwLjgsMS4zLDEuMmMwLjksMC44LDEuNywxLjYsMi42LDIuNGMwLjksMC44LDEuNywxLjYsMi41LDIuNCYjMTA7JiM5O2MwLjgsMC44LDEuNiwxLjYsMi40LDIuNWMzLjEsMy4zLDYsNi42LDguNiwxMGM1LjIsNi43LDkuNCwxMy41LDEyLjcsMTkuOWMwLjIsMC40LDAuNCwwLjgsMC42LDEuMmMwLjIsMC40LDAuNCwwLjgsMC42LDEuMiYjMTA7JiM5O2MwLjQsMC44LDAuOCwxLjYsMS4xLDIuNGMwLjQsMC44LDAuNywxLjUsMS4xLDIuM2MwLjMsMC44LDAuNywxLjUsMSwyLjNjMS4yLDMsMi40LDUuOSwzLjMsOC42YzEuNSw0LjQsMi42LDguMywzLjUsMTEuNyYjMTA7JiM5O2MwLjMsMS40LDEuNiwyLjMsMywyLjFjMS41LTAuMSwyLjYtMS4zLDIuNi0yLjhDMzQyLjYsMTcwLjQsMzQyLjUsMTY2LjEsMzQyLDE2MS4yeiIgY2xhc3M9InN0MCIvPiYjeGE7PC9zdmc+;" vertex="1" parent="vhtiH4_wVitRDqFueMQG-35">
          <mxGeometry x="300.00000000000006" y="487.9" width="25.6" height="26.62" as="geometry" />
        </mxCell>
        <mxCell id="vhtiH4_wVitRDqFueMQG-206" value="&lt;meta charset=&quot;utf-8&quot;&gt;&lt;span style=&quot;color: rgb(0, 0, 0); font-family: Helvetica; font-size: 8px; font-style: normal; font-variant-ligatures: normal; font-variant-caps: normal; font-weight: 400; letter-spacing: normal; orphans: 2; text-align: center; text-indent: 0px; text-transform: none; widows: 2; word-spacing: 0px; -webkit-text-stroke-width: 0px; background-color: rgb(251, 251, 251); text-decoration-thickness: initial; text-decoration-style: initial; text-decoration-color: initial; float: none; display: inline !important;&quot;&gt;127.0.0.1:3000&lt;/span&gt;" style="text;html=1;strokeColor=none;fillColor=none;align=center;verticalAlign=middle;whiteSpace=wrap;rounded=0;" vertex="1" parent="vhtiH4_wVitRDqFueMQG-35">
          <mxGeometry x="290" y="460" width="60" height="30" as="geometry" />
        </mxCell>
        <mxCell id="vhtiH4_wVitRDqFueMQG-207" value="" style="endArrow=classic;startArrow=classic;html=1;rounded=0;entryX=0.5;entryY=1;entryDx=0;entryDy=0;exitX=0.5;exitY=0;exitDx=0;exitDy=0;" edge="1" parent="vhtiH4_wVitRDqFueMQG-35" source="vhtiH4_wVitRDqFueMQG-206" target="vhtiH4_wVitRDqFueMQG-95">
          <mxGeometry width="50" height="50" relative="1" as="geometry">
            <mxPoint x="350" y="520" as="sourcePoint" />
            <mxPoint x="400" y="470" as="targetPoint" />
          </mxGeometry>
        </mxCell>
        <mxCell id="vhtiH4_wVitRDqFueMQG-208" value="" style="shape=image;verticalLabelPosition=bottom;labelBackgroundColor=default;verticalAlign=top;aspect=fixed;imageAspect=0;image=data:image/svg+xml,PHN2ZyB4bWxucz0iaHR0cDovL3d3dy53My5vcmcvMjAwMC9zdmciIGZpbGw9Im5vbmUiIHZpZXdCb3g9IjAgMCA1NDAgMTk2IiBoZWlnaHQ9IjE5NiIgd2lkdGg9IjU0MCI+JiN4YTs8cGF0aCBmaWxsPSIjMDFCNUU2IiBkPSJNMzUwLjc3NSAxMy44ODY2TDM1NS44MzQgMjAuNTQ4NEMzNTcuMTYyIDIyLjMwNjYgMzU2LjgzIDI0LjgyNjcgMzU1LjA3MiAyNi4xNTUyTDM0OS43IDMwLjIzODJDMzUwLjY3NyAzMi44MzY0IDM1MS4zMDIgMzUuNjEwNSAzNTEuNTU2IDM4LjQ0MzJMMzU3LjY3IDM5LjI4MzNDMzU5Ljg1NyAzOS41NzYzIDM2MS4zODEgNDEuNjA4IDM2MS4wODggNDMuNzk2TDM1OS45NTUgNTIuMDk4OEMzNTkuNjYyIDU0LjI4NjggMzU3LjYzMSA1NS44MzAxIDM1NS40NDMgNTUuNTE3NkwzNDguNzYzIDU0LjU5OTRDMzQ3LjU3MSA1Ny4xOTc3IDM0Ni4wNDggNTkuNTgxIDM0NC4yNTEgNjEuNzEwNEwzNDguMDAxIDY2LjYzMzVDMzQ5LjMyOSA2OC4zOTE3IDM0OC45NzggNzAuOTExOCAzNDcuMjIgNzIuMjQwM0wzNDAuNTU5IDc3LjMwMDFDMzM4LjgwMSA3OC42Mjg1IDMzNi4yODIgNzguMjc2OSAzMzQuOTU0IDc2LjUzODJMMzMwLjg3MSA3MS4xNjU4QzMyOC4yNTQgNzIuMTQyNiAzMjUuNSA3Mi43Njc3IDMyMi42NDggNzMuMDIxN0wzMjEuODA4IDc5LjEzNjRDMzIxLjUxNSA4MS4zMjQ0IDMxOS40ODQgODIuODQ4MiAzMTcuMjk2IDgyLjU1NTJMMzA4Ljk5NSA4MS40MjIxQzMwNi44MDcgODEuMTI5MSAzMDUuMjg0IDc5LjA5NzQgMzA1LjU3NyA3Ni45MDkzTDMwNi40OTUgNzAuMjI4MUMzMDMuOTE3IDY5LjAzNjQgMzAxLjUxNCA2Ny41MTI2IDI5OS4zODUgNjUuNzM0OEwyOTQuNDYzIDY5LjQ2NjJDMjkyLjcwNSA3MC43OTQ2IDI5MC4xODUgNzAuNDYyNSAyODguODU3IDY4LjcwNDNMMjgzLjc5OCA2Mi4wNDI1QzI4Mi40NyA2MC4yODQzIDI4Mi44MDIgNTcuNzY0MiAyODQuNTYgNTYuNDM1N0wyODkuOTMxIDUyLjM1MjhDMjg4Ljk1NSA0OS43MzQ5IDI4OC4zMyA0Ni45ODA0IDI4OC4wNzYgNDQuMTQ3N0wyODEuOTYyIDQzLjMwNzZDMjc5Ljc3NSA0My4wMTQ2IDI3OC4yMzEgNDAuOTgyOSAyNzguNTQ0IDM4Ljc5NDlMMjc5LjY3NyAzMC40OTIxQzI3OS45ODkgMjguMzA0MSAyODIuMDAxIDI2Ljc4MDMgMjg0LjE4OSAyNy4wNzMzTDI5MC44NjkgMjcuOTkxNUMyOTIuMDYgMjUuNDEyOCAyOTMuNTg0IDIzLjAwOTkgMjk1LjM2MSAyMC44ODA1TDI5MS42MzEgMTUuOTU3NEMyOTAuMzAyIDE0LjIxODcgMjkwLjYzNSAxMS42OTg2IDI5Mi4zOTIgMTAuMzcwMkwyOTkuMDUzIDUuMzEwMzlDMzAwLjgxMSAzLjk4MTk1IDMwMy4zMzEgNC4zMTQwNiAzMDQuNjU5IDYuMDcyMjhMMzA4Ljc0MSAxMS40NDQ2QzMxMS4zMzkgMTAuNDY3OSAzMTQuMTEyIDkuODQyNzEgMzE2Ljk0NSA5LjU4ODc0TDMxNy43ODUgMy40NzQwMUMzMTguMDc4IDEuMjg2IDMyMC4xMDkgLTAuMjU3MzM3IDMyMi4yOTcgMC4wMzU3MDExTDMzMC41OTggMS4xNjg3OEMzMzIuNzg1IDEuNDYxODIgMzM0LjMyOCAzLjQ5MzU1IDMzNC4wMTYgNS42ODE1N0wzMzMuMDk4IDEyLjM2MjhDMzM1LjY5NiAxMy41NTQ1IDMzOC4wNzkgMTUuMDc4MyAzNDAuMjI3IDE2Ljg3NTZMMzQ1LjE0OSAxMy4xNDQzQzM0Ni45MDcgMTEuNzk2MyAzNDkuNDI3IDEyLjEyODQgMzUwLjc3NSAxMy44ODY2Wk0yMDcuOTU0IDEzMS4xMjFWOTguODg3MkgyMjQuNTU2QzIyNy42NDMgOTguODg3MiAyMjkuOTg2IDk5LjE0MTIgMjMxLjYwOCA5OS42ODgyQzIzMy4yMjkgMTAwLjIxNiAyMzQuNTU3IDEwMS4xOTIgMjM1LjUzNCAxMDIuNjE5QzIzNi41MyAxMDQuMDY0IDIzNy4wMzggMTA1LjgwMyAyMzcuMDM4IDEwNy44NTRDMjM3LjAzOCAxMDkuNjMyIDIzNi42NDcgMTExLjE5NSAyMzUuODg1IDExMi40ODRDMjM1LjEyMyAxMTMuNzkzIDIzNC4wNjkgMTE0Ljg0OCAyMzIuNzQxIDExNS42NDlDMjMxLjkwMSAxMTYuMTU3IDIzMC43MjkgMTE2LjU4NyAyMjkuMjQ0IDExNi45MTlDMjMwLjQzNiAxMTcuMzI5IDIzMS4yOTUgMTE3LjcgMjMxLjgyMiAxMTguMTFDMjMyLjE5NCAxMTguMzg0IDIzMi43MjEgMTE4Ljk1MSAyMzMuNDA1IDExOS44MUMyMzQuMDg4IDEyMC42NyAyMzQuNTU3IDEyMS4zNTMgMjM0Ljc5MSAxMjEuODIyTDIzOS42MzUgMTMxLjE0MUgyMjguMzg1TDIyMy4wNzIgMTIxLjMxNEMyMjIuMzg4IDEyMC4wNDUgMjIxLjgwMiAxMTkuMjA1IDIyMS4yNzUgMTE4LjgzM0MyMjAuNTUyIDExOC4zNDUgMjE5LjczMiAxMTguMDkxIDIxOC44MzMgMTE4LjA5MUgyMTcuOTU0VjEzMS4xNDFIMjA3Ljk1NFYxMzEuMTIxWk0yNDMuMDczIDE4Ny4yNDhIMjI0LjQ3OEwyMjEuODAyIDE5NkgyMDUuMDQ0TDIyNS4wMjUgMTQyLjg4MkgyNDIuOTk1TDI2Mi44OTkgMTk2SDI0NS43MUwyNDMuMDczIDE4Ny4yNDhaTTIzOS41OTYgMTc1Ljc0MUwyMzMuNzk1IDE1Ni42MzVMMjI3Ljk3NSAxNzUuNzQxSDIzOS41OTZaTTI2Ni43NjYgMTQyLjg4MkgyOTQuMDcyQzMwMC4wMyAxNDIuODgyIDMwNC40ODMgMTQ0LjI4OSAzMDcuNDMyIDE0Ny4xMjFDMzEwLjM4MiAxNDkuOTU0IDMxMS44NjYgMTUzLjk5OCAzMTEuODY2IDE1OS4yMTRDMzExLjg2NiAxNjQuNTg2IDMxMC4yNDUgMTY4Ljc4NyAzMDcuMDIyIDE3MS44MTVDMzAzLjc5OSAxNzQuODQzIDI5OC44NTggMTc2LjM0NyAyOTIuMjM2IDE3Ni4zNDdIMjgzLjIzMlYxOTZIMjY2Ljc2NlYxNDIuODgyVjE0Mi44ODJaTTI4My4yMzIgMTY1LjU4M0gyODcuMjc1QzI5MC40NTkgMTY1LjU4MyAyOTIuNzA1IDE2NS4wMzYgMjkzLjk5NCAxNjMuOTIyQzI5NS4yODMgMTYyLjgyOCAyOTUuOTI4IDE2MS40MDIgMjk1LjkyOCAxNTkuNzAyQzI5NS45MjggMTU4LjA0MiAyOTUuMzYxIDE1Ni42MTYgMjk0LjI0OCAxNTUuNDYzQzI5My4xMzUgMTU0LjMxIDI5MS4wMjUgMTUzLjcyNCAyODcuOTM5IDE1My43MjRIMjgzLjIzMlYxNjUuNTgzVjE2NS41ODNaTTMxOC41MDcgMTQyLjg4MkgzMzQuOTczVjE5NkgzMTguNTA3VjE0Mi44ODJWMTQyLjg4MlpNMjE3Ljk1NCAxMTEuOTc2SDIyMi4xNTRDMjIyLjYwMyAxMTEuOTc2IDIyMy40ODIgMTExLjgyIDIyNC43OTEgMTExLjUyN0MyMjUuNDU1IDExMS4zOSAyMjYuMDAyIDExMS4wNTggMjI2LjQxMiAxMTAuNTExQzIyNi44NDIgMTA5Ljk2NCAyMjcuMDM3IDEwOS4zMzkgMjI3LjAzNyAxMDguNjM2QzIyNy4wMzcgMTA3LjYgMjI2LjcwNSAxMDYuNzggMjI2LjA0MSAxMDYuMjMzQzIyNS4zNzcgMTA1LjY2NiAyMjQuMTQ2IDEwNS4zOTMgMjIyLjMzIDEwNS4zOTNIMjE3Ljk1NFYxMTEuOTc2Wk0yNDEuNTUgOTguODg3MkgyNjguMjExVjEwNS43NjRIMjUxLjU1VjExMC45MDJIMjY3VjExNy40NjZIMjUxLjU1VjEyMy44MTVIMjY4LjdWMTMxLjEwMkgyNDEuNTVWOTguODg3MlpNMjcxLjA2MyAxMjAuNDU1TDI4MC41MTcgMTE5Ljg2OUMyODAuNzEyIDEyMS40MTIgMjgxLjE0MiAxMjIuNTY1IDI4MS43NjcgMTIzLjM2NkMyODIuODAyIDEyNC42NTUgMjg0LjI2NyAxMjUuMzE5IDI4Ni4xNjIgMTI1LjMxOUMyODcuNTY4IDEyNS4zMTkgMjg4LjY4MSAxMjQuOTg3IDI4OS40NDMgMTI0LjMyM0MyOTAuMjA1IDEyMy42NTkgMjkwLjU5NSAxMjIuODc3IDI5MC41OTUgMTIxLjk5OEMyOTAuNTk1IDEyMS4xNTggMjkwLjIyNCAxMjAuNDE2IDI4OS41MDIgMTE5Ljc1MkMyODguNzc5IDExOS4wODcgMjg3LjA4IDExOC40ODIgMjg0LjQwNCAxMTcuODc2QzI4MC4wNDggMTE2Ljg5OSAyNzYuOTQyIDExNS41OSAyNzUuMDY3IDExMy45NjlDMjczLjE5MiAxMTIuMzQ3IDI3Mi4yNTUgMTEwLjI3NyAyNzIuMjU1IDEwNy43NTZDMjcyLjI1NSAxMDYuMDk2IDI3Mi43NDMgMTA0LjUzMyAyNzMuNyAxMDMuMDY4QzI3NC42NTcgMTAxLjYwMyAyNzYuMTAyIDEwMC40MzEgMjc4LjAzNiA5OS41OTA1QzI3OS45NyA5OC43NTA0IDI4Mi42MDcgOTguMzQwMiAyODUuOTY2IDk4LjM0MDJDMjkwLjA4OCA5OC4zNDAyIDI5My4yMTMgOTkuMTAyMSAyOTUuMzgxIDEwMC42NDVDMjk3LjUyOSAxMDIuMTg5IDI5OC44MTkgMTA0LjYxMSAyOTkuMjI5IDEwNy45NzFMMjg5Ljg3MyAxMDguNTM4QzI4OS42MTkgMTA3LjA3MyAyODkuMDkxIDEwNS45OTggMjg4LjMxIDEwNS4zNTRDMjg3LjUwOSAxMDQuNjg5IDI4Ni4zOTYgMTA0LjM1NyAyODUuMDA5IDEwNC4zNTdDMjgzLjg1NyAxMDQuMzU3IDI4Mi45NzggMTA0LjYxMSAyODIuMzkyIDEwNS4xQzI4MS44MDYgMTA1LjU4OCAyODEuNTEzIDEwNi4xOTQgMjgxLjUxMyAxMDYuODk3QzI4MS41MTMgMTA3LjQwNSAyODEuNzY3IDEwNy44NTQgMjgyLjIzNiAxMDguMjg0QzI4Mi43MDQgMTA4LjY5NCAyODMuNzk4IDEwOS4xMDQgMjg1LjU1NiAxMDkuNDc2QzI4OS45MTIgMTEwLjQxMyAyOTMuMDM3IDExMS4zNzEgMjk0LjkxMiAxMTIuMzI4QzI5Ni43ODcgMTEzLjI4NSAyOTguMTc0IDExNC40NzcgMjk5LjAxNCAxMTUuOTAzQzI5OS44NzMgMTE3LjMxIDMwMC4zMDMgMTE4LjkxMSAzMDAuMzAzIDEyMC42N0MzMDAuMzAzIDEyMi43NCAyOTkuNzM3IDEyNC42MzUgMjk4LjU4NCAxMjYuMzc0QzI5Ny40NTEgMTI4LjExMyAyOTUuODUgMTI5LjQ0MSAyOTMuNzk5IDEzMC4zNEMyOTEuNzQ4IDEzMS4yMzkgMjg5LjE3IDEzMS42ODggMjg2LjA0NCAxMzEuNjg4QzI4MC41NzUgMTMxLjY4OCAyNzYuNzY3IDEzMC42MzMgMjc0LjY1NyAxMjguNTIzQzI3Mi41NDggMTI2LjM3NCAyNzEuMzU2IDEyMy42OTggMjcxLjA2MyAxMjAuNDU1Wk0zMDEuNzQ4IDk4Ljg4NzJIMzMyLjA0M1YxMDYuODU4SDMyMS44ODZWMTMxLjEyMUgzMTEuOTI1VjEwNi44NThIMzAxLjc0OFY5OC44ODcyVjk4Ljg4NzJaTTI2OC4yMzEgMjIuMzg0N0MyNjQuNjU2IDIyLjExMTIgMjYxLjA0MyAyMi4xNTAzIDI1Ny40NjkgMjIuNTAyQzI0Ni40NzIgMjMuNTU2OSAyMzUuNzg4IDI3LjU2MTcgMjI2Ljk1OSAzNC40MTg4QzIxNi43NDMgNDIuMzMwOSAyMDguOTg5IDU0LjE2OTYgMjA2LjAwMSA2OS44NTY5TDIwNS4wNjMgNzQuNzYwNEwyMDAuMTggNzUuNjJDMTk1LjM5NSA3Ni40NiAxOTEuMTE3IDc3LjYxMjYgMTg3LjM2NyA3OS4wNzc4QzE4My43MzQgODAuNDg0NCAxODAuNDkxIDgyLjIyMzEgMTc3LjY1OSA4NC4yNzQ0QzE3NS4zOTMgODUuOTE1NCAxNzMuNDQgODcuNzUxNyAxNzEuNzggODkuNzQ0NEMxNjYuNjQzIDk1Ljg5ODIgMTY0LjI2IDEwMy42MTUgMTY0LjMxOSAxMTEuNDI5QzE2NC4zNzcgMTE5LjM2MSAxNjYuOTU1IDEyNy4zNyAxNzEuNzIxIDEzMy45NTRDMTczLjQ5OSAxMzYuMzk2IDE3NS41NSAxMzguNjQzIDE3Ny44OTQgMTQwLjU5NkMxODAuMjc3IDE0Mi41NjkgMTgyLjk1MiAxNDQuMjEgMTg1Ljk2IDE0NS40NDFDMTg3LjY2IDE0Ni4xNDQgMTg5LjQ3NiAxNDYuNzMxIDE5MS4zNzEgMTQ3LjE5OVYxNjEuODMyQzE4Ny40NjQgMTYxLjEyOCAxODMuODcgMTYwLjA3NCAxODAuNTExIDE1OC42ODZDMTc2LjA3NyAxNTYuODUgMTcyLjE1MSAxNTQuNDg2IDE2OC42OTQgMTUxLjU5NUMxNjUuNDEyIDE0OC44NiAxNjIuNTQxIDE0NS43NTQgMTYwLjEgMTQyLjM3NEMxNTMuNTk1IDEzMy4zODggMTUwLjA3OSAxMjIuNDA4IDE1MC4wMDEgMTExLjQ2OEMxNDkuOTIzIDEwMC40MTEgMTUzLjM2MSA4OS40MTIzIDE2MC43ODMgODAuNTAzOUMxNjMuMTg2IDc3LjYxMjYgMTY2LjAxOCA3NC45NTU4IDE2OS4yNiA3Mi42MTE0QzE3My4wMyA2OS44NzY0IDE3Ny4zNDcgNjcuNTcxMiAxODIuMjMgNjUuNjc2MkMxODUuNTg5IDY0LjM2NzMgMTg5LjE4MyA2My4yNzMzIDE5Mi45NzMgNjIuMzk0MkMxOTcuMjcgNDUuMzE5OCAyMDYuNDMgMzIuMTcyMiAyMTguMjA4IDIzLjA0OUMyMjkuMjI1IDE0LjUxMTggMjQyLjQ4NyA5LjUzMDEzIDI1Ni4xNCA4LjIyMTIzQzI2My4zMDkgNy41Mzc0NyAyNzAuNTc1IDcuODUwMDUgMjc3LjY4NSA5LjE3ODQ5QzI3Ny41MjggOS44MjMxNyAyNzcuMzkyIDEwLjQ2NzkgMjc3LjMxMyAxMS4xMzIxTDI3Ny4yOTQgMTEuMjQ5M0MyNzcuMTU3IDEyLjM2MjggMjc3LjA5OSAxMy40NzY0IDI3Ny4xNTcgMTQuNjA5NUMyNzUuNjUzIDE1LjE5NTUgMjc0LjI0NyAxNS45OTY1IDI3Mi45NzcgMTYuOTczM0wyNzIuOTE5IDE3LjAxMjRDMjcxLjAyNCAxOC40Mzg1IDI2OS40MjIgMjAuMjc0OSAyNjguMjMxIDIyLjM4NDdaTTM3MS41NzcgNTkuODkzNkMzNzIuNjcxIDYwLjg4OTkgMzczLjcyNSA2MS45MjUzIDM3NC43NjEgNjMuMDM4OUMzNzYuODUgNjUuMjg1NSAzNzguODIzIDY3LjgyNTIgMzgwLjY3OSA3MC42NTc5QzM4Ni45MjkgODAuMjY5NSAzOTAuMTMzIDkzLjEwNDYgMzg5Ljk5NiAxMDUuNjY2QzM4OS44NTkgMTE3Ljk5MyAzODYuNTM5IDEzMC4yNjIgMzc5Ljc0MSAxMzkuMjg3QzM3NS4zMDcgMTQ1LjE2OCAzNjkuNjI0IDE0OS45NzMgMzYyLjgwNyAxNTMuNzgzQzM1OC4xMzggMTU2LjQwMSAzNTIuODg0IDE1OC41NjkgMzQ3LjE2MSAxNjAuMzI4VjE0NS4xODdDMzUwLjI0NyAxNDQuMDM1IDM1My4xMTkgMTQyLjc0NSAzNTUuNzU2IDE0MS4yOEMzNjAuODkzIDEzOC40MDggMzY1LjA5MiAxMzQuOTExIDM2OC4yMzcgMTMwLjcxMUMzNzMuMTIgMTI0LjIwNiAzNzUuNTIyIDExNS4wMDQgMzc1LjYyIDEwNS41NjhDMzc1LjczNyA5NS42NjM4IDM3My4zMTUgODUuNzIgMzY4LjYwOCA3OC40OTE4QzM2Ny4yNiA3Ni40MDE0IDM2NS43NzYgNzQuNTI2IDM2NC4yMTMgNzIuODQ1OUMzNjMuNjA4IDcyLjIwMTIgMzYzLjAwMiA3MS41OTU2IDM2Mi4zNzcgNzEuMDA5NUMzNjIuNDc1IDcwLjAzMjcgMzYyLjUxNCA2OS4wMzY0IDM2Mi40NTUgNjguMDQwMUMzNjMuOTU5IDY3LjQ1NCAzNjUuMzY1IDY2LjY1MyAzNjYuNjM1IDY1LjY3NjJMMzY2LjY5NCA2NS42MzcxQzM2OC43MDUgNjQuMDkzOCAzNzAuMzg1IDYyLjE0MDIgMzcxLjU3NyA1OS44OTM2Wk0zMjIuMDQzIDI1LjAwMjVDMzMxLjA0NyAyNi4yMzMzIDMzNy4zMzYgMzQuNTM2IDMzNi4xMDYgNDMuNTQyMUMzMzQuODc1IDUyLjU0ODEgMzI2LjU3NCA1OC44NTgyIDMxNy41NyA1Ny42Mjc0QzMwOC41NjUgNTYuMzk2NyAzMDIuMjU2IDQ4LjA5MzkgMzAzLjUwNiAzOS4wODc5QzMwNC43NTYgMzAuMDgxOSAzMTMuMDM4IDIzLjc3MTggMzIyLjA0MyAyNS4wMDI1WiIgY2xpcC1ydWxlPSJldmVub2RkIiBmaWxsLXJ1bGU9ImV2ZW5vZGQiLz4mI3hhOzwvc3ZnPg==;" vertex="1" parent="vhtiH4_wVitRDqFueMQG-35">
          <mxGeometry x="200" y="350" width="80" height="29.03" as="geometry" />
        </mxCell>
        <mxCell id="vhtiH4_wVitRDqFueMQG-210" value="" style="shape=image;verticalLabelPosition=bottom;labelBackgroundColor=default;verticalAlign=top;aspect=fixed;imageAspect=0;image=data:image/svg+xml,PHN2ZyB4bWxucz0iaHR0cDovL3d3dy53My5vcmcvMjAwMC9zdmciIHZpZXdCb3g9IjAgMCAzMiAzMiIgaGVpZ2h0PSI4MDBweCIgd2lkdGg9IjgwMHB4Ij48dGl0bGU+ZmlsZV90eXBlX25naW54PC90aXRsZT48cGF0aCBzdHlsZT0iZmlsbDojMDE5NjM5IiBkPSJNMTUuOTQ4LDJoLjA2NWExMC40MTgsMTAuNDE4LDAsMCwxLC45NzIuNTI4UTIyLjQxNCw1LjY1LDI3Ljg0Myw4Ljc3NGEuNzkyLjc5MiwwLDAsMSwuNDE0Ljc4OGMtLjAwOCw0LjM4OSwwLDguNzc3LS4wMDUsMTMuMTY0YS44MTMuODEzLDAsMCwxLS4zNTYuNTA3cS01Ljc3MywzLjMyNC0xMS41NDcsNi42NDRhLjU4Ny41ODcsMCwwLDEtLjY1Ny4wMzdROS45MTIsMjYuNiw0LjE0MywyMy4yNzRhLjcuNywwLDAsMS0uNC0uNjY2cTAtNi41ODIsMC0xMy4xNjNhLjY5My42OTMsMCwwLDEsLjM4Ny0uNjdROS41NTIsNS42NTcsMTQuOTc0LDIuNTM1Yy4zMjItLjE4NC42MzgtLjM3OS45NzQtLjUzNSIvPjxwYXRoIHN0eWxlPSJmaWxsOiNmZmYiIGQ9Ik04Ljc2NywxMC41MzhxMCw1LjQyOSwwLDEwLjg1OWExLjUwOSwxLjUwOSwwLDAsMCwuNDI3LDEuMDg3LDEuNjQ3LDEuNjQ3LDAsMCwwLDIuMDYuMjA2LDEuNTY0LDEuNTY0LDAsMCwwLC42ODUtMS4yOTNjMC0yLjYyLS4wMDUtNS4yNCwwLTcuODZxMy41ODMsNC4yOSw3LjE4MSw4LjU2OGEyLjgzMywyLjgzMywwLDAsMCwyLjYuNzgyLDEuNTYxLDEuNTYxLDAsMCwwLDEuMjUxLTEuMzcxcS4wMDgtNS41NDEsMC0xMS4wODFhMS41ODIsMS41ODIsMCwwLDAtMy4xNTIsMGMwLDIuNjYyLS4wMTYsNS4zMjEsMCw3Ljk4Mi0yLjM0Ni0yLjc2Ni00LjY2My01LjU1Ni03LTguMzMyQTIuODE3LDIuODE3LDAsMCwwLDEwLjE3LDkuMDMzLDEuNTc5LDEuNTc5LDAsMCwwLDguNzY3LDEwLjUzOFoiLz48L3N2Zz4=;" vertex="1" parent="vhtiH4_wVitRDqFueMQG-35">
          <mxGeometry x="150" y="470" width="30" height="30" as="geometry" />
        </mxCell>
        <mxCell id="vhtiH4_wVitRDqFueMQG-211" value="&lt;font style=&quot;font-size: 6px;&quot;&gt;HTTPS REQUEST&lt;/font&gt;" style="text;html=1;strokeColor=none;fillColor=none;align=center;verticalAlign=middle;whiteSpace=wrap;rounded=0;" vertex="1" parent="vhtiH4_wVitRDqFueMQG-35">
          <mxGeometry x="50" y="475" width="70" height="20" as="geometry" />
        </mxCell>
        <mxCell id="vhtiH4_wVitRDqFueMQG-212" value="" style="shape=image;verticalLabelPosition=bottom;labelBackgroundColor=default;verticalAlign=top;aspect=fixed;imageAspect=0;image=data:image/svg+xml,PHN2ZyB4bWxucz0iaHR0cDovL3d3dy53My5vcmcvMjAwMC9zdmciIGZpbGw9Im5vbmUiIHZpZXdCb3g9IjAgMCA1NDAgMTk2IiBoZWlnaHQ9IjE5NiIgd2lkdGg9IjU0MCI+JiN4YTs8cGF0aCBmaWxsPSIjMDFCNUU2IiBkPSJNMzUwLjc3NSAxMy44ODY2TDM1NS44MzQgMjAuNTQ4NEMzNTcuMTYyIDIyLjMwNjYgMzU2LjgzIDI0LjgyNjcgMzU1LjA3MiAyNi4xNTUyTDM0OS43IDMwLjIzODJDMzUwLjY3NyAzMi44MzY0IDM1MS4zMDIgMzUuNjEwNSAzNTEuNTU2IDM4LjQ0MzJMMzU3LjY3IDM5LjI4MzNDMzU5Ljg1NyAzOS41NzYzIDM2MS4zODEgNDEuNjA4IDM2MS4wODggNDMuNzk2TDM1OS45NTUgNTIuMDk4OEMzNTkuNjYyIDU0LjI4NjggMzU3LjYzMSA1NS44MzAxIDM1NS40NDMgNTUuNTE3NkwzNDguNzYzIDU0LjU5OTRDMzQ3LjU3MSA1Ny4xOTc3IDM0Ni4wNDggNTkuNTgxIDM0NC4yNTEgNjEuNzEwNEwzNDguMDAxIDY2LjYzMzVDMzQ5LjMyOSA2OC4zOTE3IDM0OC45NzggNzAuOTExOCAzNDcuMjIgNzIuMjQwM0wzNDAuNTU5IDc3LjMwMDFDMzM4LjgwMSA3OC42Mjg1IDMzNi4yODIgNzguMjc2OSAzMzQuOTU0IDc2LjUzODJMMzMwLjg3MSA3MS4xNjU4QzMyOC4yNTQgNzIuMTQyNiAzMjUuNSA3Mi43Njc3IDMyMi42NDggNzMuMDIxN0wzMjEuODA4IDc5LjEzNjRDMzIxLjUxNSA4MS4zMjQ0IDMxOS40ODQgODIuODQ4MiAzMTcuMjk2IDgyLjU1NTJMMzA4Ljk5NSA4MS40MjIxQzMwNi44MDcgODEuMTI5MSAzMDUuMjg0IDc5LjA5NzQgMzA1LjU3NyA3Ni45MDkzTDMwNi40OTUgNzAuMjI4MUMzMDMuOTE3IDY5LjAzNjQgMzAxLjUxNCA2Ny41MTI2IDI5OS4zODUgNjUuNzM0OEwyOTQuNDYzIDY5LjQ2NjJDMjkyLjcwNSA3MC43OTQ2IDI5MC4xODUgNzAuNDYyNSAyODguODU3IDY4LjcwNDNMMjgzLjc5OCA2Mi4wNDI1QzI4Mi40NyA2MC4yODQzIDI4Mi44MDIgNTcuNzY0MiAyODQuNTYgNTYuNDM1N0wyODkuOTMxIDUyLjM1MjhDMjg4Ljk1NSA0OS43MzQ5IDI4OC4zMyA0Ni45ODA0IDI4OC4wNzYgNDQuMTQ3N0wyODEuOTYyIDQzLjMwNzZDMjc5Ljc3NSA0My4wMTQ2IDI3OC4yMzEgNDAuOTgyOSAyNzguNTQ0IDM4Ljc5NDlMMjc5LjY3NyAzMC40OTIxQzI3OS45ODkgMjguMzA0MSAyODIuMDAxIDI2Ljc4MDMgMjg0LjE4OSAyNy4wNzMzTDI5MC44NjkgMjcuOTkxNUMyOTIuMDYgMjUuNDEyOCAyOTMuNTg0IDIzLjAwOTkgMjk1LjM2MSAyMC44ODA1TDI5MS42MzEgMTUuOTU3NEMyOTAuMzAyIDE0LjIxODcgMjkwLjYzNSAxMS42OTg2IDI5Mi4zOTIgMTAuMzcwMkwyOTkuMDUzIDUuMzEwMzlDMzAwLjgxMSAzLjk4MTk1IDMwMy4zMzEgNC4zMTQwNiAzMDQuNjU5IDYuMDcyMjhMMzA4Ljc0MSAxMS40NDQ2QzMxMS4zMzkgMTAuNDY3OSAzMTQuMTEyIDkuODQyNzEgMzE2Ljk0NSA5LjU4ODc0TDMxNy43ODUgMy40NzQwMUMzMTguMDc4IDEuMjg2IDMyMC4xMDkgLTAuMjU3MzM3IDMyMi4yOTcgMC4wMzU3MDExTDMzMC41OTggMS4xNjg3OEMzMzIuNzg1IDEuNDYxODIgMzM0LjMyOCAzLjQ5MzU1IDMzNC4wMTYgNS42ODE1N0wzMzMuMDk4IDEyLjM2MjhDMzM1LjY5NiAxMy41NTQ1IDMzOC4wNzkgMTUuMDc4MyAzNDAuMjI3IDE2Ljg3NTZMMzQ1LjE0OSAxMy4xNDQzQzM0Ni45MDcgMTEuNzk2MyAzNDkuNDI3IDEyLjEyODQgMzUwLjc3NSAxMy44ODY2Wk0yMDcuOTU0IDEzMS4xMjFWOTguODg3MkgyMjQuNTU2QzIyNy42NDMgOTguODg3MiAyMjkuOTg2IDk5LjE0MTIgMjMxLjYwOCA5OS42ODgyQzIzMy4yMjkgMTAwLjIxNiAyMzQuNTU3IDEwMS4xOTIgMjM1LjUzNCAxMDIuNjE5QzIzNi41MyAxMDQuMDY0IDIzNy4wMzggMTA1LjgwMyAyMzcuMDM4IDEwNy44NTRDMjM3LjAzOCAxMDkuNjMyIDIzNi42NDcgMTExLjE5NSAyMzUuODg1IDExMi40ODRDMjM1LjEyMyAxMTMuNzkzIDIzNC4wNjkgMTE0Ljg0OCAyMzIuNzQxIDExNS42NDlDMjMxLjkwMSAxMTYuMTU3IDIzMC43MjkgMTE2LjU4NyAyMjkuMjQ0IDExNi45MTlDMjMwLjQzNiAxMTcuMzI5IDIzMS4yOTUgMTE3LjcgMjMxLjgyMiAxMTguMTFDMjMyLjE5NCAxMTguMzg0IDIzMi43MjEgMTE4Ljk1MSAyMzMuNDA1IDExOS44MUMyMzQuMDg4IDEyMC42NyAyMzQuNTU3IDEyMS4zNTMgMjM0Ljc5MSAxMjEuODIyTDIzOS42MzUgMTMxLjE0MUgyMjguMzg1TDIyMy4wNzIgMTIxLjMxNEMyMjIuMzg4IDEyMC4wNDUgMjIxLjgwMiAxMTkuMjA1IDIyMS4yNzUgMTE4LjgzM0MyMjAuNTUyIDExOC4zNDUgMjE5LjczMiAxMTguMDkxIDIxOC44MzMgMTE4LjA5MUgyMTcuOTU0VjEzMS4xNDFIMjA3Ljk1NFYxMzEuMTIxWk0yNDMuMDczIDE4Ny4yNDhIMjI0LjQ3OEwyMjEuODAyIDE5NkgyMDUuMDQ0TDIyNS4wMjUgMTQyLjg4MkgyNDIuOTk1TDI2Mi44OTkgMTk2SDI0NS43MUwyNDMuMDczIDE4Ny4yNDhaTTIzOS41OTYgMTc1Ljc0MUwyMzMuNzk1IDE1Ni42MzVMMjI3Ljk3NSAxNzUuNzQxSDIzOS41OTZaTTI2Ni43NjYgMTQyLjg4MkgyOTQuMDcyQzMwMC4wMyAxNDIuODgyIDMwNC40ODMgMTQ0LjI4OSAzMDcuNDMyIDE0Ny4xMjFDMzEwLjM4MiAxNDkuOTU0IDMxMS44NjYgMTUzLjk5OCAzMTEuODY2IDE1OS4yMTRDMzExLjg2NiAxNjQuNTg2IDMxMC4yNDUgMTY4Ljc4NyAzMDcuMDIyIDE3MS44MTVDMzAzLjc5OSAxNzQuODQzIDI5OC44NTggMTc2LjM0NyAyOTIuMjM2IDE3Ni4zNDdIMjgzLjIzMlYxOTZIMjY2Ljc2NlYxNDIuODgyVjE0Mi44ODJaTTI4My4yMzIgMTY1LjU4M0gyODcuMjc1QzI5MC40NTkgMTY1LjU4MyAyOTIuNzA1IDE2NS4wMzYgMjkzLjk5NCAxNjMuOTIyQzI5NS4yODMgMTYyLjgyOCAyOTUuOTI4IDE2MS40MDIgMjk1LjkyOCAxNTkuNzAyQzI5NS45MjggMTU4LjA0MiAyOTUuMzYxIDE1Ni42MTYgMjk0LjI0OCAxNTUuNDYzQzI5My4xMzUgMTU0LjMxIDI5MS4wMjUgMTUzLjcyNCAyODcuOTM5IDE1My43MjRIMjgzLjIzMlYxNjUuNTgzVjE2NS41ODNaTTMxOC41MDcgMTQyLjg4MkgzMzQuOTczVjE5NkgzMTguNTA3VjE0Mi44ODJWMTQyLjg4MlpNMjE3Ljk1NCAxMTEuOTc2SDIyMi4xNTRDMjIyLjYwMyAxMTEuOTc2IDIyMy40ODIgMTExLjgyIDIyNC43OTEgMTExLjUyN0MyMjUuNDU1IDExMS4zOSAyMjYuMDAyIDExMS4wNTggMjI2LjQxMiAxMTAuNTExQzIyNi44NDIgMTA5Ljk2NCAyMjcuMDM3IDEwOS4zMzkgMjI3LjAzNyAxMDguNjM2QzIyNy4wMzcgMTA3LjYgMjI2LjcwNSAxMDYuNzggMjI2LjA0MSAxMDYuMjMzQzIyNS4zNzcgMTA1LjY2NiAyMjQuMTQ2IDEwNS4zOTMgMjIyLjMzIDEwNS4zOTNIMjE3Ljk1NFYxMTEuOTc2Wk0yNDEuNTUgOTguODg3MkgyNjguMjExVjEwNS43NjRIMjUxLjU1VjExMC45MDJIMjY3VjExNy40NjZIMjUxLjU1VjEyMy44MTVIMjY4LjdWMTMxLjEwMkgyNDEuNTVWOTguODg3MlpNMjcxLjA2MyAxMjAuNDU1TDI4MC41MTcgMTE5Ljg2OUMyODAuNzEyIDEyMS40MTIgMjgxLjE0MiAxMjIuNTY1IDI4MS43NjcgMTIzLjM2NkMyODIuODAyIDEyNC42NTUgMjg0LjI2NyAxMjUuMzE5IDI4Ni4xNjIgMTI1LjMxOUMyODcuNTY4IDEyNS4zMTkgMjg4LjY4MSAxMjQuOTg3IDI4OS40NDMgMTI0LjMyM0MyOTAuMjA1IDEyMy42NTkgMjkwLjU5NSAxMjIuODc3IDI5MC41OTUgMTIxLjk5OEMyOTAuNTk1IDEyMS4xNTggMjkwLjIyNCAxMjAuNDE2IDI4OS41MDIgMTE5Ljc1MkMyODguNzc5IDExOS4wODcgMjg3LjA4IDExOC40ODIgMjg0LjQwNCAxMTcuODc2QzI4MC4wNDggMTE2Ljg5OSAyNzYuOTQyIDExNS41OSAyNzUuMDY3IDExMy45NjlDMjczLjE5MiAxMTIuMzQ3IDI3Mi4yNTUgMTEwLjI3NyAyNzIuMjU1IDEwNy43NTZDMjcyLjI1NSAxMDYuMDk2IDI3Mi43NDMgMTA0LjUzMyAyNzMuNyAxMDMuMDY4QzI3NC42NTcgMTAxLjYwMyAyNzYuMTAyIDEwMC40MzEgMjc4LjAzNiA5OS41OTA1QzI3OS45NyA5OC43NTA0IDI4Mi42MDcgOTguMzQwMiAyODUuOTY2IDk4LjM0MDJDMjkwLjA4OCA5OC4zNDAyIDI5My4yMTMgOTkuMTAyMSAyOTUuMzgxIDEwMC42NDVDMjk3LjUyOSAxMDIuMTg5IDI5OC44MTkgMTA0LjYxMSAyOTkuMjI5IDEwNy45NzFMMjg5Ljg3MyAxMDguNTM4QzI4OS42MTkgMTA3LjA3MyAyODkuMDkxIDEwNS45OTggMjg4LjMxIDEwNS4zNTRDMjg3LjUwOSAxMDQuNjg5IDI4Ni4zOTYgMTA0LjM1NyAyODUuMDA5IDEwNC4zNTdDMjgzLjg1NyAxMDQuMzU3IDI4Mi45NzggMTA0LjYxMSAyODIuMzkyIDEwNS4xQzI4MS44MDYgMTA1LjU4OCAyODEuNTEzIDEwNi4xOTQgMjgxLjUxMyAxMDYuODk3QzI4MS41MTMgMTA3LjQwNSAyODEuNzY3IDEwNy44NTQgMjgyLjIzNiAxMDguMjg0QzI4Mi43MDQgMTA4LjY5NCAyODMuNzk4IDEwOS4xMDQgMjg1LjU1NiAxMDkuNDc2QzI4OS45MTIgMTEwLjQxMyAyOTMuMDM3IDExMS4zNzEgMjk0LjkxMiAxMTIuMzI4QzI5Ni43ODcgMTEzLjI4NSAyOTguMTc0IDExNC40NzcgMjk5LjAxNCAxMTUuOTAzQzI5OS44NzMgMTE3LjMxIDMwMC4zMDMgMTE4LjkxMSAzMDAuMzAzIDEyMC42N0MzMDAuMzAzIDEyMi43NCAyOTkuNzM3IDEyNC42MzUgMjk4LjU4NCAxMjYuMzc0QzI5Ny40NTEgMTI4LjExMyAyOTUuODUgMTI5LjQ0MSAyOTMuNzk5IDEzMC4zNEMyOTEuNzQ4IDEzMS4yMzkgMjg5LjE3IDEzMS42ODggMjg2LjA0NCAxMzEuNjg4QzI4MC41NzUgMTMxLjY4OCAyNzYuNzY3IDEzMC42MzMgMjc0LjY1NyAxMjguNTIzQzI3Mi41NDggMTI2LjM3NCAyNzEuMzU2IDEyMy42OTggMjcxLjA2MyAxMjAuNDU1Wk0zMDEuNzQ4IDk4Ljg4NzJIMzMyLjA0M1YxMDYuODU4SDMyMS44ODZWMTMxLjEyMUgzMTEuOTI1VjEwNi44NThIMzAxLjc0OFY5OC44ODcyVjk4Ljg4NzJaTTI2OC4yMzEgMjIuMzg0N0MyNjQuNjU2IDIyLjExMTIgMjYxLjA0MyAyMi4xNTAzIDI1Ny40NjkgMjIuNTAyQzI0Ni40NzIgMjMuNTU2OSAyMzUuNzg4IDI3LjU2MTcgMjI2Ljk1OSAzNC40MTg4QzIxNi43NDMgNDIuMzMwOSAyMDguOTg5IDU0LjE2OTYgMjA2LjAwMSA2OS44NTY5TDIwNS4wNjMgNzQuNzYwNEwyMDAuMTggNzUuNjJDMTk1LjM5NSA3Ni40NiAxOTEuMTE3IDc3LjYxMjYgMTg3LjM2NyA3OS4wNzc4QzE4My43MzQgODAuNDg0NCAxODAuNDkxIDgyLjIyMzEgMTc3LjY1OSA4NC4yNzQ0QzE3NS4zOTMgODUuOTE1NCAxNzMuNDQgODcuNzUxNyAxNzEuNzggODkuNzQ0NEMxNjYuNjQzIDk1Ljg5ODIgMTY0LjI2IDEwMy42MTUgMTY0LjMxOSAxMTEuNDI5QzE2NC4zNzcgMTE5LjM2MSAxNjYuOTU1IDEyNy4zNyAxNzEuNzIxIDEzMy45NTRDMTczLjQ5OSAxMzYuMzk2IDE3NS41NSAxMzguNjQzIDE3Ny44OTQgMTQwLjU5NkMxODAuMjc3IDE0Mi41NjkgMTgyLjk1MiAxNDQuMjEgMTg1Ljk2IDE0NS40NDFDMTg3LjY2IDE0Ni4xNDQgMTg5LjQ3NiAxNDYuNzMxIDE5MS4zNzEgMTQ3LjE5OVYxNjEuODMyQzE4Ny40NjQgMTYxLjEyOCAxODMuODcgMTYwLjA3NCAxODAuNTExIDE1OC42ODZDMTc2LjA3NyAxNTYuODUgMTcyLjE1MSAxNTQuNDg2IDE2OC42OTQgMTUxLjU5NUMxNjUuNDEyIDE0OC44NiAxNjIuNTQxIDE0NS43NTQgMTYwLjEgMTQyLjM3NEMxNTMuNTk1IDEzMy4zODggMTUwLjA3OSAxMjIuNDA4IDE1MC4wMDEgMTExLjQ2OEMxNDkuOTIzIDEwMC40MTEgMTUzLjM2MSA4OS40MTIzIDE2MC43ODMgODAuNTAzOUMxNjMuMTg2IDc3LjYxMjYgMTY2LjAxOCA3NC45NTU4IDE2OS4yNiA3Mi42MTE0QzE3My4wMyA2OS44NzY0IDE3Ny4zNDcgNjcuNTcxMiAxODIuMjMgNjUuNjc2MkMxODUuNTg5IDY0LjM2NzMgMTg5LjE4MyA2My4yNzMzIDE5Mi45NzMgNjIuMzk0MkMxOTcuMjcgNDUuMzE5OCAyMDYuNDMgMzIuMTcyMiAyMTguMjA4IDIzLjA0OUMyMjkuMjI1IDE0LjUxMTggMjQyLjQ4NyA5LjUzMDEzIDI1Ni4xNCA4LjIyMTIzQzI2My4zMDkgNy41Mzc0NyAyNzAuNTc1IDcuODUwMDUgMjc3LjY4NSA5LjE3ODQ5QzI3Ny41MjggOS44MjMxNyAyNzcuMzkyIDEwLjQ2NzkgMjc3LjMxMyAxMS4xMzIxTDI3Ny4yOTQgMTEuMjQ5M0MyNzcuMTU3IDEyLjM2MjggMjc3LjA5OSAxMy40NzY0IDI3Ny4xNTcgMTQuNjA5NUMyNzUuNjUzIDE1LjE5NTUgMjc0LjI0NyAxNS45OTY1IDI3Mi45NzcgMTYuOTczM0wyNzIuOTE5IDE3LjAxMjRDMjcxLjAyNCAxOC40Mzg1IDI2OS40MjIgMjAuMjc0OSAyNjguMjMxIDIyLjM4NDdaTTM3MS41NzcgNTkuODkzNkMzNzIuNjcxIDYwLjg4OTkgMzczLjcyNSA2MS45MjUzIDM3NC43NjEgNjMuMDM4OUMzNzYuODUgNjUuMjg1NSAzNzguODIzIDY3LjgyNTIgMzgwLjY3OSA3MC42NTc5QzM4Ni45MjkgODAuMjY5NSAzOTAuMTMzIDkzLjEwNDYgMzg5Ljk5NiAxMDUuNjY2QzM4OS44NTkgMTE3Ljk5MyAzODYuNTM5IDEzMC4yNjIgMzc5Ljc0MSAxMzkuMjg3QzM3NS4zMDcgMTQ1LjE2OCAzNjkuNjI0IDE0OS45NzMgMzYyLjgwNyAxNTMuNzgzQzM1OC4xMzggMTU2LjQwMSAzNTIuODg0IDE1OC41NjkgMzQ3LjE2MSAxNjAuMzI4VjE0NS4xODdDMzUwLjI0NyAxNDQuMDM1IDM1My4xMTkgMTQyLjc0NSAzNTUuNzU2IDE0MS4yOEMzNjAuODkzIDEzOC40MDggMzY1LjA5MiAxMzQuOTExIDM2OC4yMzcgMTMwLjcxMUMzNzMuMTIgMTI0LjIwNiAzNzUuNTIyIDExNS4wMDQgMzc1LjYyIDEwNS41NjhDMzc1LjczNyA5NS42NjM4IDM3My4zMTUgODUuNzIgMzY4LjYwOCA3OC40OTE4QzM2Ny4yNiA3Ni40MDE0IDM2NS43NzYgNzQuNTI2IDM2NC4yMTMgNzIuODQ1OUMzNjMuNjA4IDcyLjIwMTIgMzYzLjAwMiA3MS41OTU2IDM2Mi4zNzcgNzEuMDA5NUMzNjIuNDc1IDcwLjAzMjcgMzYyLjUxNCA2OS4wMzY0IDM2Mi40NTUgNjguMDQwMUMzNjMuOTU5IDY3LjQ1NCAzNjUuMzY1IDY2LjY1MyAzNjYuNjM1IDY1LjY3NjJMMzY2LjY5NCA2NS42MzcxQzM2OC43MDUgNjQuMDkzOCAzNzAuMzg1IDYyLjE0MDIgMzcxLjU3NyA1OS44OTM2Wk0zMjIuMDQzIDI1LjAwMjVDMzMxLjA0NyAyNi4yMzMzIDMzNy4zMzYgMzQuNTM2IDMzNi4xMDYgNDMuNTQyMUMzMzQuODc1IDUyLjU0ODEgMzI2LjU3NCA1OC44NTgyIDMxNy41NyA1Ny42Mjc0QzMwOC41NjUgNTYuMzk2NyAzMDIuMjU2IDQ4LjA5MzkgMzAzLjUwNiAzOS4wODc5QzMwNC43NTYgMzAuMDgxOSAzMTMuMDM4IDIzLjc3MTggMzIyLjA0MyAyNS4wMDI1WiIgY2xpcC1ydWxlPSJldmVub2RkIiBmaWxsLXJ1bGU9ImV2ZW5vZGQiLz4mI3hhOzwvc3ZnPg==;" vertex="1" parent="vhtiH4_wVitRDqFueMQG-35">
          <mxGeometry x="200" y="470" width="80" height="29.03" as="geometry" />
        </mxCell>
        <mxCell id="vhtiH4_wVitRDqFueMQG-213" value="" style="shape=image;verticalLabelPosition=bottom;labelBackgroundColor=default;verticalAlign=top;aspect=fixed;imageAspect=0;image=data:image/svg+xml,PHN2ZyB4bWxucz0iaHR0cDovL3d3dy53My5vcmcvMjAwMC9zdmciIHZpZXdCb3g9IjAgMCAxMDI0IDEwMjQiIGhlaWdodD0iODAwcHgiIHdpZHRoPSI4MDBweCI+JiN4YTsgICA8Y2lyY2xlIHN0eWxlPSJmaWxsOiMwMDkxZTIiIHI9IjUxMiIgY3k9IjUxMiIgY3g9IjUxMiIvPiYjeGE7ICAgPHBhdGggc3R5bGU9ImZpbGw6I2ZmZiIgZD0iTTgyNy4zIDQ2MS41Yy0xLjYtMS4zLTE2LjEtMTIuMi00Ni43LTEyLjItOC4xIDAtMTYuMi42LTI0LjIgMi4xLTUuOS00MC43LTM5LjUtNjAuNS00MS02MS40bC04LjItNC44LTUuNCA3LjhjLTYuOCAxMC41LTExLjcgMjItMTQuNiAzNC4yLTUuNSAyMy4yLTIuMiA0NSA5LjYgNjMuNi0xNC4yIDcuOS0zNy4xIDkuOS00MS43IDEwSDI3N2MtOS45IDAtMTcuOSA4LTE3LjkgMTcuOS0uNCAzMy4xIDUuMiA2NiAxNi41IDk3LjEgMTMgMzQuMiAzMi40IDU5LjMgNTcuNiA3NC43IDI4LjIgMTcuMyA3NC4xIDI3LjIgMTI2LjIgMjcuMiAyMy41LjEgNDctMi4xIDcwLjEtNi40IDMyLjEtNS45IDYzLTE3LjEgOTEuNC0zMy4yIDIzLjQtMTMuNiA0NC41LTMwLjggNjIuNC01MS4xIDI5LjktMzMuOSA0Ny44LTcxLjcgNjEuMS0xMDUuMmg1LjNjMzIuOCAwIDUzLTEzLjEgNjQuMS0yNC4xIDcuNC03IDEzLjItMTUuNSAxNi45LTI1bDIuMy02LjktNS43LTQuM3pNMzEyIDQ4OS45aDUwLjdjMi40IDAgNC40LTIgNC40LTQuNHYtNDUuMWMwLTIuNC0yLTQuNC00LjQtNC41SDMxMmMtMi40IDAtNC40IDItNC40IDQuNHY0NS4yYzAgMi41IDIgNC40IDQuNCA0LjRtNjkuOSAwaDUwLjdjMi40IDAgNC40LTIgNC40LTQuNHYtNDUuMWMwLTIuNC0yLTQuNC00LjQtNC41aC01MC43Yy0yLjUgMC00LjUgMi00LjUgNC41djQ1LjFjMCAyLjUgMiA0LjQgNC41IDQuNG03MC44LjFoNTAuN2MyLjQgMCA0LjQtMiA0LjQtNC40di00NS4xYzAtMi40LTItNC40LTQuNC00LjVoLTUwLjdjLTIuNCAwLTQuNCAyLTQuNCA0LjR2NDUuMmMwIDIuNCAyIDQuMyA0LjQgNC40bTcwLjEgMGg1MC43YzIuNCAwIDQuNC0yIDQuNS00LjR2LTQ1LjFjMC0yLjUtMi00LjUtNC41LTQuNWgtNTAuN2MtMi40IDAtNC40IDItNC40IDQuNHY0NS4yYzAgMi40IDEuOSA0LjQgNC40IDQuNG0tMTQxLTY1aDUwLjdjMi40IDAgNC40LTIgNC40LTQuNXYtNDUuMWMwLTIuNC0yLTQuNC00LjQtNC40aC01MC43Yy0yLjUgMC00LjQgMi00LjUgNC40djQ1LjFjLjEgMi41IDIuMSA0LjUgNC41IDQuNW03MC45IDBoNTAuN2MyLjQgMCA0LjQtMiA0LjQtNC41di00NS4xYzAtMi40LTItNC40LTQuNC00LjRoLTUwLjdjLTIuNCAwLTQuNCAyLTQuNCA0LjR2NDUuMWMwIDIuNSAyIDQuNSA0LjQgNC41bTcwLjEgMGg1MC43YzIuNSAwIDQuNC0yIDQuNS00LjV2LTQ1LjFjMC0yLjUtMi00LjQtNC41LTQuNGgtNTAuN2MtMi40IDAtNC40IDItNC40IDQuNHY0NS4xYzAgMi41IDEuOSA0LjUgNC40IDQuNW0wLTY0LjloNTAuN2MyLjUgMCA0LjUtMiA0LjUtNC41di00NS4yYzAtMi40LTItNC40LTQuNS00LjRoLTUwLjdjLTIuNCAwLTQuNCAyLTQuNCA0LjR2NDUuMmMwIDIuNSAxLjkgNC41IDQuNCA0LjVNNTkzLjQgNDkwaDUwLjdjMi40IDAgNC40LTIgNC40LTQuNHYtNDUuMWMwLTIuNS0yLTQuNC00LjQtNC41aC01MC43Yy0yLjQgMC00LjQgMi00LjQgNC40djQ1LjJjMCAyLjQgMiA0LjQgNC40IDQuNCIvPiYjeGE7PC9zdmc+;" vertex="1" parent="vhtiH4_wVitRDqFueMQG-35">
          <mxGeometry x="329.51" y="491.69" width="19.03" height="19.03" as="geometry" />
        </mxCell>
        <mxCell id="vhtiH4_wVitRDqFueMQG-1" value="" style="verticalLabelPosition=bottom;html=1;verticalAlign=top;align=center;strokeColor=none;fillColor=#00BEF2;shape=mxgraph.azure.laptop;pointerEvents=1;" vertex="1" parent="1">
          <mxGeometry y="490" width="50" height="30" as="geometry" />
        </mxCell>
        <mxCell id="vhtiH4_wVitRDqFueMQG-29" value="" style="endArrow=classic;html=1;rounded=0;exitX=0.92;exitY=0.5;exitDx=0;exitDy=0;exitPerimeter=0;entryX=-0.002;entryY=0.574;entryDx=0;entryDy=0;entryPerimeter=0;" edge="1" parent="1" source="vhtiH4_wVitRDqFueMQG-1" target="vhtiH4_wVitRDqFueMQG-15">
          <mxGeometry width="50" height="50" relative="1" as="geometry">
            <mxPoint x="170" y="360" as="sourcePoint" />
            <mxPoint x="220" y="310" as="targetPoint" />
            <Array as="points">
              <mxPoint x="110" y="505" />
              <mxPoint x="110" y="435" />
              <mxPoint x="110" y="330" />
              <mxPoint x="150" y="330" />
            </Array>
          </mxGeometry>
        </mxCell>
        <mxCell id="vhtiH4_wVitRDqFueMQG-30" value="" style="endArrow=classic;html=1;rounded=0;exitX=0.92;exitY=0.5;exitDx=0;exitDy=0;exitPerimeter=0;entryX=0;entryY=0.5;entryDx=0;entryDy=0;" edge="1" parent="1" source="vhtiH4_wVitRDqFueMQG-1" target="vhtiH4_wVitRDqFueMQG-17">
          <mxGeometry width="50" height="50" relative="1" as="geometry">
            <mxPoint x="170" y="380" as="sourcePoint" />
            <mxPoint x="220" y="330" as="targetPoint" />
            <Array as="points">
              <mxPoint x="110" y="505" />
              <mxPoint x="110" y="435" />
            </Array>
          </mxGeometry>
        </mxCell>
        <mxCell id="vhtiH4_wVitRDqFueMQG-132" value="" style="endArrow=classic;html=1;rounded=0;entryX=0;entryY=0.5;entryDx=0;entryDy=0;" edge="1" parent="1" target="vhtiH4_wVitRDqFueMQG-94">
          <mxGeometry width="50" height="50" relative="1" as="geometry">
            <mxPoint x="110" y="430" as="sourcePoint" />
            <mxPoint x="330" y="460" as="targetPoint" />
            <Array as="points">
              <mxPoint x="110" y="540" />
            </Array>
          </mxGeometry>
        </mxCell>
        <mxCell id="vhtiH4_wVitRDqFueMQG-209" value="" style="endArrow=classic;html=1;rounded=0;entryX=0;entryY=0.5;entryDx=0;entryDy=0;" edge="1" parent="1" target="vhtiH4_wVitRDqFueMQG-199">
          <mxGeometry width="50" height="50" relative="1" as="geometry">
            <mxPoint x="110" y="540" as="sourcePoint" />
            <mxPoint x="310" y="530" as="targetPoint" />
            <Array as="points">
              <mxPoint x="110" y="655" />
            </Array>
          </mxGeometry>
        </mxCell>
      </root>
    </mxGraphModel>
  </diagram>
</mxfile>
